Hack-RegularOblique.ufo
<glyph name="exclam" format="1">
  <advance width="1233"/>
  <unicode hex="0021"/>
  <note>
	exclam
  </note>
  <outline>
    <contour>
      <point x="755" y="486" type="line"/>
      <point x="912" y="1053" type="line"/>
      <point x="982" y="1498" type="line"/>
      <point x="717" y="1498" type="line"/>
      <point x="647" y="1053" type="line"/>
      <point x="634" y="486" type="line"/>
    </contour>
    <contour>
      <point x="653" y="-38"/>
      <point x="688" y="-22"/>
      <point x="716" y="4" type="curve" smooth="yes"/>
      <point x="756" y="41"/>
      <point x="777" y="94"/>
      <point x="777" y="143" type="curve" smooth="yes"/>
      <point x="777" y="161"/>
      <point x="774" y="199"/>
      <point x="748" y="227" type="curve" smooth="yes"/>
      <point x="726" y="250"/>
      <point x="693" y="262"/>
      <point x="657" y="262" type="curve" smooth="yes"/>
      <point x="616" y="262"/>
      <point x="576" y="246"/>
      <point x="542" y="214" type="curve" smooth="yes"/>
      <point x="508" y="181"/>
      <point x="489" y="139"/>
      <point x="489" y="92" type="curve" smooth="yes"/>
      <point x="489" y="66"/>
      <point x="495" y="27"/>
      <point x="519" y="-2" type="curve" smooth="yes"/>
      <point x="540" y="-27"/>
      <point x="569" y="-38"/>
      <point x="607" y="-38" type="curve" smooth="yes"/>
    </contour>
  </outline>
</glyph>
<glyph name="quotedbl" format="1">
  <advance width="1233"/>
  <unicode hex="0022"/>
  <note>
	quotedbl
  </note>
  <outline>
    <contour>
      <point x="895" y="938" type="line"/>
      <point x="895" y="1493" type="line"/>
      <point x="721" y="1493" type="line"/>
      <point x="721" y="938" type="line"/>
    </contour>
    <contour>
      <point x="512" y="938" type="line"/>
      <point x="512" y="1493" type="line"/>
      <point x="338" y="1493" type="line"/>
      <point x="338" y="938" type="line"/>
    </contour>
  </outline>
</glyph>
<glyph name="dollar" format="1">
  <advance width="1233"/>
  <unicode hex="0024"/>
  <note>
	dollar
  </note>
  <outline>
    <contour>
      <point x="629" y="588" type="line"/>
      <point x="701" y="575"/>
      <point x="753" y="555"/>
      <point x="784" y="527" type="curve" smooth="yes"/>
      <point x="814" y="500"/>
      <point x="831" y="460"/>
      <point x="831" y="402" type="curve" smooth="yes"/>
      <point x="831" y="327"/>
      <point x="803" y="265"/>
      <point x="752" y="218" type="curve" smooth="yes"/>
      <point x="699" y="169"/>
      <point x="629" y="145"/>
      <point x="543" y="145" type="curve"/>
    </contour>
    <contour>
      <point x="563" y="774" type="line"/>
      <point x="488" y="790"/>
      <point x="442" y="810"/>
      <point x="415" y="834" type="curve" smooth="yes"/>
      <point x="387" y="859"/>
      <point x="373" y="893"/>
      <point x="373" y="941" type="curve" smooth="yes"/>
      <point x="373" y="1005"/>
      <point x="398" y="1062"/>
      <point x="449" y="1108" type="curve" smooth="yes"/>
      <point x="499" y="1153"/>
      <point x="564" y="1179"/>
      <point x="643" y="1184" type="curve"/>
    </contour>
    <contour>
      <point x="455" y="-301" type="line"/>
      <point x="514" y="2" type="line"/>
      <point x="524" y="2" type="line" smooth="yes"/>
      <point x="668" y="2"/>
      <point x="786" y="42"/>
      <point x="877" y="122" type="curve" smooth="yes"/>
      <point x="968" y="202"/>
      <point x="1014" y="305"/>
      <point x="1014" y="421" type="curve" smooth="yes"/>
      <point x="1014" y="515"/>
      <point x="984" y="584"/>
      <point x="925" y="639" type="curve" smooth="yes"/>
      <point x="866" y="694"/>
      <point x="778" y="733"/>
      <point x="662" y="756" type="curve"/>
      <point x="743" y="1182" type="line"/>
      <point x="805" y="1177"/>
      <point x="870" y="1163"/>
      <point x="909" y="1151" type="curve" smooth="yes"/>
      <point x="952" y="1138"/>
      <point x="1008" y="1114"/>
      <point x="1051" y="1087" type="curve"/>
      <point x="1083" y="1260" type="line"/>
      <point x="1039" y="1275"/>
      <point x="973" y="1292"/>
      <point x="933" y="1300" type="curve" smooth="yes"/>
      <point x="893" y="1308"/>
      <point x="829" y="1317"/>
      <point x="770" y="1321" type="curve"/>
      <point x="817" y="1556" type="line"/>
      <point x="717" y="1556" type="line"/>
      <point x="669" y="1321" type="line"/>
      <point x="538" y="1317"/>
      <point x="417" y="1277"/>
      <point x="328" y="1200" type="curve" smooth="yes"/>
      <point x="239" y="1123"/>
      <point x="195" y="1022"/>
      <point x="195" y="912" type="curve" smooth="yes"/>
      <point x="195" y="822"/>
      <point x="225" y="760"/>
      <point x="275" y="714" type="curve" smooth="yes"/>
      <point x="329" y="665"/>
      <point x="409" y="630"/>
      <point x="530" y="606" type="curve"/>
      <point x="440" y="141" type="line"/>
      <point x="371" y="144"/>
      <point x="305" y="157"/>
      <point x="242" y="179" type="curve" smooth="yes"/>
      <point x="179" y="201"/>
      <point x="120" y="232"/>
      <point x="66" y="272" type="curve"/>
      <point x="31" y="92" type="line"/>
      <point x="92" y="64"/>
      <point x="154" y="42"/>
      <point x="222" y="26" type="curve" smooth="yes"/>
      <point x="286" y="11"/>
      <point x="350" y="2"/>
      <point x="413" y="0" type="curve"/>
      <point x="354" y="-301" type="line"/>
    </contour>
  </outline>
</glyph>
<glyph name="ampersand" format="1">
  <advance width="1233"/>
  <unicode hex="0026"/>
  <note>
	ampersand
  </note>
  <outline>
    <contour>
      <point x="567" y="907" type="line" smooth="yes"/>
      <point x="540" y="955"/>
      <point x="520" y="1001"/>
      <point x="505" y="1045" type="curve" smooth="yes"/>
      <point x="490" y="1088"/>
      <point x="483" y="1126"/>
      <point x="483" y="1157" type="curve" smooth="yes"/>
      <point x="483" y="1220"/>
      <point x="506" y="1270"/>
      <point x="552" y="1309" type="curve" smooth="yes"/>
      <point x="597" y="1347"/>
      <point x="658" y="1366"/>
      <point x="733" y="1366" type="curve" smooth="yes"/>
      <point x="784" y="1366"/>
      <point x="829" y="1360"/>
      <point x="870" y="1347" type="curve" smooth="yes"/>
      <point x="911" y="1334"/>
      <point x="945" y="1315"/>
      <point x="973" y="1290" type="curve"/>
      <point x="1008" y="1473" type="line"/>
      <point x="970" y="1488"/>
      <point x="930" y="1500"/>
      <point x="889" y="1508" type="curve" smooth="yes"/>
      <point x="848" y="1516"/>
      <point x="805" y="1520"/>
      <point x="762" y="1520" type="curve" smooth="yes"/>
      <point x="624" y="1520"/>
      <point x="514" y="1485"/>
      <point x="432" y="1415" type="curve" smooth="yes"/>
      <point x="350" y="1344"/>
      <point x="309" y="1251"/>
      <point x="309" y="1135" type="curve" smooth="yes"/>
      <point x="309" y="1098"/>
      <point x="314" y="1062"/>
      <point x="324" y="1026" type="curve" smooth="yes"/>
      <point x="333" y="990"/>
      <point x="348" y="955"/>
      <point x="367" y="920" type="curve"/>
      <point x="242" y="851"/>
      <point x="146" y="769"/>
      <point x="79" y="673" type="curve" smooth="yes"/>
      <point x="13" y="576"/>
      <point x="-20" y="472"/>
      <point x="-20" y="360" type="curve" smooth="yes"/>
      <point x="-20" y="243"/>
      <point x="19" y="149"/>
      <point x="97" y="78" type="curve" smooth="yes"/>
      <point x="176" y="7"/>
      <point x="280" y="-29"/>
      <point x="410" y="-29" type="curve" smooth="yes"/>
      <point x="479" y="-29"/>
      <point x="547" y="-17"/>
      <point x="614" y="7" type="curve" smooth="yes"/>
      <point x="681" y="30"/>
      <point x="746" y="66"/>
      <point x="809" y="113" type="curve"/>
      <point x="868" y="0" type="line"/>
      <point x="1067" y="0" type="line"/>
      <point x="944" y="221" type="line"/>
      <point x="1015" y="289"/>
      <point x="1071" y="368"/>
      <point x="1112" y="458" type="curve" smooth="yes"/>
      <point x="1153" y="547"/>
      <point x="1179" y="648"/>
      <point x="1190" y="760" type="curve"/>
      <point x="1022" y="760" type="line"/>
      <point x="1014" y="667"/>
      <point x="998" y="587"/>
      <point x="973" y="519" type="curve" smooth="yes"/>
      <point x="948" y="450"/>
      <point x="915" y="394"/>
      <point x="874" y="350" type="curve"/>
    </contour>
    <contour>
      <point x="741" y="240" type="line"/>
      <point x="694" y="204"/>
      <point x="646" y="177"/>
      <point x="597" y="158" type="curve" smooth="yes"/>
      <point x="548" y="139"/>
      <point x="502" y="129"/>
      <point x="459" y="129" type="curve" smooth="yes"/>
      <point x="373" y="129"/>
      <point x="301" y="156"/>
      <point x="244" y="209" type="curve" smooth="yes"/>
      <point x="187" y="262"/>
      <point x="158" y="329"/>
      <point x="158" y="408" type="curve" smooth="yes"/>
      <point x="158" y="486"/>
      <point x="181" y="558"/>
      <point x="228" y="624" type="curve" smooth="yes"/>
      <point x="274" y="689"/>
      <point x="342" y="746"/>
      <point x="432" y="795" type="curve"/>
    </contour>
  </outline>
</glyph>
<glyph name="parenleft" format="1">
  <advance width="1233"/>
  <unicode hex="0028"/>
  <note>
	parenleft
  </note>
  <outline>
    <contour>
      <point x="773" y="1554" type="line"/>
      <point x="603" y="1367"/>
      <point x="476" y="1173"/>
      <point x="392" y="978" type="curve" smooth="yes"/>
      <point x="306" y="778"/>
      <point x="263" y="575"/>
      <point x="263" y="381" type="curve" smooth="yes"/>
      <point x="263" y="278"/>
      <point x="275" y="181"/>
      <point x="300" y="76" type="curve" smooth="yes"/>
      <point x="325" y="-29"/>
      <point x="363" y="-144"/>
      <point x="416" y="-270" type="curve"/>
      <point x="576" y="-270" type="line"/>
      <point x="536" y="-162"/>
      <point x="508" y="-65"/>
      <point x="487" y="43" type="curve" smooth="yes"/>
      <point x="468" y="141"/>
      <point x="457" y="235"/>
      <point x="457" y="340" type="curve" smooth="yes"/>
      <point x="457" y="541"/>
      <point x="497" y="744"/>
      <point x="577" y="948" type="curve" smooth="yes"/>
      <point x="658" y="1155"/>
      <point x="775" y="1353"/>
      <point x="932" y="1554" type="curve"/>
    </contour>
  </outline>
</glyph>
<glyph name="parenright" format="1">
  <advance width="1233"/>
  <unicode hex="0029"/>
  <note>
	parenright
  </note>
  <outline>
    <contour>
      <point x="489" y="-270" type="line"/>
      <point x="657" y="-85"/>
      <point x="784" y="107"/>
      <point x="870" y="307" type="curve" smooth="yes"/>
      <point x="956" y="506"/>
      <point x="999" y="707"/>
      <point x="999" y="909" type="curve" smooth="yes"/>
      <point x="999" y="1004"/>
      <point x="987" y="1104"/>
      <point x="962" y="1209" type="curve" smooth="yes"/>
      <point x="937" y="1314"/>
      <point x="898" y="1429"/>
      <point x="846" y="1554" type="curve"/>
      <point x="686" y="1554" type="line"/>
      <point x="726" y="1446"/>
      <point x="756" y="1342"/>
      <point x="776" y="1241" type="curve" smooth="yes"/>
      <point x="795" y="1140"/>
      <point x="805" y="1041"/>
      <point x="805" y="944" type="curve" smooth="yes"/>
      <point x="805" y="742"/>
      <point x="765" y="539"/>
      <point x="686" y="336" type="curve" smooth="yes"/>
      <point x="606" y="132"/>
      <point x="487" y="-70"/>
      <point x="330" y="-270" type="curve"/>
    </contour>
  </outline>
</glyph>
<glyph name="asterisk" format="1">
  <advance width="1233"/>
  <unicode hex="002A"/>
  <note>
	asterisk
  </note>
  <outline>
    <contour>
      <point x="344" y="499" type="line"/>
      <point x="614" y="856" type="line"/>
      <point x="884" y="499" type="line"/>
      <point x="978" y="566" type="line"/>
      <point x="736" y="937" type="line"/>
      <point x="1100" y="1095" type="line"/>
      <point x="1064" y="1198" type="line"/>
      <point x="688" y="1075" type="line"/>
      <point x="668" y="1500" type="line"/>
      <point x="560" y="1500" type="line"/>
      <point x="540" y="1075" type="line"/>
      <point x="164" y="1198" type="line"/>
      <point x="128" y="1095" type="line"/>
      <point x="492" y="937" type="line"/>
      <point x="250" y="566" type="line"/>
    </contour>
  </outline>
</glyph>
<glyph name="plus" format="1">
  <advance width="1233"/>
  <unicode hex="002B"/>
  <note>
	plus
  </note>
  <outline>
    <contour>
      <point x="700" y="1171" type="line"/>
      <point x="532" y="1171" type="line"/>
      <point x="532" y="727" type="line"/>
      <point x="88" y="727" type="line"/>
      <point x="88" y="557" type="line"/>
      <point x="532" y="557" type="line"/>
      <point x="532" y="113" type="line"/>
      <point x="700" y="113" type="line"/>
      <point x="700" y="557" type="line"/>
      <point x="1145" y="557" type="line"/>
      <point x="1145" y="727" type="line"/>
      <point x="700" y="727" type="line"/>
    </contour>
  </outline>
</glyph>
<glyph name="comma" format="1">
  <advance width="1233"/>
  <unicode hex="002C"/>
  <note>
	comma
  </note>
  <outline>
    <contour>
      <point x="558" y="-346"/>
      <point x="645" y="-284"/>
      <point x="706" y="-202" type="curve" smooth="yes"/>
      <point x="767" y="-120"/>
      <point x="798" y="-22"/>
      <point x="798" y="93" type="curve" smooth="yes"/>
      <point x="798" y="173"/>
      <point x="783" y="236"/>
      <point x="752" y="281" type="curve" smooth="yes"/>
      <point x="721" y="326"/>
      <point x="677" y="349"/>
      <point x="619" y="349" type="curve" smooth="yes"/>
      <point x="569" y="349"/>
      <point x="531" y="332"/>
      <point x="504" y="308" type="curve" smooth="yes"/>
      <point x="473" y="281"/>
      <point x="458" y="244"/>
      <point x="458" y="197" type="curve" smooth="yes"/>
      <point x="458" y="149"/>
      <point x="473" y="112"/>
      <point x="502" y="86" type="curve" smooth="yes"/>
      <point x="531" y="60"/>
      <point x="570" y="47"/>
      <point x="612" y="47" type="curve" smooth="yes"/>
      <point x="624" y="47"/>
      <point x="636" y="48"/>
      <point x="652" y="51" type="curve"/>
      <point x="647" y="-98"/>
      <point x="563" y="-210"/>
      <point x="400" y="-283" type="curve"/>
      <point x="446" y="-387" type="line"/>
    </contour>
  </outline>
</glyph>
<glyph name="hyphen" format="1">
  <advance width="1233"/>
  <unicode hex="002D"/>
  <note>
	hyphen
  </note>
  <outline>
    <contour>
      <point x="336" y="673" type="line"/>
      <point x="303" y="509" type="line"/>
      <point x="825" y="509" type="line"/>
      <point x="858" y="673" type="line"/>
    </contour>
  </outline>
</glyph>
<glyph name="period" format="1">
  <advance width="1233"/>
  <unicode hex="002E"/>
  <note>
	period
  </note>
  <outline>
    <contour>
      <point x="451" y="92"/>
      <point x="467" y="51"/>
      <point x="498" y="20" type="curve" smooth="yes"/>
      <point x="529" y="-11"/>
      <point x="568" y="-27"/>
      <point x="613" y="-27" type="curve" smooth="yes"/>
      <point x="658" y="-27"/>
      <point x="697" y="-11"/>
      <point x="728" y="20" type="curve" smooth="yes"/>
      <point x="759" y="51"/>
      <point x="775" y="92"/>
      <point x="775" y="141" type="curve" smooth="yes"/>
      <point x="775" y="192"/>
      <point x="759" y="233"/>
      <point x="728" y="264" type="curve" smooth="yes"/>
      <point x="697" y="295"/>
      <point x="658" y="311"/>
      <point x="613" y="311" type="curve" smooth="yes"/>
      <point x="568" y="311"/>
      <point x="529" y="295"/>
      <point x="498" y="264" type="curve" smooth="yes"/>
      <point x="467" y="233"/>
      <point x="451" y="192"/>
      <point x="451" y="141" type="curve" smooth="yes"/>
    </contour>
  </outline>
</glyph>
<glyph name="zero" format="1">
  <advance width="1233"/>
  <unicode hex="0030"/>
  <note>
	zero
  </note>
  <outline>
    <contour>
      <point x="511" y="739"/>
      <point x="503" y="670"/>
      <point x="495" y="567" type="curve" smooth="yes"/>
      <point x="494" y="548"/>
      <point x="493" y="531"/>
      <point x="493" y="516" type="curve" smooth="yes"/>
      <point x="493" y="446"/>
      <point x="508" y="408"/>
      <point x="537" y="401" type="curve" smooth="yes"/>
      <point x="540" y="400"/>
      <point x="543" y="400"/>
      <point x="546" y="400" type="curve" smooth="yes"/>
      <point x="579" y="401"/>
      <point x="613" y="445"/>
      <point x="648" y="532" type="curve" smooth="yes"/>
      <point x="685" y="627"/>
      <point x="709" y="692"/>
      <point x="718" y="729" type="curve" smooth="yes"/>
      <point x="726" y="765"/>
      <point x="732" y="825"/>
      <point x="736" y="909" type="curve"/>
      <point x="736" y="918"/>
      <point x="736" y="927"/>
      <point x="737" y="935" type="curve"/>
      <point x="737" y="1002"/>
      <point x="721" y="1040"/>
      <point x="689" y="1047" type="curve" smooth="yes"/>
      <point x="686" y="1048"/>
      <point x="682" y="1048"/>
      <point x="679" y="1048" type="curve" smooth="yes"/>
      <point x="648" y="1048"/>
      <point x="616" y="1013"/>
      <point x="584" y="944" type="curve" smooth="yes"/>
      <point x="549" y="867"/>
      <point x="528" y="811"/>
      <point x="519" y="775" type="curve" smooth="yes"/>
    </contour>
    <contour>
      <point x="1135" y="1189"/>
      <point x="1103" y="1315"/>
      <point x="1040" y="1397" type="curve" smooth="yes"/>
      <point x="977" y="1479"/>
      <point x="880" y="1520"/>
      <point x="750" y="1520" type="curve" smooth="yes"/>
      <point x="652" y="1520"/>
      <point x="566" y="1498"/>
      <point x="493" y="1453" type="curve" smooth="yes"/>
      <point x="419" y="1408"/>
      <point x="354" y="1339"/>
      <point x="297" y="1245" type="curve" smooth="yes"/>
      <point x="240" y="1151"/>
      <point x="193" y="1031"/>
      <point x="155" y="885" type="curve" smooth="yes"/>
      <point x="117" y="738"/>
      <point x="98" y="601"/>
      <point x="98" y="473" type="curve" smooth="yes"/>
      <point x="98" y="302"/>
      <point x="129" y="176"/>
      <point x="192" y="94" type="curve" smooth="yes"/>
      <point x="255" y="12"/>
      <point x="351" y="-29"/>
      <point x="481" y="-29" type="curve" smooth="yes"/>
      <point x="580" y="-29"/>
      <point x="666" y="-6"/>
      <point x="741" y="39" type="curve" smooth="yes"/>
      <point x="815" y="84"/>
      <point x="880" y="154"/>
      <point x="936" y="248" type="curve" smooth="yes"/>
      <point x="992" y="340"/>
      <point x="1039" y="460"/>
      <point x="1078" y="608" type="curve" smooth="yes"/>
      <point x="1116" y="755"/>
      <point x="1135" y="893"/>
      <point x="1135" y="1020" type="curve" smooth="yes"/>
    </contour>
    <contour>
      <point x="437" y="135"/>
      <point x="385" y="158"/>
      <point x="351" y="204" type="curve" smooth="yes"/>
      <point x="316" y="250"/>
      <point x="299" y="320"/>
      <point x="299" y="414" type="curve" smooth="yes"/>
      <point x="299" y="540"/>
      <point x="314" y="673"/>
      <point x="345" y="812" type="curve" smooth="yes"/>
      <point x="376" y="951"/>
      <point x="414" y="1066"/>
      <point x="461" y="1159" type="curve" smooth="yes"/>
      <point x="493" y="1222"/>
      <point x="532" y="1271"/>
      <point x="578" y="1305" type="curve" smooth="yes"/>
      <point x="624" y="1339"/>
      <point x="674" y="1356"/>
      <point x="727" y="1356" type="curve" smooth="yes"/>
      <point x="798" y="1356"/>
      <point x="850" y="1333"/>
      <point x="883" y="1287" type="curve" smooth="yes"/>
      <point x="916" y="1240"/>
      <point x="932" y="1166"/>
      <point x="932" y="1063" type="curve" smooth="yes"/>
      <point x="932" y="946"/>
      <point x="917" y="818"/>
      <point x="886" y="681" type="curve" smooth="yes"/>
      <point x="855" y="543"/>
      <point x="816" y="427"/>
      <point x="770" y="334" type="curve" smooth="yes"/>
      <point x="739" y="270"/>
      <point x="700" y="221"/>
      <point x="655" y="187" type="curve" smooth="yes"/>
      <point x="609" y="152"/>
      <point x="559" y="135"/>
      <point x="506" y="135" type="curve" smooth="yes"/>
    </contour>
  </outline>
</glyph>
<glyph name="one" format="1">
  <advance width="1233"/>
  <unicode hex="0031"/>
  <note>
	one
  </note>
  <outline>
    <contour>
      <point x="946" y="0" type="line"/>
      <point x="979" y="170" type="line"/>
      <point x="670" y="170" type="line"/>
      <point x="928" y="1493" type="line"/>
      <point x="725" y="1493" type="line"/>
      <point x="373" y="1419" type="line"/>
      <point x="338" y="1235" type="line"/>
      <point x="690" y="1311" type="line"/>
      <point x="469" y="170" type="line"/>
      <point x="156" y="170" type="line"/>
      <point x="123" y="0" type="line"/>
    </contour>
  </outline>
</glyph>
<glyph name="two" format="1">
  <advance width="1233"/>
  <unicode hex="0032"/>
  <note>
	two
  </note>
  <outline>
    <contour>
      <point x="268" y="170" type="line"/>
      <point x="588" y="444" type="line" smooth="yes"/>
      <point x="708" y="547"/>
      <point x="797" y="625"/>
      <point x="854" y="678" type="curve" smooth="yes"/>
      <point x="911" y="731"/>
      <point x="951" y="771"/>
      <point x="973" y="799" type="curve" smooth="yes"/>
      <point x="1028" y="868"/>
      <point x="1067" y="931"/>
      <point x="1091" y="989" type="curve" smooth="yes"/>
      <point x="1114" y="1046"/>
      <point x="1126" y="1107"/>
      <point x="1126" y="1171" type="curve" smooth="yes"/>
      <point x="1126" y="1274"/>
      <point x="1088" y="1358"/>
      <point x="1012" y="1423" type="curve" smooth="yes"/>
      <point x="936" y="1488"/>
      <point x="836" y="1520"/>
      <point x="713" y="1520" type="curve" smooth="yes"/>
      <point x="648" y="1520"/>
      <point x="581" y="1512"/>
      <point x="512" y="1495" type="curve" smooth="yes"/>
      <point x="442" y="1478"/>
      <point x="370" y="1454"/>
      <point x="295" y="1421" type="curve"/>
      <point x="254" y="1217" type="line"/>
      <point x="338" y="1262"/>
      <point x="415" y="1296"/>
      <point x="486" y="1319" type="curve" smooth="yes"/>
      <point x="557" y="1341"/>
      <point x="623" y="1352"/>
      <point x="684" y="1352" type="curve" smooth="yes"/>
      <point x="760" y="1352"/>
      <point x="819" y="1334"/>
      <point x="862" y="1299" type="curve" smooth="yes"/>
      <point x="905" y="1264"/>
      <point x="926" y="1215"/>
      <point x="926" y="1153" type="curve" smooth="yes"/>
      <point x="926" y="1018"/>
      <point x="747" y="793"/>
      <point x="389" y="479" type="curve" smooth="yes"/>
      <point x="350" y="444" type="line"/>
      <point x="39" y="170" type="line"/>
      <point x="6" y="0" type="line"/>
      <point x="920" y="0" type="line"/>
      <point x="952" y="170" type="line"/>
    </contour>
  </outline>
</glyph>
<glyph name="three" format="1">
  <advance width="1233"/>
  <unicode hex="0033"/>
  <note>
	three
  </note>
  <outline>
    <contour>
      <point x="869" y="821"/>
      <point x="953" y="867"/>
      <point x="1013" y="936" type="curve" smooth="yes"/>
      <point x="1072" y="1005"/>
      <point x="1102" y="1090"/>
      <point x="1102" y="1192" type="curve" smooth="yes"/>
      <point x="1102" y="1293"/>
      <point x="1066" y="1373"/>
      <point x="994" y="1432" type="curve" smooth="yes"/>
      <point x="922" y="1491"/>
      <point x="823" y="1520"/>
      <point x="698" y="1520" type="curve" smooth="yes"/>
      <point x="642" y="1520"/>
      <point x="582" y="1515"/>
      <point x="517" y="1505" type="curve" smooth="yes"/>
      <point x="452" y="1494"/>
      <point x="379" y="1478"/>
      <point x="297" y="1456" type="curve"/>
      <point x="260" y="1270" type="line"/>
      <point x="335" y="1297"/>
      <point x="405" y="1317"/>
      <point x="470" y="1330" type="curve" smooth="yes"/>
      <point x="535" y="1343"/>
      <point x="594" y="1350"/>
      <point x="649" y="1350" type="curve" smooth="yes"/>
      <point x="735" y="1350"/>
      <point x="799" y="1334"/>
      <point x="840" y="1303" type="curve" smooth="yes"/>
      <point x="881" y="1271"/>
      <point x="901" y="1222"/>
      <point x="901" y="1155" type="curve" smooth="yes"/>
      <point x="901" y="1072"/>
      <point x="870" y="1006"/>
      <point x="808" y="956" type="curve" smooth="yes"/>
      <point x="746" y="906"/>
      <point x="662" y="881"/>
      <point x="557" y="881" type="curve" smooth="yes"/>
      <point x="403" y="881" type="line"/>
      <point x="371" y="715" type="line"/>
      <point x="524" y="715" type="line" smooth="yes"/>
      <point x="616" y="715"/>
      <point x="686" y="695"/>
      <point x="734" y="655" type="curve" smooth="yes"/>
      <point x="781" y="614"/>
      <point x="805" y="555"/>
      <point x="805" y="477" type="curve" smooth="yes"/>
      <point x="805" y="378"/>
      <point x="768" y="297"/>
      <point x="693" y="235" type="curve" smooth="yes"/>
      <point x="618" y="172"/>
      <point x="520" y="141"/>
      <point x="399" y="141" type="curve" smooth="yes"/>
      <point x="334" y="141"/>
      <point x="269" y="150"/>
      <point x="206" y="168" type="curve" smooth="yes"/>
      <point x="143" y="185"/>
      <point x="81" y="211"/>
      <point x="20" y="246" type="curve"/>
      <point x="-18" y="45" type="line"/>
      <point x="45" y="20"/>
      <point x="110" y="2"/>
      <point x="179" y="-10" type="curve" smooth="yes"/>
      <point x="247" y="-23"/>
      <point x="317" y="-29"/>
      <point x="389" y="-29" type="curve" smooth="yes"/>
      <point x="576" y="-29"/>
      <point x="725" y="18"/>
      <point x="837" y="113" type="curve" smooth="yes"/>
      <point x="948" y="208"/>
      <point x="1004" y="333"/>
      <point x="1004" y="489" type="curve" smooth="yes"/>
      <point x="1004" y="573"/>
      <point x="983" y="642"/>
      <point x="940" y="697" type="curve" smooth="yes"/>
      <point x="897" y="752"/>
      <point x="838" y="786"/>
      <point x="762" y="799" type="curve"/>
    </contour>
  </outline>
</glyph>
<glyph name="four" format="1">
  <advance width="1233"/>
  <unicode hex="0034"/>
  <note>
	four
  </note>
  <outline>
    <contour>
      <point x="842" y="1282" type="line"/>
      <point x="690" y="520" type="line"/>
      <point x="217" y="520" type="line"/>
    </contour>
    <contour>
      <point x="846" y="1493" type="line"/>
      <point x="61" y="547" type="line"/>
      <point x="25" y="356" type="line"/>
      <point x="659" y="356" type="line"/>
      <point x="590" y="0" type="line"/>
      <point x="788" y="0" type="line"/>
      <point x="858" y="356" type="line"/>
      <point x="1057" y="356" type="line"/>
      <point x="1087" y="520" type="line"/>
      <point x="889" y="520" type="line"/>
      <point x="1079" y="1493" type="line"/>
    </contour>
  </outline>
</glyph>
<glyph name="five" format="1">
  <advance width="1233"/>
  <unicode hex="0035"/>
  <note>
	five
  </note>
  <outline>
    <contour>
      <point x="352" y="1493" type="line"/>
      <point x="207" y="743" type="line"/>
      <point x="257" y="768"/>
      <point x="310" y="788"/>
      <point x="365" y="801" type="curve" smooth="yes"/>
      <point x="420" y="814"/>
      <point x="473" y="821"/>
      <point x="526" y="821" type="curve" smooth="yes"/>
      <point x="621" y="821"/>
      <point x="695" y="797"/>
      <point x="749" y="748" type="curve" smooth="yes"/>
      <point x="802" y="699"/>
      <point x="829" y="632"/>
      <point x="829" y="547" type="curve" smooth="yes"/>
      <point x="829" y="431"/>
      <point x="788" y="334"/>
      <point x="707" y="256" type="curve" smooth="yes"/>
      <point x="626" y="178"/>
      <point x="523" y="139"/>
      <point x="399" y="139" type="curve" smooth="yes"/>
      <point x="336" y="139"/>
      <point x="276" y="147"/>
      <point x="217" y="164" type="curve" smooth="yes"/>
      <point x="158" y="181"/>
      <point x="101" y="206"/>
      <point x="45" y="240" type="curve"/>
      <point x="4" y="35" type="line"/>
      <point x="52" y="14"/>
      <point x="107" y="-2"/>
      <point x="170" y="-13" type="curve" smooth="yes"/>
      <point x="232" y="-24"/>
      <point x="299" y="-29"/>
      <point x="371" y="-29" type="curve" smooth="yes"/>
      <point x="466" y="-29"/>
      <point x="552" y="-16"/>
      <point x="628" y="11" type="curve" smooth="yes"/>
      <point x="703" y="38"/>
      <point x="770" y="78"/>
      <point x="829" y="131" type="curve" smooth="yes"/>
      <point x="893" y="188"/>
      <point x="943" y="256"/>
      <point x="978" y="334" type="curve" smooth="yes"/>
      <point x="1013" y="412"/>
      <point x="1030" y="492"/>
      <point x="1030" y="575" type="curve" smooth="yes"/>
      <point x="1030" y="698"/>
      <point x="992" y="798"/>
      <point x="915" y="874" type="curve" smooth="yes"/>
      <point x="838" y="949"/>
      <point x="737" y="987"/>
      <point x="612" y="987" type="curve" smooth="yes"/>
      <point x="583" y="987"/>
      <point x="553" y="985"/>
      <point x="524" y="980" type="curve" smooth="yes"/>
      <point x="494" y="975"/>
      <point x="463" y="967"/>
      <point x="432" y="956" type="curve"/>
      <point x="504" y="1323" type="line"/>
      <point x="1075" y="1323" type="line"/>
      <point x="1108" y="1493" type="line"/>
    </contour>
  </outline>
</glyph>
<glyph name="six" format="1">
  <advance width="1233"/>
  <unicode hex="0036"/>
  <note>
	six
  </note>
  <outline>
    <contour>
      <point x="860" y="463"/>
      <point x="828" y="352"/>
      <point x="763" y="263" type="curve" smooth="yes"/>
      <point x="698" y="174"/>
      <point x="618" y="129"/>
      <point x="522" y="129" type="curve" smooth="yes"/>
      <point x="451" y="129"/>
      <point x="395" y="152"/>
      <point x="354" y="198" type="curve" smooth="yes"/>
      <point x="313" y="243"/>
      <point x="293" y="306"/>
      <point x="293" y="387" type="curve" smooth="yes"/>
      <point x="293" y="514"/>
      <point x="326" y="619"/>
      <point x="392" y="703" type="curve" smooth="yes"/>
      <point x="458" y="787"/>
      <point x="540" y="829"/>
      <point x="637" y="829" type="curve" smooth="yes"/>
      <point x="708" y="829"/>
      <point x="763" y="809"/>
      <point x="802" y="768" type="curve" smooth="yes"/>
      <point x="841" y="727"/>
      <point x="860" y="669"/>
      <point x="860" y="594" type="curve" smooth="yes"/>
    </contour>
    <contour>
      <point x="1128" y="1460" type="line"/>
      <point x="1086" y="1479"/>
      <point x="1041" y="1494"/>
      <point x="994" y="1505" type="curve" smooth="yes"/>
      <point x="947" y="1515"/>
      <point x="898" y="1520"/>
      <point x="848" y="1520" type="curve" smooth="yes"/>
      <point x="710" y="1520"/>
      <point x="590" y="1484"/>
      <point x="489" y="1413" type="curve" smooth="yes"/>
      <point x="387" y="1341"/>
      <point x="303" y="1233"/>
      <point x="238" y="1090" type="curve" smooth="yes"/>
      <point x="193" y="993"/>
      <point x="157" y="884"/>
      <point x="131" y="765" type="curve" smooth="yes"/>
      <point x="105" y="646"/>
      <point x="92" y="531"/>
      <point x="92" y="420" type="curve" smooth="yes"/>
      <point x="92" y="277"/>
      <point x="129" y="166"/>
      <point x="203" y="88" type="curve" smooth="yes"/>
      <point x="276" y="10"/>
      <point x="381" y="-29"/>
      <point x="516" y="-29" type="curve" smooth="yes"/>
      <point x="597" y="-29"/>
      <point x="671" y="-13"/>
      <point x="738" y="19" type="curve" smooth="yes"/>
      <point x="804" y="51"/>
      <point x="863" y="99"/>
      <point x="915" y="164" type="curve" smooth="yes"/>
      <point x="960" y="219"/>
      <point x="996" y="287"/>
      <point x="1023" y="366" type="curve" smooth="yes"/>
      <point x="1050" y="445"/>
      <point x="1063" y="525"/>
      <point x="1063" y="604" type="curve" smooth="yes"/>
      <point x="1063" y="727"/>
      <point x="1031" y="821"/>
      <point x="967" y="888" type="curve" smooth="yes"/>
      <point x="902" y="954"/>
      <point x="811" y="987"/>
      <point x="692" y="987" type="curve" smooth="yes"/>
      <point x="617" y="987"/>
      <point x="548" y="970"/>
      <point x="486" y="935" type="curve" smooth="yes"/>
      <point x="423" y="900"/>
      <point x="369" y="848"/>
      <point x="324" y="780" type="curve"/>
      <point x="361" y="969"/>
      <point x="421" y="1111"/>
      <point x="505" y="1207" type="curve" smooth="yes"/>
      <point x="588" y="1302"/>
      <point x="694" y="1350"/>
      <point x="823" y="1350" type="curve" smooth="yes"/>
      <point x="873" y="1350"/>
      <point x="921" y="1344"/>
      <point x="966" y="1331" type="curve" smooth="yes"/>
      <point x="1011" y="1318"/>
      <point x="1053" y="1299"/>
      <point x="1092" y="1274" type="curve"/>
    </contour>
  </outline>
</glyph>
<glyph name="eight" format="1">
  <advance width="1233"/>
  <unicode hex="0038"/>
  <note>
	eight
  </note>
  <outline>
    <contour>
      <point x="821" y="361"/>
      <point x="791" y="280"/>
      <point x="731" y="219" type="curve" smooth="yes"/>
      <point x="670" y="158"/>
      <point x="591" y="127"/>
      <point x="492" y="127" type="curve" smooth="yes"/>
      <point x="417" y="127"/>
      <point x="358" y="148"/>
      <point x="313" y="190" type="curve" smooth="yes"/>
      <point x="268" y="232"/>
      <point x="246" y="288"/>
      <point x="246" y="358" type="curve" smooth="yes"/>
      <point x="246" y="461"/>
      <point x="277" y="545"/>
      <point x="338" y="611" type="curve" smooth="yes"/>
      <point x="399" y="676"/>
      <point x="476" y="709"/>
      <point x="571" y="709" type="curve" smooth="yes"/>
      <point x="650" y="709"/>
      <point x="711" y="687"/>
      <point x="755" y="643" type="curve" smooth="yes"/>
      <point x="799" y="599"/>
      <point x="821" y="538"/>
      <point x="821" y="461" type="curve" smooth="yes"/>
    </contour>
    <contour>
      <point x="310" y="768"/>
      <point x="215" y="717"/>
      <point x="146" y="638" type="curve" smooth="yes"/>
      <point x="76" y="559"/>
      <point x="41" y="465"/>
      <point x="41" y="354" type="curve" smooth="yes"/>
      <point x="41" y="235"/>
      <point x="81" y="141"/>
      <point x="160" y="73" type="curve" smooth="yes"/>
      <point x="239" y="5"/>
      <point x="347" y="-29"/>
      <point x="485" y="-29" type="curve" smooth="yes"/>
      <point x="643" y="-29"/>
      <point x="773" y="17"/>
      <point x="874" y="108" type="curve" smooth="yes"/>
      <point x="975" y="199"/>
      <point x="1026" y="314"/>
      <point x="1026" y="453" type="curve" smooth="yes"/>
      <point x="1026" y="542"/>
      <point x="1005" y="614"/>
      <point x="962" y="669" type="curve" smooth="yes"/>
      <point x="919" y="724"/>
      <point x="856" y="762"/>
      <point x="772" y="782" type="curve"/>
      <point x="879" y="809"/>
      <point x="964" y="861"/>
      <point x="1029" y="937" type="curve" smooth="yes"/>
      <point x="1094" y="1012"/>
      <point x="1126" y="1098"/>
      <point x="1126" y="1194" type="curve" smooth="yes"/>
      <point x="1126" y="1290"/>
      <point x="1089" y="1368"/>
      <point x="1015" y="1429" type="curve" smooth="yes"/>
      <point x="940" y="1490"/>
      <point x="844" y="1520"/>
      <point x="725" y="1520" type="curve" smooth="yes"/>
      <point x="582" y="1520"/>
      <point x="462" y="1477"/>
      <point x="363" y="1392" type="curve" smooth="yes"/>
      <point x="264" y="1306"/>
      <point x="215" y="1202"/>
      <point x="215" y="1081" type="curve" smooth="yes"/>
      <point x="215" y="1011"/>
      <point x="233" y="952"/>
      <point x="269" y="904" type="curve" smooth="yes"/>
      <point x="305" y="855"/>
      <point x="359" y="818"/>
      <point x="430" y="793" type="curve"/>
    </contour>
    <contour>
      <point x="773" y="1364"/>
      <point x="826" y="1346"/>
      <point x="866" y="1310" type="curve" smooth="yes"/>
      <point x="906" y="1274"/>
      <point x="926" y="1226"/>
      <point x="926" y="1165" type="curve" smooth="yes"/>
      <point x="926" y="1082"/>
      <point x="898" y="1011"/>
      <point x="842" y="953" type="curve" smooth="yes"/>
      <point x="786" y="895"/>
      <point x="717" y="866"/>
      <point x="635" y="866" type="curve" smooth="yes"/>
      <point x="567" y="866"/>
      <point x="514" y="885"/>
      <point x="475" y="923" type="curve" smooth="yes"/>
      <point x="436" y="961"/>
      <point x="416" y="1013"/>
      <point x="416" y="1079" type="curve" smooth="yes"/>
      <point x="416" y="1162"/>
      <point x="443" y="1230"/>
      <point x="498" y="1284" type="curve" smooth="yes"/>
      <point x="553" y="1337"/>
      <point x="622" y="1364"/>
      <point x="707" y="1364" type="curve" smooth="yes"/>
    </contour>
  </outline>
</glyph>
<glyph name="nine" format="1">
  <advance width="1233"/>
  <unicode hex="0039"/>
  <note>
	nine
  </note>
  <outline>
    <contour>
      <point x="330" y="1028"/>
      <point x="363" y="1139"/>
      <point x="428" y="1228" type="curve" smooth="yes"/>
      <point x="493" y="1317"/>
      <point x="574" y="1362"/>
      <point x="670" y="1362" type="curve" smooth="yes"/>
      <point x="741" y="1362"/>
      <point x="797" y="1339"/>
      <point x="837" y="1294" type="curve" smooth="yes"/>
      <point x="877" y="1249"/>
      <point x="897" y="1185"/>
      <point x="897" y="1104" type="curve" smooth="yes"/>
      <point x="897" y="977"/>
      <point x="864" y="872"/>
      <point x="798" y="788" type="curve" smooth="yes"/>
      <point x="732" y="704"/>
      <point x="650" y="662"/>
      <point x="553" y="662" type="curve" smooth="yes"/>
      <point x="482" y="662"/>
      <point x="427" y="682"/>
      <point x="388" y="723" type="curve" smooth="yes"/>
      <point x="349" y="764"/>
      <point x="330" y="822"/>
      <point x="330" y="897" type="curve" smooth="yes"/>
    </contour>
    <contour>
      <point x="63" y="31" type="line"/>
      <point x="106" y="11"/>
      <point x="150" y="-4"/>
      <point x="197" y="-14" type="curve" smooth="yes"/>
      <point x="244" y="-24"/>
      <point x="292" y="-29"/>
      <point x="342" y="-29" type="curve" smooth="yes"/>
      <point x="481" y="-29"/>
      <point x="601" y="7"/>
      <point x="703" y="79" type="curve" smooth="yes"/>
      <point x="805" y="151"/>
      <point x="889" y="258"/>
      <point x="954" y="401" type="curve" smooth="yes"/>
      <point x="999" y="498"/>
      <point x="1035" y="607"/>
      <point x="1061" y="726" type="curve" smooth="yes"/>
      <point x="1087" y="845"/>
      <point x="1100" y="960"/>
      <point x="1100" y="1071" type="curve" smooth="yes"/>
      <point x="1100" y="1214"/>
      <point x="1063" y="1324"/>
      <point x="989" y="1403" type="curve" smooth="yes"/>
      <point x="914" y="1481"/>
      <point x="809" y="1520"/>
      <point x="674" y="1520" type="curve" smooth="yes"/>
      <point x="593" y="1520"/>
      <point x="519" y="1504"/>
      <point x="452" y="1472" type="curve" smooth="yes"/>
      <point x="385" y="1439"/>
      <point x="326" y="1391"/>
      <point x="274" y="1327" type="curve" smooth="yes"/>
      <point x="229" y="1272"/>
      <point x="194" y="1205"/>
      <point x="167" y="1126" type="curve" smooth="yes"/>
      <point x="140" y="1047"/>
      <point x="127" y="968"/>
      <point x="127" y="889" type="curve" smooth="yes"/>
      <point x="127" y="766"/>
      <point x="159" y="671"/>
      <point x="224" y="604" type="curve" smooth="yes"/>
      <point x="288" y="537"/>
      <point x="379" y="504"/>
      <point x="498" y="504" type="curve" smooth="yes"/>
      <point x="573" y="504"/>
      <point x="642" y="522"/>
      <point x="705" y="557" type="curve" smooth="yes"/>
      <point x="767" y="592"/>
      <point x="821" y="643"/>
      <point x="866" y="711" type="curve"/>
      <point x="829" y="522"/>
      <point x="769" y="380"/>
      <point x="686" y="285" type="curve" smooth="yes"/>
      <point x="602" y="189"/>
      <point x="496" y="141"/>
      <point x="367" y="141" type="curve" smooth="yes"/>
      <point x="317" y="141"/>
      <point x="269" y="148"/>
      <point x="224" y="161" type="curve" smooth="yes"/>
      <point x="179" y="174"/>
      <point x="137" y="192"/>
      <point x="98" y="217" type="curve"/>
    </contour>
  </outline>
</glyph>
<glyph name="colon" format="1">
  <advance width="1233"/>
  <unicode hex="003A"/>
  <note>
	colon
  </note>
  <outline>
    <contour>
      <point x="772" y="716"/>
      <point x="824" y="733"/>
      <point x="864" y="770" type="curve" smooth="yes"/>
      <point x="906" y="809"/>
      <point x="925" y="863"/>
      <point x="925" y="913" type="curve" smooth="yes"/>
      <point x="925" y="956"/>
      <point x="911" y="990"/>
      <point x="890" y="1013" type="curve" smooth="yes"/>
      <point x="868" y="1037"/>
      <point x="836" y="1054"/>
      <point x="790" y="1054" type="curve" smooth="yes"/>
      <point x="739" y="1054"/>
      <point x="693" y="1033"/>
      <point x="657" y="1000" type="curve" smooth="yes"/>
      <point x="616" y="963"/>
      <point x="595" y="915"/>
      <point x="595" y="863" type="curve" smooth="yes"/>
      <point x="595" y="825"/>
      <point x="603" y="788"/>
      <point x="631" y="757" type="curve" smooth="yes"/>
      <point x="657" y="728"/>
      <point x="691" y="716"/>
      <point x="728" y="716" type="curve" smooth="yes"/>
    </contour>
    <contour>
      <point x="666" y="0"/>
      <point x="713" y="20"/>
      <point x="750" y="54" type="curve" smooth="yes"/>
      <point x="790" y="91"/>
      <point x="812" y="137"/>
      <point x="812" y="194" type="curve" smooth="yes"/>
      <point x="812" y="240"/>
      <point x="798" y="274"/>
      <point x="777" y="297" type="curve" smooth="yes"/>
      <point x="750" y="327"/>
      <point x="714" y="338"/>
      <point x="677" y="338" type="curve" smooth="yes"/>
      <point x="627" y="338"/>
      <point x="579" y="317"/>
      <point x="544" y="285" type="curve" smooth="yes"/>
      <point x="502" y="247"/>
      <point x="482" y="195"/>
      <point x="482" y="143" type="curve" smooth="yes"/>
      <point x="482" y="106"/>
      <point x="492" y="69"/>
      <point x="516" y="42" type="curve" smooth="yes"/>
      <point x="539" y="16"/>
      <point x="574" y="0"/>
      <point x="617" y="0" type="curve" smooth="yes"/>
    </contour>
  </outline>
</glyph>
<glyph name="semicolon" format="1">
  <advance width="1233"/>
  <unicode hex="003B"/>
  <note>
	semicolon
  </note>
  <outline>
    <contour>
      <point x="492" y="-419"/>
      <point x="600" y="-348"/>
      <point x="674" y="-267" type="curve" smooth="yes"/>
      <point x="749" y="-185"/>
      <point x="802" y="-78"/>
      <point x="820" y="44" type="curve" smooth="yes"/>
      <point x="824" y="72"/>
      <point x="827" y="109"/>
      <point x="827" y="132" type="curve" smooth="yes"/>
      <point x="827" y="169"/>
      <point x="819" y="211"/>
      <point x="802" y="241" type="curve" smooth="yes"/>
      <point x="777" y="287"/>
      <point x="734" y="312"/>
      <point x="672" y="312" type="curve" smooth="yes"/>
      <point x="629" y="312"/>
      <point x="585" y="300"/>
      <point x="547" y="269" type="curve" smooth="yes"/>
      <point x="508" y="238"/>
      <point x="488" y="200"/>
      <point x="480" y="153" type="curve" smooth="yes"/>
      <point x="479" y="144"/>
      <point x="478" y="136"/>
      <point x="478" y="129" type="curve" smooth="yes"/>
      <point x="478" y="126"/>
      <point x="478" y="122"/>
      <point x="478" y="120" type="curve"/>
      <point x="478" y="86"/>
      <point x="488" y="57"/>
      <point x="508" y="36" type="curve" smooth="yes"/>
      <point x="534" y="9"/>
      <point x="573" y="-5"/>
      <point x="617" y="-5" type="curve" smooth="yes"/>
      <point x="630" y="-5"/>
      <point x="641" y="-4"/>
      <point x="659" y="0" type="curve"/>
      <point x="629" y="-157"/>
      <point x="522" y="-275"/>
      <point x="339" y="-351" type="curve"/>
      <point x="371" y="-460" type="line"/>
    </contour>
    <contour>
      <point x="774" y="713"/>
      <point x="818" y="732"/>
      <point x="852" y="763" type="curve" smooth="yes"/>
      <point x="889" y="795"/>
      <point x="913" y="838"/>
      <point x="923" y="892" type="curve" smooth="yes"/>
      <point x="925" y="904"/>
      <point x="926" y="915"/>
      <point x="926" y="926" type="curve" smooth="yes"/>
      <point x="926" y="962"/>
      <point x="914" y="996"/>
      <point x="893" y="1020" type="curve" smooth="yes"/>
      <point x="867" y="1051"/>
      <point x="825" y="1068"/>
      <point x="779" y="1068" type="curve" smooth="yes"/>
      <point x="732" y="1068"/>
      <point x="687" y="1049"/>
      <point x="652" y="1019" type="curve" smooth="yes"/>
      <point x="618" y="990"/>
      <point x="592" y="947"/>
      <point x="583" y="892" type="curve" smooth="yes"/>
      <point x="581" y="880"/>
      <point x="579" y="868"/>
      <point x="579" y="856" type="curve" smooth="yes"/>
      <point x="579" y="820"/>
      <point x="590" y="788"/>
      <point x="611" y="763" type="curve" smooth="yes"/>
      <point x="638" y="730"/>
      <point x="676" y="713"/>
      <point x="723" y="713" type="curve" smooth="yes"/>
    </contour>
  </outline>
</glyph>
<glyph name="question" format="1">
  <advance width="1233"/>
  <unicode hex="003F"/>
  <note>
	question
  </note>
  <outline>
    <contour>
      <point x="719" y="472" type="line"/>
      <point x="731" y="552" type="line"/>
      <point x="739" y="599" type="line" smooth="yes"/>
      <point x="743" y="626"/>
      <point x="756" y="659"/>
      <point x="771" y="682" type="curve" smooth="yes"/>
      <point x="788" y="708"/>
      <point x="819" y="742"/>
      <point x="876" y="790" type="curve" smooth="yes"/>
      <point x="978" y="876" type="line" smooth="yes"/>
      <point x="1043" y="931"/>
      <point x="1095" y="983"/>
      <point x="1130" y="1034" type="curve" smooth="yes"/>
      <point x="1162" y="1081"/>
      <point x="1179" y="1126"/>
      <point x="1186" y="1175" type="curve" smooth="yes"/>
      <point x="1189" y="1196"/>
      <point x="1192" y="1228"/>
      <point x="1192" y="1250" type="curve" smooth="yes"/>
      <point x="1192" y="1318"/>
      <point x="1164" y="1384"/>
      <point x="1116" y="1432" type="curve" smooth="yes"/>
      <point x="1050" y="1498"/>
      <point x="954" y="1528"/>
      <point x="833" y="1528" type="curve" smooth="yes"/>
      <point x="767" y="1528"/>
      <point x="698" y="1519"/>
      <point x="631" y="1500" type="curve" smooth="yes"/>
      <point x="563" y="1481"/>
      <point x="493" y="1451"/>
      <point x="428" y="1415" type="curve"/>
      <point x="398" y="1227" type="line"/>
      <point x="471" y="1272"/>
      <point x="539" y="1307"/>
      <point x="602" y="1330" type="curve" smooth="yes"/>
      <point x="665" y="1353"/>
      <point x="721" y="1364"/>
      <point x="775" y="1364" type="curve" smooth="yes"/>
      <point x="848" y="1364"/>
      <point x="904" y="1344"/>
      <point x="940" y="1309" type="curve" smooth="yes"/>
      <point x="970" y="1280"/>
      <point x="986" y="1241"/>
      <point x="986" y="1199" type="curve" smooth="yes"/>
      <point x="986" y="1188"/>
      <point x="985" y="1177"/>
      <point x="983" y="1165" type="curve" smooth="yes"/>
      <point x="978" y="1132"/>
      <point x="966" y="1103"/>
      <point x="944" y="1072" type="curve" smooth="yes"/>
      <point x="925" y="1045"/>
      <point x="897" y="1016"/>
      <point x="842" y="969" type="curve" smooth="yes"/>
      <point x="738" y="880" type="line" smooth="yes"/>
      <point x="667" y="819"/>
      <point x="627" y="775"/>
      <point x="599" y="729" type="curve" smooth="yes"/>
      <point x="572" y="684"/>
      <point x="554" y="635"/>
      <point x="546" y="583" type="curve" smooth="yes"/>
      <point x="529" y="472" type="line"/>
    </contour>
    <contour>
      <point x="590" y="-40"/>
      <point x="634" y="-19"/>
      <point x="664" y="9" type="curve" smooth="yes"/>
      <point x="701" y="44"/>
      <point x="718" y="89"/>
      <point x="718" y="134" type="curve" smooth="yes"/>
      <point x="718" y="171"/>
      <point x="707" y="205"/>
      <point x="687" y="227" type="curve" smooth="yes"/>
      <point x="663" y="254"/>
      <point x="627" y="264"/>
      <point x="596" y="264" type="curve" smooth="yes"/>
      <point x="552" y="264"/>
      <point x="508" y="245"/>
      <point x="476" y="216" type="curve" smooth="yes"/>
      <point x="444" y="187"/>
      <point x="421" y="146"/>
      <point x="421" y="93" type="curve" smooth="yes"/>
      <point x="421" y="58"/>
      <point x="429" y="26"/>
      <point x="454" y="-3" type="curve" smooth="yes"/>
      <point x="478" y="-30"/>
      <point x="508" y="-40"/>
      <point x="542" y="-40" type="curve" smooth="yes"/>
    </contour>
  </outline>
</glyph>
<glyph name="at" format="1">
  <advance width="1233"/>
  <unicode hex="0040"/>
  <note>
	at
  </note>
  <outline>
    <contour>
      <point x="660" y="-317"/>
      <point x="713" y="-312"/>
      <point x="760" y="-302" type="curve" smooth="yes"/>
      <point x="801" y="-293"/>
      <point x="847" y="-280"/>
      <point x="897" y="-256" type="curve"/>
      <point x="852" y="-125" type="line"/>
      <point x="797" y="-146"/>
      <point x="753" y="-158"/>
      <point x="725" y="-164" type="curve" smooth="yes"/>
      <point x="688" y="-172"/>
      <point x="643" y="-176"/>
      <point x="603" y="-176" type="curve" smooth="yes"/>
      <point x="460" y="-176"/>
      <point x="337" y="-125"/>
      <point x="253" y="-29" type="curve" smooth="yes"/>
      <point x="168" y="68"/>
      <point x="125" y="208"/>
      <point x="125" y="377" type="curve" smooth="yes"/>
      <point x="125" y="480"/>
      <point x="141" y="587"/>
      <point x="169" y="682" type="curve" smooth="yes"/>
      <point x="199" y="783"/>
      <point x="244" y="878"/>
      <point x="297" y="957" type="curve" smooth="yes"/>
      <point x="363" y="1055"/>
      <point x="440" y="1127"/>
      <point x="524" y="1177" type="curve" smooth="yes"/>
      <point x="610" y="1228"/>
      <point x="700" y="1255"/>
      <point x="796" y="1255" type="curve" smooth="yes"/>
      <point x="885" y="1255"/>
      <point x="951" y="1232"/>
      <point x="1000" y="1185" type="curve" smooth="yes"/>
      <point x="1049" y="1138"/>
      <point x="1073" y="1071"/>
      <point x="1073" y="993" type="curve" smooth="yes"/>
      <point x="1073" y="977"/>
      <point x="1072" y="965"/>
      <point x="1070" y="948" type="curve" smooth="yes"/>
      <point x="1068" y="931"/>
      <point x="1064" y="903"/>
      <point x="1061" y="887" type="curve" smooth="yes"/>
      <point x="1053" y="844" type="line"/>
      <point x="1034" y="885"/>
      <point x="1003" y="917"/>
      <point x="960" y="941" type="curve" smooth="yes"/>
      <point x="917" y="965"/>
      <point x="867" y="977"/>
      <point x="810" y="977" type="curve" smooth="yes"/>
      <point x="686" y="977"/>
      <point x="580" y="920"/>
      <point x="497" y="821" type="curve" smooth="yes"/>
      <point x="409" y="716"/>
      <point x="365" y="587"/>
      <point x="365" y="451" type="curve" smooth="yes"/>
      <point x="365" y="343"/>
      <point x="393" y="268"/>
      <point x="448" y="207" type="curve" smooth="yes"/>
      <point x="500" y="150"/>
      <point x="568" y="115"/>
      <point x="662" y="115" type="curve" smooth="yes"/>
      <point x="715" y="115"/>
      <point x="767" y="126"/>
      <point x="814" y="149" type="curve" smooth="yes"/>
      <point x="858" y="170"/>
      <point x="902" y="204"/>
      <point x="936" y="246" type="curve"/>
      <point x="915" y="135" type="line"/>
      <point x="1059" y="135" type="line"/>
      <point x="1196" y="858" type="line" smooth="yes"/>
      <point x="1202" y="889"/>
      <point x="1207" y="919"/>
      <point x="1210" y="944" type="curve" smooth="yes"/>
      <point x="1213" y="969"/>
      <point x="1214" y="996"/>
      <point x="1214" y="1015" type="curve" smooth="yes"/>
      <point x="1214" y="1126"/>
      <point x="1178" y="1224"/>
      <point x="1102" y="1294" type="curve" smooth="yes"/>
      <point x="1029" y="1361"/>
      <point x="926" y="1397"/>
      <point x="800" y="1397" type="curve" smooth="yes"/>
      <point x="695" y="1397"/>
      <point x="590" y="1372"/>
      <point x="495" y="1326" type="curve" smooth="yes"/>
      <point x="395" y="1278"/>
      <point x="307" y="1206"/>
      <point x="238" y="1125" type="curve" smooth="yes"/>
      <point x="155" y="1028"/>
      <point x="88" y="906"/>
      <point x="43" y="781" type="curve" smooth="yes"/>
      <point x="-6" y="645"/>
      <point x="-29" y="507"/>
      <point x="-29" y="379" type="curve" smooth="yes"/>
      <point x="-29" y="176"/>
      <point x="29" y="-3"/>
      <point x="144" y="-129" type="curve" smooth="yes"/>
      <point x="250" y="-245"/>
      <point x="407" y="-317"/>
      <point x="607" y="-317" type="curve" smooth="yes"/>
    </contour>
    <contour>
      <point x="653" y="260"/>
      <point x="607" y="279"/>
      <point x="574" y="315" type="curve" smooth="yes"/>
      <point x="539" y="354"/>
      <point x="524" y="410"/>
      <point x="524" y="474" type="curve" smooth="yes"/>
      <point x="524" y="567"/>
      <point x="555" y="659"/>
      <point x="610" y="726" type="curve" smooth="yes"/>
      <point x="666" y="794"/>
      <point x="740" y="829"/>
      <point x="820" y="829" type="curve" smooth="yes"/>
      <point x="879" y="829"/>
      <point x="925" y="810"/>
      <point x="958" y="774" type="curve" smooth="yes"/>
      <point x="993" y="736"/>
      <point x="1008" y="683"/>
      <point x="1008" y="618" type="curve" smooth="yes"/>
      <point x="1008" y="521"/>
      <point x="975" y="431"/>
      <point x="922" y="366" type="curve" smooth="yes"/>
      <point x="868" y="300"/>
      <point x="793" y="260"/>
      <point x="710" y="260" type="curve" smooth="yes"/>
    </contour>
  </outline>
</glyph>
<glyph name="B" format="1">
  <advance width="1233"/>
  <unicode hex="0042"/>
  <note>
	B
  </note>
  <outline>
    <contour>
      <point x="365" y="713" type="line"/>
      <point x="606" y="713" type="line" smooth="yes"/>
      <point x="701" y="713"/>
      <point x="772" y="696"/>
      <point x="817" y="662" type="curve" smooth="yes"/>
      <point x="862" y="628"/>
      <point x="885" y="575"/>
      <point x="885" y="504" type="curve" smooth="yes"/>
      <point x="885" y="395"/>
      <point x="853" y="311"/>
      <point x="788" y="253" type="curve" smooth="yes"/>
      <point x="723" y="195"/>
      <point x="629" y="166"/>
      <point x="506" y="166" type="curve" smooth="yes"/>
      <point x="258" y="166" type="line"/>
    </contour>
    <contour>
      <point x="483" y="1327" type="line"/>
      <point x="727" y="1327" type="line" smooth="yes"/>
      <point x="810" y="1327"/>
      <point x="871" y="1313"/>
      <point x="908" y="1285" type="curve" smooth="yes"/>
      <point x="945" y="1257"/>
      <point x="963" y="1212"/>
      <point x="963" y="1149" type="curve" smooth="yes"/>
      <point x="963" y="1064"/>
      <point x="934" y="998"/>
      <point x="877" y="950" type="curve" smooth="yes"/>
      <point x="819" y="901"/>
      <point x="740" y="877"/>
      <point x="639" y="877" type="curve" smooth="yes"/>
      <point x="395" y="877" type="line"/>
    </contour>
    <contour>
      <point x="313" y="1493" type="line"/>
      <point x="23" y="0" type="line"/>
      <point x="475" y="0" type="line" smooth="yes"/>
      <point x="669" y="0"/>
      <point x="819" y="43"/>
      <point x="926" y="130" type="curve" smooth="yes"/>
      <point x="1032" y="217"/>
      <point x="1085" y="338"/>
      <point x="1085" y="494" type="curve" smooth="yes"/>
      <point x="1085" y="577"/>
      <point x="1063" y="644"/>
      <point x="1019" y="697" type="curve" smooth="yes"/>
      <point x="974" y="750"/>
      <point x="910" y="784"/>
      <point x="827" y="799" type="curve"/>
      <point x="931" y="812"/>
      <point x="1014" y="854"/>
      <point x="1075" y="923" type="curve" smooth="yes"/>
      <point x="1136" y="992"/>
      <point x="1167" y="1077"/>
      <point x="1167" y="1180" type="curve" smooth="yes"/>
      <point x="1167" y="1283"/>
      <point x="1132" y="1361"/>
      <point x="1063" y="1414" type="curve" smooth="yes"/>
      <point x="994" y="1467"/>
      <point x="891" y="1493"/>
      <point x="756" y="1493" type="curve" smooth="yes"/>
    </contour>
  </outline>
</glyph>
<glyph name="C" format="1">
  <advance width="1233"/>
  <unicode hex="0043"/>
  <note>
	C
  </note>
  <outline>
    <contour>
      <point x="983" y="260" type="line"/>
      <point x="924" y="219"/>
      <point x="865" y="188"/>
      <point x="805" y="167" type="curve" smooth="yes"/>
      <point x="744" y="146"/>
      <point x="686" y="135"/>
      <point x="629" y="135" type="curve" smooth="yes"/>
      <point x="531" y="135"/>
      <point x="456" y="166"/>
      <point x="404" y="227" type="curve" smooth="yes"/>
      <point x="352" y="288"/>
      <point x="326" y="377"/>
      <point x="326" y="492" type="curve" smooth="yes"/>
      <point x="326" y="621"/>
      <point x="347" y="749"/>
      <point x="390" y="877" type="curve" smooth="yes"/>
      <point x="432" y="1005"/>
      <point x="488" y="1110"/>
      <point x="557" y="1192" type="curve" smooth="yes"/>
      <point x="604" y="1247"/>
      <point x="655" y="1289"/>
      <point x="709" y="1316" type="curve" smooth="yes"/>
      <point x="763" y="1343"/>
      <point x="822" y="1356"/>
      <point x="885" y="1356" type="curve" smooth="yes"/>
      <point x="938" y="1356"/>
      <point x="989" y="1346"/>
      <point x="1036" y="1325" type="curve" smooth="yes"/>
      <point x="1083" y="1304"/>
      <point x="1128" y="1273"/>
      <point x="1171" y="1231" type="curve"/>
      <point x="1212" y="1438" type="line"/>
      <point x="1162" y="1465"/>
      <point x="1111" y="1485"/>
      <point x="1058" y="1499" type="curve" smooth="yes"/>
      <point x="1005" y="1513"/>
      <point x="952" y="1520"/>
      <point x="899" y="1520" type="curve" smooth="yes"/>
      <point x="789" y="1520"/>
      <point x="691" y="1499"/>
      <point x="605" y="1458" type="curve" smooth="yes"/>
      <point x="519" y="1417"/>
      <point x="440" y="1353"/>
      <point x="369" y="1266" type="curve" smooth="yes"/>
      <point x="293" y="1175"/>
      <point x="232" y="1057"/>
      <point x="185" y="913" type="curve" smooth="yes"/>
      <point x="138" y="769"/>
      <point x="115" y="624"/>
      <point x="115" y="477" type="curve" smooth="yes"/>
      <point x="115" y="317"/>
      <point x="157" y="193"/>
      <point x="242" y="104" type="curve" smooth="yes"/>
      <point x="326" y="15"/>
      <point x="445" y="-29"/>
      <point x="598" y="-29" type="curve" smooth="yes"/>
      <point x="659" y="-29"/>
      <point x="718" y="-22"/>
      <point x="775" y="-9" type="curve" smooth="yes"/>
      <point x="832" y="5"/>
      <point x="888" y="26"/>
      <point x="944" y="53" type="curve"/>
    </contour>
  </outline>
</glyph>
<glyph name="G" format="1">
  <advance width="1233"/>
  <unicode hex="0047"/>
  <note>
	G
  </note>
  <outline>
    <contour>
      <point x="1102" y="766" type="line"/>
      <point x="692" y="766" type="line"/>
      <point x="662" y="600" type="line"/>
      <point x="879" y="600" type="line"/>
      <point x="803" y="207" type="line"/>
      <point x="778" y="184"/>
      <point x="750" y="167"/>
      <point x="712" y="154" type="curve" smooth="yes"/>
      <point x="677" y="142"/>
      <point x="640" y="135"/>
      <point x="592" y="135" type="curve" smooth="yes"/>
      <point x="492" y="135"/>
      <point x="419" y="166"/>
      <point x="366" y="228" type="curve" smooth="yes"/>
      <point x="313" y="290"/>
      <point x="287" y="378"/>
      <point x="287" y="494" type="curve" smooth="yes"/>
      <point x="287" y="549"/>
      <point x="293" y="604"/>
      <point x="305" y="673" type="curve" smooth="yes"/>
      <point x="316" y="738"/>
      <point x="333" y="813"/>
      <point x="356" y="887" type="curve" smooth="yes"/>
      <point x="375" y="948"/>
      <point x="397" y="1006"/>
      <point x="425" y="1062" type="curve" smooth="yes"/>
      <point x="450" y="1112"/>
      <point x="478" y="1156"/>
      <point x="508" y="1192" type="curve" smooth="yes"/>
      <point x="551" y="1244"/>
      <point x="606" y="1288"/>
      <point x="662" y="1315" type="curve" smooth="yes"/>
      <point x="716" y="1341"/>
      <point x="780" y="1356"/>
      <point x="846" y="1356" type="curve" smooth="yes"/>
      <point x="900" y="1356"/>
      <point x="951" y="1346"/>
      <point x="999" y="1325" type="curve" smooth="yes"/>
      <point x="1040" y="1307"/>
      <point x="1089" y="1276"/>
      <point x="1135" y="1231" type="curve"/>
      <point x="1176" y="1438" type="line"/>
      <point x="1125" y="1465"/>
      <point x="1073" y="1485"/>
      <point x="1020" y="1499" type="curve" smooth="yes"/>
      <point x="967" y="1513"/>
      <point x="915" y="1520"/>
      <point x="854" y="1520" type="curve" smooth="yes"/>
      <point x="748" y="1520"/>
      <point x="652" y="1499"/>
      <point x="566" y="1458" type="curve" smooth="yes"/>
      <point x="476" y="1415"/>
      <point x="394" y="1349"/>
      <point x="328" y="1267" type="curve" smooth="yes"/>
      <point x="293" y="1223"/>
      <point x="258" y="1171"/>
      <point x="225" y="1105" type="curve" smooth="yes"/>
      <point x="194" y="1042"/>
      <point x="165" y="968"/>
      <point x="143" y="893" type="curve" smooth="yes"/>
      <point x="123" y="825"/>
      <point x="105" y="742"/>
      <point x="95" y="681" type="curve" smooth="yes"/>
      <point x="84" y="613"/>
      <point x="78" y="550"/>
      <point x="78" y="488" type="curve" smooth="yes"/>
      <point x="78" y="328"/>
      <point x="119" y="197"/>
      <point x="202" y="106" type="curve" smooth="yes"/>
      <point x="283" y="18"/>
      <point x="402" y="-29"/>
      <point x="564" y="-29" type="curve" smooth="yes"/>
      <point x="642" y="-29"/>
      <point x="711" y="-18"/>
      <point x="779" y="3" type="curve" smooth="yes"/>
      <point x="850" y="25"/>
      <point x="911" y="55"/>
      <point x="969" y="96" type="curve"/>
    </contour>
  </outline>
</glyph>
<glyph name="J" format="1">
  <advance width="1233"/>
  <unicode hex="004A"/>
  <note>
	J
  </note>
  <outline>
    <contour>
      <point x="-25" y="61" type="line"/>
      <point x="41" y="32"/>
      <point x="107" y="9"/>
      <point x="174" y="-6" type="curve" smooth="yes"/>
      <point x="241" y="-21"/>
      <point x="306" y="-29"/>
      <point x="371" y="-29" type="curve" smooth="yes"/>
      <point x="530" y="-29"/>
      <point x="649" y="9"/>
      <point x="729" y="85" type="curve" smooth="yes"/>
      <point x="809" y="160"/>
      <point x="868" y="294"/>
      <point x="905" y="487" type="curve" smooth="yes"/>
      <point x="1102" y="1493" type="line"/>
      <point x="518" y="1493" type="line"/>
      <point x="485" y="1323" type="line"/>
      <point x="866" y="1323" type="line"/>
      <point x="702" y="487" type="line" smooth="yes"/>
      <point x="675" y="350"/>
      <point x="639" y="257"/>
      <point x="592" y="208" type="curve" smooth="yes"/>
      <point x="545" y="159"/>
      <point x="474" y="135"/>
      <point x="379" y="135" type="curve" smooth="yes"/>
      <point x="310" y="135"/>
      <point x="245" y="149"/>
      <point x="184" y="177" type="curve" smooth="yes"/>
      <point x="123" y="204"/>
      <point x="68" y="244"/>
      <point x="20" y="297" type="curve"/>
    </contour>
  </outline>
</glyph>
<glyph name="O" format="1">
  <advance width="1233"/>
  <unicode hex="004F"/>
  <note>
	O
  </note>
  <outline>
    <contour>
      <point x="435" y="135"/>
      <point x="378" y="155"/>
      <point x="340" y="203" type="curve" smooth="yes"/>
      <point x="305" y="248"/>
      <point x="287" y="311"/>
      <point x="287" y="429" type="curve" smooth="yes"/>
      <point x="287" y="540"/>
      <point x="303" y="675"/>
      <point x="333" y="808" type="curve" smooth="yes"/>
      <point x="364" y="944"/>
      <point x="409" y="1073"/>
      <point x="455" y="1160" type="curve" smooth="yes"/>
      <point x="486" y="1219"/>
      <point x="525" y="1271"/>
      <point x="572" y="1305" type="curve" smooth="yes"/>
      <point x="620" y="1340"/>
      <point x="676" y="1356"/>
      <point x="734" y="1356" type="curve" smooth="yes"/>
      <point x="804" y="1356"/>
      <point x="858" y="1332"/>
      <point x="892" y="1289" type="curve" smooth="yes"/>
      <point x="927" y="1245"/>
      <point x="944" y="1180"/>
      <point x="944" y="1067" type="curve" smooth="yes"/>
      <point x="944" y="960"/>
      <point x="929" y="820"/>
      <point x="898" y="683" type="curve" smooth="yes"/>
      <point x="871" y="563"/>
      <point x="829" y="430"/>
      <point x="778" y="332" type="curve" smooth="yes"/>
      <point x="751" y="280"/>
      <point x="715" y="225"/>
      <point x="660" y="186" type="curve" smooth="yes"/>
      <point x="611" y="151"/>
      <point x="555" y="135"/>
      <point x="498" y="135" type="curve" smooth="yes"/>
    </contour>
    <contour>
      <point x="1151" y="1192"/>
      <point x="1119" y="1315"/>
      <point x="1054" y="1397" type="curve" smooth="yes"/>
      <point x="986" y="1483"/>
      <point x="885" y="1520"/>
      <point x="753" y="1520" type="curve" smooth="yes"/>
      <point x="657" y="1520"/>
      <point x="572" y="1500"/>
      <point x="501" y="1460" type="curve" smooth="yes"/>
      <point x="423" y="1417"/>
      <point x="352" y="1346"/>
      <point x="303" y="1272" type="curve" smooth="yes"/>
      <point x="283" y="1242"/>
      <point x="256" y="1195"/>
      <point x="231" y="1141" type="curve" smooth="yes"/>
      <point x="208" y="1091"/>
      <point x="189" y="1041"/>
      <point x="168" y="975" type="curve" smooth="yes"/>
      <point x="136" y="875"/>
      <point x="118" y="794"/>
      <point x="104" y="712" type="curve" smooth="yes"/>
      <point x="90" y="629"/>
      <point x="82" y="558"/>
      <point x="82" y="473" type="curve" smooth="yes"/>
      <point x="82" y="302"/>
      <point x="114" y="176"/>
      <point x="179" y="94" type="curve" smooth="yes"/>
      <point x="244" y="12"/>
      <point x="342" y="-29"/>
      <point x="478" y="-29" type="curve" smooth="yes"/>
      <point x="573" y="-29"/>
      <point x="658" y="-9"/>
      <point x="731" y="32" type="curve" smooth="yes"/>
      <point x="806" y="74"/>
      <point x="876" y="141"/>
      <point x="928" y="219" type="curve" smooth="yes"/>
      <point x="956" y="261"/>
      <point x="983" y="312"/>
      <point x="1001" y="351" type="curve" smooth="yes"/>
      <point x="1024" y="402"/>
      <point x="1042" y="450"/>
      <point x="1063" y="516" type="curve" smooth="yes"/>
      <point x="1092" y="607"/>
      <point x="1114" y="695"/>
      <point x="1129" y="781" type="curve" smooth="yes"/>
      <point x="1144" y="867"/>
      <point x="1151" y="945"/>
      <point x="1151" y="1024" type="curve" smooth="yes"/>
    </contour>
  </outline>
</glyph>
<glyph name="P" format="1">
  <advance width="1233"/>
  <unicode hex="0050"/>
  <note>
	P
  </note>
  <outline>
    <contour>
      <point x="512" y="1327" type="line"/>
      <point x="745" y="1327" type="line" smooth="yes"/>
      <point x="832" y="1327"/>
      <point x="896" y="1310"/>
      <point x="937" y="1276" type="curve" smooth="yes"/>
      <point x="978" y="1241"/>
      <point x="999" y="1188"/>
      <point x="999" y="1116" type="curve" smooth="yes"/>
      <point x="999" y="1010"/>
      <point x="966" y="925"/>
      <point x="901" y="862" type="curve" smooth="yes"/>
      <point x="835" y="798"/>
      <point x="747" y="766"/>
      <point x="637" y="766" type="curve" smooth="yes"/>
      <point x="403" y="766" type="line"/>
    </contour>
    <contour>
      <point x="342" y="1493" type="line"/>
      <point x="51" y="0" type="line"/>
      <point x="254" y="0" type="line"/>
      <point x="371" y="600" type="line"/>
      <point x="604" y="600" type="line" smooth="yes"/>
      <point x="791" y="600"/>
      <point x="937" y="648"/>
      <point x="1044" y="743" type="curve" smooth="yes"/>
      <point x="1151" y="838"/>
      <point x="1204" y="969"/>
      <point x="1204" y="1135" type="curve" smooth="yes"/>
      <point x="1204" y="1251"/>
      <point x="1168" y="1340"/>
      <point x="1096" y="1401" type="curve" smooth="yes"/>
      <point x="1024" y="1462"/>
      <point x="919" y="1493"/>
      <point x="782" y="1493" type="curve" smooth="yes"/>
    </contour>
  </outline>
</glyph>
<glyph name="Q" format="1">
  <advance width="1233"/>
  <unicode hex="0051"/>
  <note>
	Q
  </note>
  <outline>
    <contour>
      <point x="504" y="-27" type="line"/>
      <point x="690" y="-270" type="line"/>
      <point x="844" y="-178" type="line"/>
      <point x="690" y="10" type="line"/>
      <point x="743" y="32"/>
      <point x="792" y="66"/>
      <point x="839" y="111" type="curve" smooth="yes"/>
      <point x="886" y="156"/>
      <point x="927" y="211"/>
      <point x="963" y="274" type="curve" smooth="yes"/>
      <point x="988" y="319"/>
      <point x="1011" y="370"/>
      <point x="1032" y="427" type="curve" smooth="yes"/>
      <point x="1053" y="484"/>
      <point x="1074" y="552"/>
      <point x="1094" y="629" type="curve" smooth="yes"/>
      <point x="1113" y="703"/>
      <point x="1127" y="773"/>
      <point x="1137" y="839" type="curve" smooth="yes"/>
      <point x="1146" y="904"/>
      <point x="1151" y="965"/>
      <point x="1151" y="1020" type="curve" smooth="yes"/>
      <point x="1151" y="1190"/>
      <point x="1119" y="1316"/>
      <point x="1054" y="1398" type="curve" smooth="yes"/>
      <point x="989" y="1479"/>
      <point x="889" y="1520"/>
      <point x="754" y="1520" type="curve" smooth="yes"/>
      <point x="657" y="1520"/>
      <point x="573" y="1500"/>
      <point x="500" y="1460" type="curve" smooth="yes"/>
      <point x="427" y="1419"/>
      <point x="362" y="1357"/>
      <point x="303" y="1272" type="curve" smooth="yes"/>
      <point x="277" y="1233"/>
      <point x="253" y="1189"/>
      <point x="231" y="1140" type="curve" smooth="yes"/>
      <point x="208" y="1091"/>
      <point x="187" y="1036"/>
      <point x="168" y="975" type="curve" smooth="yes"/>
      <point x="139" y="884"/>
      <point x="118" y="797"/>
      <point x="104" y="712" type="curve" smooth="yes"/>
      <point x="89" y="627"/>
      <point x="82" y="547"/>
      <point x="82" y="473" type="curve" smooth="yes"/>
      <point x="82" y="298"/>
      <point x="115" y="171"/>
      <point x="181" y="92" type="curve" smooth="yes"/>
      <point x="246" y="13"/>
      <point x="351" y="-27"/>
      <point x="494" y="-27" type="curve" smooth="yes"/>
    </contour>
    <contour>
      <point x="429" y="135"/>
      <point x="375" y="158"/>
      <point x="340" y="203" type="curve" smooth="yes"/>
      <point x="305" y="248"/>
      <point x="287" y="319"/>
      <point x="287" y="414" type="curve" smooth="yes"/>
      <point x="287" y="541"/>
      <point x="302" y="672"/>
      <point x="333" y="808" type="curve" smooth="yes"/>
      <point x="364" y="944"/>
      <point x="404" y="1061"/>
      <point x="455" y="1159" type="curve" smooth="yes"/>
      <point x="486" y="1222"/>
      <point x="526" y="1271"/>
      <point x="573" y="1305" type="curve" smooth="yes"/>
      <point x="620" y="1339"/>
      <point x="672" y="1356"/>
      <point x="729" y="1356" type="curve" smooth="yes"/>
      <point x="802" y="1356"/>
      <point x="857" y="1334"/>
      <point x="892" y="1289" type="curve" smooth="yes"/>
      <point x="927" y="1244"/>
      <point x="944" y="1174"/>
      <point x="944" y="1079" type="curve" smooth="yes"/>
      <point x="944" y="952"/>
      <point x="929" y="820"/>
      <point x="898" y="683" type="curve" smooth="yes"/>
      <point x="867" y="546"/>
      <point x="827" y="429"/>
      <point x="778" y="332" type="curve" smooth="yes"/>
      <point x="747" y="269"/>
      <point x="707" y="220"/>
      <point x="659" y="186" type="curve" smooth="yes"/>
      <point x="611" y="152"/>
      <point x="559" y="135"/>
      <point x="502" y="135" type="curve" smooth="yes"/>
    </contour>
  </outline>
</glyph>
<glyph name="R" format="1">
  <advance width="1233"/>
  <unicode hex="0052"/>
  <note>
	R
  </note>
  <outline>
    <contour>
      <point x="215" y="0" type="line"/>
      <point x="338" y="631" type="line"/>
      <point x="530" y="631" type="line" smooth="yes"/>
      <point x="599" y="631"/>
      <point x="658" y="616"/>
      <point x="695" y="582" type="curve" smooth="yes"/>
      <point x="732" y="548"/>
      <point x="764" y="480"/>
      <point x="793" y="377" type="curve" smooth="yes"/>
      <point x="899" y="0" type="line"/>
      <point x="1100" y="0" type="line"/>
      <point x="979" y="408" type="line" smooth="yes"/>
      <point x="942" y="533"/>
      <point x="908" y="605"/>
      <point x="882" y="638" type="curve" smooth="yes"/>
      <point x="854" y="673"/>
      <point x="811" y="697"/>
      <point x="766" y="705" type="curve"/>
      <point x="887" y="720"/>
      <point x="981" y="770"/>
      <point x="1048" y="848" type="curve" smooth="yes"/>
      <point x="1117" y="928"/>
      <point x="1151" y="1033"/>
      <point x="1151" y="1144" type="curve" smooth="yes"/>
      <point x="1151" y="1257"/>
      <point x="1116" y="1343"/>
      <point x="1038" y="1404" type="curve" smooth="yes"/>
      <point x="962" y="1463"/>
      <point x="855" y="1493"/>
      <point x="717" y="1493" type="curve" smooth="yes"/>
      <point x="301" y="1493" type="line"/>
      <point x="12" y="0" type="line"/>
    </contour>
    <contour>
      <point x="473" y="1327" type="line"/>
      <point x="686" y="1327" type="line" smooth="yes"/>
      <point x="777" y="1327"/>
      <point x="843" y="1310"/>
      <point x="885" y="1275" type="curve" smooth="yes"/>
      <point x="927" y="1240"/>
      <point x="948" y="1185"/>
      <point x="948" y="1109" type="curve" smooth="yes"/>
      <point x="948" y="1015"/>
      <point x="916" y="940"/>
      <point x="851" y="883" type="curve" smooth="yes"/>
      <point x="786" y="826"/>
      <point x="699" y="797"/>
      <point x="590" y="797" type="curve" smooth="yes"/>
      <point x="371" y="797" type="line"/>
    </contour>
  </outline>
</glyph>
<glyph name="U" format="1">
  <advance width="1233"/>
  <unicode hex="0055"/>
  <note>
	U
  </note>
  <outline>
    <contour>
      <point x="550" y="-29"/>
      <point x="615" y="-19"/>
      <point x="676" y="1" type="curve" smooth="yes"/>
      <point x="733" y="19"/>
      <point x="791" y="48"/>
      <point x="838" y="86" type="curve" smooth="yes"/>
      <point x="890" y="128"/>
      <point x="931" y="181"/>
      <point x="964" y="253" type="curve" smooth="yes"/>
      <point x="992" y="314"/>
      <point x="1020" y="402"/>
      <point x="1053" y="573" type="curve" smooth="yes"/>
      <point x="1231" y="1493" type="line"/>
      <point x="1028" y="1493" type="line"/>
      <point x="850" y="573" type="line" smooth="yes"/>
      <point x="832" y="481"/>
      <point x="815" y="409"/>
      <point x="801" y="361" type="curve" smooth="yes"/>
      <point x="784" y="303"/>
      <point x="770" y="275"/>
      <point x="756" y="254" type="curve" smooth="yes"/>
      <point x="730" y="215"/>
      <point x="693" y="186"/>
      <point x="649" y="165" type="curve" smooth="yes"/>
      <point x="605" y="144"/>
      <point x="560" y="135"/>
      <point x="501" y="135" type="curve" smooth="yes"/>
      <point x="424" y="135"/>
      <point x="370" y="150"/>
      <point x="334" y="181" type="curve" smooth="yes"/>
      <point x="300" y="210"/>
      <point x="279" y="256"/>
      <point x="279" y="313" type="curve" smooth="yes"/>
      <point x="279" y="353"/>
      <point x="289" y="434"/>
      <point x="309" y="532" type="curve" smooth="yes"/>
      <point x="313" y="551"/>
      <point x="316" y="564"/>
      <point x="317" y="573" type="curve"/>
      <point x="496" y="1493" type="line"/>
      <point x="293" y="1493" type="line"/>
      <point x="115" y="573" type="line" smooth="yes"/>
      <point x="102" y="506"/>
      <point x="97" y="478"/>
      <point x="89" y="417" type="curve" smooth="yes"/>
      <point x="83" y="372"/>
      <point x="80" y="347"/>
      <point x="80" y="315" type="curve" smooth="yes"/>
      <point x="80" y="207"/>
      <point x="115" y="121"/>
      <point x="184" y="61" type="curve" smooth="yes"/>
      <point x="253" y="1"/>
      <point x="351" y="-29"/>
      <point x="477" y="-29" type="curve" smooth="yes"/>
    </contour>
  </outline>
</glyph>
<glyph name="W" format="1">
  <advance width="1233"/>
  <unicode hex="0057"/>
  <note>
	W
  </note>
  <outline>
    <contour>
      <point x="145" y="1493" type="line"/>
      <point x="82" y="0" type="line"/>
      <point x="270" y="0" type="line"/>
      <point x="641" y="870" type="line"/>
      <point x="672" y="0" type="line"/>
      <point x="866" y="0" type="line"/>
      <point x="1376" y="1493" type="line"/>
      <point x="1178" y="1493" type="line"/>
      <point x="801" y="281" type="line"/>
      <point x="786" y="1083" type="line"/>
      <point x="575" y="1083" type="line"/>
      <point x="246" y="283" type="line"/>
      <point x="336" y="1493" type="line"/>
    </contour>
  </outline>
</glyph>
<glyph name="X" format="1">
  <advance width="1233"/>
  <unicode hex="0058"/>
  <note>
	X
  </note>
  <outline>
    <contour>
      <point x="242" y="1493" type="line"/>
      <point x="530" y="797" type="line"/>
      <point x="-127" y="0" type="line"/>
      <point x="104" y="0" type="line"/>
      <point x="610" y="612" type="line"/>
      <point x="864" y="0" type="line"/>
      <point x="1065" y="0" type="line"/>
      <point x="741" y="774" type="line"/>
      <point x="1337" y="1493" type="line"/>
      <point x="1106" y="1493" type="line"/>
      <point x="666" y="961" type="line"/>
      <point x="442" y="1493" type="line"/>
    </contour>
  </outline>
</glyph>
<glyph name="bracketleft" format="1">
  <advance width="1233"/>
  <unicode hex="005B"/>
  <note>
	bracketleft
  </note>
  <outline>
    <contour>
      <point x="844" y="-270" type="line"/>
      <point x="867" y="-127" type="line"/>
      <point x="627" y="-127" type="line"/>
      <point x="883" y="1493" type="line"/>
      <point x="1123" y="1493" type="line"/>
      <point x="1146" y="1636" type="line"/>
      <point x="722" y="1636" type="line"/>
      <point x="420" y="-270" type="line"/>
    </contour>
  </outline>
</glyph>
<glyph name="backslash" format="1">
  <advance width="1233"/>
  <unicode hex="005C"/>
  <note>
	backslash
  </note>
  <outline>
    <contour>
      <point x="725" y="-190" type="line"/>
      <point x="526" y="1493" type="line"/>
      <point x="356" y="1493" type="line"/>
      <point x="555" y="-190" type="line"/>
    </contour>
  </outline>
</glyph>
<glyph name="bracketright" format="1">
  <advance width="1233"/>
  <unicode hex="005D"/>
  <note>
	bracketright
  </note>
  <outline>
    <contour>
      <point x="727" y="-270" type="line"/>
      <point x="1029" y="1635" type="line"/>
      <point x="605" y="1635" type="line"/>
      <point x="582" y="1492" type="line"/>
      <point x="822" y="1492" type="line"/>
      <point x="566" y="-127" type="line"/>
      <point x="326" y="-127" type="line"/>
      <point x="303" y="-270" type="line"/>
    </contour>
  </outline>
</glyph>
<glyph name="b" format="1">
  <advance width="1233"/>
  <unicode hex="0062"/>
  <note>
	b
  </note>
  <outline>
    <contour>
      <point x="472" y="127"/>
      <point x="421" y="149"/>
      <point x="386" y="194" type="curve" smooth="yes"/>
      <point x="350" y="238"/>
      <point x="332" y="301"/>
      <point x="332" y="383" type="curve" smooth="yes"/>
      <point x="332" y="457"/>
      <point x="342" y="533"/>
      <point x="361" y="611" type="curve" smooth="yes"/>
      <point x="380" y="688"/>
      <point x="406" y="756"/>
      <point x="438" y="813" type="curve" smooth="yes"/>
      <point x="472" y="872"/>
      <point x="512" y="916"/>
      <point x="558" y="947" type="curve" smooth="yes"/>
      <point x="603" y="978"/>
      <point x="654" y="993"/>
      <point x="709" y="993" type="curve" smooth="yes"/>
      <point x="776" y="993"/>
      <point x="827" y="972"/>
      <point x="861" y="929" type="curve" smooth="yes"/>
      <point x="894" y="886"/>
      <point x="911" y="822"/>
      <point x="911" y="737" type="curve" smooth="yes"/>
      <point x="911" y="665"/>
      <point x="902" y="590"/>
      <point x="883" y="513" type="curve" smooth="yes"/>
      <point x="864" y="436"/>
      <point x="838" y="366"/>
      <point x="805" y="303" type="curve" smooth="yes"/>
      <point x="774" y="246"/>
      <point x="736" y="202"/>
      <point x="691" y="172" type="curve" smooth="yes"/>
      <point x="646" y="142"/>
      <point x="595" y="127"/>
      <point x="539" y="127" type="curve" smooth="yes"/>
    </contour>
    <contour>
      <point x="547" y="1556" type="line"/>
      <point x="362" y="1556" type="line"/>
      <point x="59" y="0" type="line"/>
      <point x="244" y="0" type="line"/>
      <point x="270" y="141" type="line"/>
      <point x="293" y="85"/>
      <point x="326" y="43"/>
      <point x="371" y="14" type="curve" smooth="yes"/>
      <point x="415" y="-15"/>
      <point x="470" y="-29"/>
      <point x="535" y="-29" type="curve" smooth="yes"/>
      <point x="618" y="-29"/>
      <point x="696" y="-8"/>
      <point x="769" y="35" type="curve" smooth="yes"/>
      <point x="842" y="77"/>
      <point x="903" y="136"/>
      <point x="954" y="213" type="curve" smooth="yes"/>
      <point x="1002" y="285"/>
      <point x="1040" y="369"/>
      <point x="1067" y="465" type="curve" smooth="yes"/>
      <point x="1094" y="561"/>
      <point x="1108" y="657"/>
      <point x="1108" y="754" type="curve" smooth="yes"/>
      <point x="1108" y="878"/>
      <point x="1078" y="975"/>
      <point x="1017" y="1044" type="curve" smooth="yes"/>
      <point x="956" y="1113"/>
      <point x="871" y="1147"/>
      <point x="762" y="1147" type="curve" smooth="yes"/>
      <point x="694" y="1147"/>
      <point x="633" y="1133"/>
      <point x="578" y="1104" type="curve" smooth="yes"/>
      <point x="523" y="1075"/>
      <point x="475" y="1033"/>
      <point x="434" y="977" type="curve"/>
    </contour>
  </outline>
</glyph>
<glyph name="c" format="1">
  <advance width="1233"/>
  <unicode hex="0063"/>
  <note>
	c
  </note>
  <outline>
    <contour>
      <point x="979" y="252" type="line"/>
      <point x="928" y="213"/>
      <point x="870" y="180"/>
      <point x="808" y="158" type="curve" smooth="yes"/>
      <point x="749" y="137"/>
      <point x="685" y="127"/>
      <point x="625" y="127" type="curve" smooth="yes"/>
      <point x="527" y="127"/>
      <point x="461" y="154"/>
      <point x="418" y="200" type="curve" smooth="yes"/>
      <point x="371" y="251"/>
      <point x="350" y="326"/>
      <point x="350" y="418" type="curve" smooth="yes"/>
      <point x="350" y="485"/>
      <point x="361" y="555"/>
      <point x="382" y="626" type="curve" smooth="yes"/>
      <point x="403" y="697"/>
      <point x="435" y="763"/>
      <point x="469" y="813" type="curve" smooth="yes"/>
      <point x="509" y="872"/>
      <point x="558" y="918"/>
      <point x="614" y="947" type="curve" smooth="yes"/>
      <point x="670" y="976"/>
      <point x="737" y="991"/>
      <point x="810" y="991" type="curve" smooth="yes"/>
      <point x="866" y="991"/>
      <point x="917" y="982"/>
      <point x="964" y="964" type="curve" smooth="yes"/>
      <point x="1011" y="946"/>
      <point x="1056" y="918"/>
      <point x="1100" y="879" type="curve"/>
      <point x="1137" y="1061" type="line"/>
      <point x="1084" y="1090"/>
      <point x="1025" y="1113"/>
      <point x="975" y="1126" type="curve" smooth="yes"/>
      <point x="920" y="1140"/>
      <point x="863" y="1147"/>
      <point x="804" y="1147" type="curve" smooth="yes"/>
      <point x="715" y="1147"/>
      <point x="633" y="1131"/>
      <point x="559" y="1098" type="curve" smooth="yes"/>
      <point x="492" y="1068"/>
      <point x="418" y="1020"/>
      <point x="354" y="950" type="curve" smooth="yes"/>
      <point x="296" y="887"/>
      <point x="243" y="801"/>
      <point x="209" y="709" type="curve" smooth="yes"/>
      <point x="175" y="617"/>
      <point x="156" y="511"/>
      <point x="156" y="412" type="curve" smooth="yes"/>
      <point x="156" y="271"/>
      <point x="194" y="159"/>
      <point x="271" y="84" type="curve" smooth="yes"/>
      <point x="348" y="9"/>
      <point x="460" y="-29"/>
      <point x="606" y="-29" type="curve" smooth="yes"/>
      <point x="669" y="-29"/>
      <point x="728" y="-22"/>
      <point x="784" y="-8" type="curve" smooth="yes"/>
      <point x="837" y="5"/>
      <point x="883" y="21"/>
      <point x="940" y="51" type="curve"/>
    </contour>
  </outline>
</glyph>
<glyph name="d" format="1">
  <advance width="1233"/>
  <unicode hex="0064"/>
  <note>
	d
  </note>
  <outline>
    <contour>
      <point x="751" y="991"/>
      <point x="802" y="969"/>
      <point x="839" y="924" type="curve" smooth="yes"/>
      <point x="875" y="879"/>
      <point x="893" y="817"/>
      <point x="893" y="737" type="curve" smooth="yes"/>
      <point x="893" y="661"/>
      <point x="884" y="585"/>
      <point x="865" y="508" type="curve" smooth="yes"/>
      <point x="846" y="431"/>
      <point x="821" y="363"/>
      <point x="788" y="305" type="curve" smooth="yes"/>
      <point x="756" y="246"/>
      <point x="717" y="202"/>
      <point x="672" y="172" type="curve" smooth="yes"/>
      <point x="626" y="142"/>
      <point x="575" y="127"/>
      <point x="518" y="127" type="curve" smooth="yes"/>
      <point x="451" y="127"/>
      <point x="400" y="148"/>
      <point x="366" y="191" type="curve" smooth="yes"/>
      <point x="332" y="234"/>
      <point x="315" y="298"/>
      <point x="315" y="383" type="curve" smooth="yes"/>
      <point x="315" y="460"/>
      <point x="324" y="536"/>
      <point x="342" y="613" type="curve" smooth="yes"/>
      <point x="360" y="689"/>
      <point x="385" y="757"/>
      <point x="418" y="817" type="curve" smooth="yes"/>
      <point x="449" y="875"/>
      <point x="486" y="919"/>
      <point x="531" y="948" type="curve" smooth="yes"/>
      <point x="576" y="977"/>
      <point x="627" y="991"/>
      <point x="686" y="991" type="curve" smooth="yes"/>
    </contour>
    <contour>
      <point x="954" y="977" type="line"/>
      <point x="927" y="1032"/>
      <point x="889" y="1075"/>
      <point x="840" y="1104" type="curve" smooth="yes"/>
      <point x="791" y="1133"/>
      <point x="735" y="1147"/>
      <point x="670" y="1147" type="curve" smooth="yes"/>
      <point x="587" y="1147"/>
      <point x="512" y="1127"/>
      <point x="445" y="1087" type="curve" smooth="yes"/>
      <point x="377" y="1047"/>
      <point x="318" y="988"/>
      <point x="268" y="909" type="curve" smooth="yes"/>
      <point x="222" y="837"/>
      <point x="186" y="753"/>
      <point x="159" y="657" type="curve" smooth="yes"/>
      <point x="132" y="560"/>
      <point x="119" y="464"/>
      <point x="119" y="369" type="curve" smooth="yes"/>
      <point x="119" y="244"/>
      <point x="149" y="146"/>
      <point x="210" y="76" type="curve" smooth="yes"/>
      <point x="270" y="6"/>
      <point x="354" y="-29"/>
      <point x="463" y="-29" type="curve" smooth="yes"/>
      <point x="530" y="-29"/>
      <point x="591" y="-15"/>
      <point x="646" y="14" type="curve" smooth="yes"/>
      <point x="701" y="43"/>
      <point x="750" y="85"/>
      <point x="793" y="141" type="curve"/>
      <point x="766" y="0" type="line"/>
      <point x="950" y="0" type="line"/>
      <point x="1253" y="1556" type="line"/>
      <point x="1069" y="1556" type="line"/>
    </contour>
  </outline>
</glyph>
<glyph name="e" format="1">
  <advance width="1233"/>
  <unicode hex="0065"/>
  <note>
	e
  </note>
  <outline>
    <contour>
      <point x="332" y="659" type="line"/>
      <point x="361" y="763"/>
      <point x="416" y="846"/>
      <point x="477" y="901" type="curve" smooth="yes"/>
      <point x="547" y="964"/>
      <point x="627" y="991"/>
      <point x="706" y="991" type="curve" smooth="yes"/>
      <point x="777" y="991"/>
      <point x="840" y="969"/>
      <point x="883" y="924" type="curve" smooth="yes"/>
      <point x="926" y="879"/>
      <point x="948" y="816"/>
      <point x="948" y="741" type="curve" smooth="yes"/>
      <point x="948" y="725"/>
      <point x="947" y="715"/>
      <point x="946" y="704" type="curve" smooth="yes"/>
      <point x="945" y="692"/>
      <point x="942" y="677"/>
      <point x="938" y="659" type="curve"/>
    </contour>
    <contour>
      <point x="997" y="240" type="line"/>
      <point x="921" y="203"/>
      <point x="848" y="175"/>
      <point x="779" y="156" type="curve" smooth="yes"/>
      <point x="709" y="137"/>
      <point x="646" y="127"/>
      <point x="584" y="127" type="curve" smooth="yes"/>
      <point x="489" y="127"/>
      <point x="413" y="151"/>
      <point x="362" y="200" type="curve" smooth="yes"/>
      <point x="311" y="249"/>
      <point x="285" y="320"/>
      <point x="285" y="409" type="curve" smooth="yes"/>
      <point x="285" y="426"/>
      <point x="286" y="441"/>
      <point x="288" y="458" type="curve" smooth="yes"/>
      <point x="290" y="475"/>
      <point x="293" y="495"/>
      <point x="297" y="516" type="curve"/>
      <point x="1104" y="516" type="line"/>
      <point x="1112" y="568"/>
      <point x="1117" y="605"/>
      <point x="1121" y="645" type="curve" smooth="yes"/>
      <point x="1124" y="678"/>
      <point x="1126" y="703"/>
      <point x="1126" y="731" type="curve" smooth="yes"/>
      <point x="1126" y="853"/>
      <point x="1088" y="960"/>
      <point x="1015" y="1035" type="curve" smooth="yes"/>
      <point x="945" y="1107"/>
      <point x="845" y="1149"/>
      <point x="719" y="1149" type="curve" smooth="yes"/>
      <point x="643" y="1149"/>
      <point x="575" y="1134"/>
      <point x="508" y="1104" type="curve" smooth="yes"/>
      <point x="443" y="1075"/>
      <point x="383" y="1034"/>
      <point x="324" y="973" type="curve" smooth="yes"/>
      <point x="253" y="900"/>
      <point x="198" y="814"/>
      <point x="158" y="714" type="curve" smooth="yes"/>
      <point x="118" y="614"/>
      <point x="98" y="512"/>
      <point x="98" y="410" type="curve" smooth="yes"/>
      <point x="98" y="267"/>
      <point x="137" y="157"/>
      <point x="213" y="83" type="curve" smooth="yes"/>
      <point x="287" y="11"/>
      <point x="399" y="-29"/>
      <point x="558" y="-29" type="curve" smooth="yes"/>
      <point x="630" y="-29"/>
      <point x="690" y="-21"/>
      <point x="756" y="-7" type="curve" smooth="yes"/>
      <point x="825" y="8"/>
      <point x="883" y="25"/>
      <point x="961" y="57" type="curve"/>
    </contour>
  </outline>
</glyph>
<glyph name="f" format="1">
  <advance width="1233"/>
  <unicode hex="0066"/>
  <note>
	f
  </note>
  <outline>
    <contour>
      <point x="1245" y="1556" type="line"/>
      <point x="1024" y="1556" type="line" smooth="yes"/>
      <point x="899" y="1556"/>
      <point x="805" y="1529"/>
      <point x="741" y="1474" type="curve" smooth="yes"/>
      <point x="676" y="1419"/>
      <point x="631" y="1327"/>
      <point x="606" y="1198" type="curve" smooth="yes"/>
      <point x="590" y="1120" type="line"/>
      <point x="293" y="1120" type="line"/>
      <point x="264" y="977" type="line"/>
      <point x="563" y="977" type="line"/>
      <point x="373" y="0" type="line"/>
      <point x="557" y="0" type="line"/>
      <point x="748" y="977" type="line"/>
      <point x="1133" y="977" type="line"/>
      <point x="1159" y="1120" type="line"/>
      <point x="774" y="1120" type="line"/>
      <point x="795" y="1219" type="line" smooth="yes"/>
      <point x="808" y="1286"/>
      <point x="831" y="1334"/>
      <point x="863" y="1362" type="curve" smooth="yes"/>
      <point x="895" y="1389"/>
      <point x="943" y="1403"/>
      <point x="1006" y="1403" type="curve" smooth="yes"/>
      <point x="1214" y="1403" type="line"/>
    </contour>
  </outline>
</glyph>
<glyph name="h" format="1">
  <advance width="1233"/>
  <unicode hex="0068"/>
  <note>
	h
  </note>
  <outline>
    <contour>
      <point x="1075" y="694" type="line" smooth="yes"/>
      <point x="1082" y="729"/>
      <point x="1087" y="762"/>
      <point x="1091" y="793" type="curve" smooth="yes"/>
      <point x="1094" y="824"/>
      <point x="1096" y="851"/>
      <point x="1096" y="872" type="curve" smooth="yes"/>
      <point x="1096" y="959"/>
      <point x="1070" y="1026"/>
      <point x="1019" y="1075" type="curve" smooth="yes"/>
      <point x="968" y="1123"/>
      <point x="896" y="1147"/>
      <point x="803" y="1147" type="curve" smooth="yes"/>
      <point x="738" y="1147"/>
      <point x="676" y="1131"/>
      <point x="618" y="1098" type="curve" smooth="yes"/>
      <point x="559" y="1065"/>
      <point x="505" y="1017"/>
      <point x="455" y="952" type="curve"/>
      <point x="571" y="1556" type="line"/>
      <point x="387" y="1556" type="line"/>
      <point x="84" y="0" type="line"/>
      <point x="268" y="0" type="line"/>
      <point x="391" y="633" type="line" smooth="yes"/>
      <point x="413" y="745"/>
      <point x="454" y="832"/>
      <point x="513" y="894" type="curve" smooth="yes"/>
      <point x="572" y="956"/>
      <point x="644" y="987"/>
      <point x="729" y="987" type="curve" smooth="yes"/>
      <point x="787" y="987"/>
      <point x="832" y="973"/>
      <point x="863" y="944" type="curve" smooth="yes"/>
      <point x="894" y="915"/>
      <point x="909" y="873"/>
      <point x="909" y="819" type="curve" smooth="yes"/>
      <point x="909" y="793"/>
      <point x="904" y="756"/>
      <point x="894" y="709" type="curve" smooth="yes"/>
      <point x="893" y="702"/>
      <point x="892" y="698"/>
      <point x="891" y="695" type="curve"/>
      <point x="756" y="0" type="line"/>
      <point x="940" y="0" type="line"/>
    </contour>
  </outline>
</glyph>
<glyph name="i" format="1">
  <advance width="1233"/>
  <unicode hex="0069"/>
  <note>
	i
  </note>
  <outline>
    <contour>
      <point x="706" y="1556" type="line" smooth="yes"/>
      <point x="688" y="1556"/>
      <point x="677" y="1547"/>
      <point x="674" y="1529" type="curve" smooth="yes"/>
      <point x="640" y="1356" type="line" smooth="yes"/>
      <point x="636" y="1336"/>
      <point x="647" y="1323"/>
      <point x="667" y="1323" type="curve" smooth="yes"/>
      <point x="791" y="1323" type="line" smooth="yes"/>
      <point x="809" y="1323"/>
      <point x="820" y="1332"/>
      <point x="823" y="1350" type="curve" smooth="yes"/>
      <point x="857" y="1523" type="line" smooth="yes"/>
      <point x="861" y="1543"/>
      <point x="850" y="1556"/>
      <point x="830" y="1556" type="curve" smooth="yes"/>
    </contour>
    <contour>
      <point x="772" y="1120" type="line"/>
      <point x="272" y="1120" type="line"/>
      <point x="243" y="976" type="line"/>
      <point x="559" y="976" type="line"/>
      <point x="426" y="412" type="line" smooth="yes"/>
      <point x="420" y="386"/>
      <point x="416" y="361"/>
      <point x="412" y="326" type="curve" smooth="yes"/>
      <point x="409" y="299"/>
      <point x="407" y="279"/>
      <point x="407" y="256" type="curve" smooth="yes"/>
      <point x="407" y="171"/>
      <point x="435" y="107"/>
      <point x="492" y="64" type="curve" smooth="yes"/>
      <point x="548" y="21"/>
      <point x="634" y="0"/>
      <point x="749" y="0" type="curve" smooth="yes"/>
      <point x="956" y="0" type="line"/>
      <point x="987" y="156" type="line"/>
      <point x="776" y="156" type="line" smooth="yes"/>
      <point x="715" y="156"/>
      <point x="670" y="168"/>
      <point x="641" y="192" type="curve" smooth="yes"/>
      <point x="611" y="216"/>
      <point x="596" y="250"/>
      <point x="596" y="302" type="curve" smooth="yes"/>
      <point x="596" y="316"/>
      <point x="597" y="325"/>
      <point x="600" y="346" type="curve" smooth="yes"/>
      <point x="602" y="362"/>
      <point x="605" y="385"/>
      <point x="610" y="408" type="curve" smooth="yes"/>
    </contour>
  </outline>
</glyph>
<glyph name="j" format="1">
  <advance width="1233"/>
  <unicode hex="006A"/>
  <note>
	j
  </note>
  <outline>
    <contour>
      <point x="498" y="-20" type="line" smooth="yes"/>
      <point x="481" y="-107"/>
      <point x="455" y="-171"/>
      <point x="418" y="-211" type="curve" smooth="yes"/>
      <point x="381" y="-250"/>
      <point x="331" y="-270"/>
      <point x="268" y="-270" type="curve" smooth="yes"/>
      <point x="35" y="-270" type="line"/>
      <point x="4" y="-426" type="line"/>
      <point x="258" y="-426" type="line" smooth="yes"/>
      <point x="379" y="-426"/>
      <point x="473" y="-394"/>
      <point x="540" y="-330" type="curve" smooth="yes"/>
      <point x="607" y="-265"/>
      <point x="655" y="-162"/>
      <point x="682" y="-20" type="curve" smooth="yes"/>
      <point x="903" y="1120" type="line"/>
      <point x="401" y="1120" type="line"/>
      <point x="373" y="977" type="line"/>
      <point x="690" y="977" type="line"/>
    </contour>
    <contour>
      <point x="803" y="1556" type="line"/>
      <point x="758" y="1323" type="line"/>
      <point x="942" y="1323" type="line"/>
      <point x="987" y="1556" type="line"/>
    </contour>
  </outline>
</glyph>
<glyph name="l" format="1">
  <advance width="1233"/>
  <unicode hex="006C"/>
  <note>
	l
  </note>
  <outline>
    <contour>
      <point x="840" y="1567" type="line"/>
      <point x="340" y="1567" type="line"/>
      <point x="311" y="1423" type="line"/>
      <point x="627" y="1423" type="line"/>
      <point x="416" y="412" type="line" smooth="yes"/>
      <point x="410" y="381"/>
      <point x="405" y="353"/>
      <point x="402" y="326" type="curve" smooth="yes"/>
      <point x="399" y="299"/>
      <point x="397" y="277"/>
      <point x="397" y="258" type="curve" smooth="yes"/>
      <point x="397" y="171"/>
      <point x="425" y="106"/>
      <point x="482" y="64" type="curve" smooth="yes"/>
      <point x="538" y="21"/>
      <point x="624" y="0"/>
      <point x="739" y="0" type="curve" smooth="yes"/>
      <point x="946" y="0" type="line"/>
      <point x="977" y="156" type="line"/>
      <point x="766" y="156" type="line" smooth="yes"/>
      <point x="705" y="156"/>
      <point x="660" y="168"/>
      <point x="631" y="192" type="curve" smooth="yes"/>
      <point x="601" y="216"/>
      <point x="586" y="252"/>
      <point x="586" y="301" type="curve" smooth="yes"/>
      <point x="586" y="313"/>
      <point x="587" y="328"/>
      <point x="590" y="346" type="curve" smooth="yes"/>
      <point x="592" y="364"/>
      <point x="595" y="385"/>
      <point x="600" y="408" type="curve" smooth="yes"/>
    </contour>
  </outline>
</glyph>
<glyph name="m" format="1">
  <advance width="1233"/>
  <unicode hex="006D"/>
  <note>
	m
  </note>
  <outline>
    <contour>
      <point x="741" y="1050"/>
      <point x="723" y="1085"/>
      <point x="692" y="1110" type="curve" smooth="yes"/>
      <point x="661" y="1135"/>
      <point x="621" y="1147"/>
      <point x="571" y="1147" type="curve" smooth="yes"/>
      <point x="528" y="1147"/>
      <point x="489" y="1137"/>
      <point x="452" y="1116" type="curve" smooth="yes"/>
      <point x="415" y="1095"/>
      <point x="381" y="1064"/>
      <point x="352" y="1024" type="curve"/>
      <point x="371" y="1120" type="line"/>
      <point x="203" y="1120" type="line"/>
      <point x="-14" y="0" type="line"/>
      <point x="154" y="0" type="line"/>
      <point x="279" y="641" type="line" smooth="yes"/>
      <point x="309" y="796"/>
      <point x="338" y="894"/>
      <point x="365" y="934" type="curve" smooth="yes"/>
      <point x="392" y="973"/>
      <point x="430" y="993"/>
      <point x="479" y="993" type="curve" smooth="yes"/>
      <point x="512" y="993"/>
      <point x="536" y="983"/>
      <point x="552" y="964" type="curve" smooth="yes"/>
      <point x="567" y="945"/>
      <point x="575" y="915"/>
      <point x="575" y="874" type="curve" smooth="yes"/>
      <point x="575" y="859"/>
      <point x="572" y="832"/>
      <point x="567" y="795" type="curve" smooth="yes"/>
      <point x="561" y="757"/>
      <point x="552" y="706"/>
      <point x="539" y="641" type="curve" smooth="yes"/>
      <point x="414" y="0" type="line"/>
      <point x="582" y="0" type="line"/>
      <point x="707" y="641" type="line" smooth="yes"/>
      <point x="736" y="790"/>
      <point x="764" y="886"/>
      <point x="792" y="929" type="curve" smooth="yes"/>
      <point x="820" y="972"/>
      <point x="859" y="993"/>
      <point x="909" y="993" type="curve" smooth="yes"/>
      <point x="943" y="993"/>
      <point x="968" y="984"/>
      <point x="983" y="965" type="curve" smooth="yes"/>
      <point x="998" y="946"/>
      <point x="1006" y="916"/>
      <point x="1006" y="874" type="curve" smooth="yes"/>
      <point x="1006" y="858"/>
      <point x="1003" y="831"/>
      <point x="997" y="792" type="curve" smooth="yes"/>
      <point x="990" y="753"/>
      <point x="981" y="702"/>
      <point x="969" y="641" type="curve" smooth="yes"/>
      <point x="844" y="0" type="line"/>
      <point x="1012" y="0" type="line"/>
      <point x="1139" y="649" type="line" smooth="yes"/>
      <point x="1153" y="720"/>
      <point x="1163" y="779"/>
      <point x="1169" y="824" type="curve" smooth="yes"/>
      <point x="1175" y="869"/>
      <point x="1178" y="910"/>
      <point x="1178" y="946" type="curve" smooth="yes"/>
      <point x="1178" y="1007"/>
      <point x="1161" y="1056"/>
      <point x="1127" y="1093" type="curve" smooth="yes"/>
      <point x="1092" y="1129"/>
      <point x="1046" y="1147"/>
      <point x="989" y="1147" type="curve" smooth="yes"/>
      <point x="938" y="1147"/>
      <point x="891" y="1135"/>
      <point x="850" y="1111" type="curve" smooth="yes"/>
      <point x="808" y="1086"/>
      <point x="774" y="1051"/>
      <point x="748" y="1006" type="curve"/>
    </contour>
  </outline>
</glyph>
<glyph name="n" format="1">
  <advance width="1233"/>
  <unicode hex="006E"/>
  <note>
	n
  </note>
  <outline>
    <contour>
      <point x="1075" y="694" type="line" smooth="yes"/>
      <point x="1083" y="734"/>
      <point x="1089" y="775"/>
      <point x="1091" y="793" type="curve" smooth="yes"/>
      <point x="1094" y="820"/>
      <point x="1096" y="855"/>
      <point x="1096" y="877" type="curve" smooth="yes"/>
      <point x="1096" y="957"/>
      <point x="1069" y="1028"/>
      <point x="1019" y="1075" type="curve" smooth="yes"/>
      <point x="968" y="1123"/>
      <point x="894" y="1147"/>
      <point x="807" y="1147" type="curve" smooth="yes"/>
      <point x="733" y="1147"/>
      <point x="675" y="1130"/>
      <point x="618" y="1098" type="curve" smooth="yes"/>
      <point x="559" y="1065"/>
      <point x="505" y="1017"/>
      <point x="455" y="952" type="curve"/>
      <point x="487" y="1120" type="line"/>
      <point x="303" y="1120" type="line"/>
      <point x="84" y="0" type="line"/>
      <point x="268" y="0" type="line"/>
      <point x="391" y="633" type="line" smooth="yes"/>
      <point x="413" y="745"/>
      <point x="454" y="832"/>
      <point x="513" y="894" type="curve" smooth="yes"/>
      <point x="572" y="956"/>
      <point x="644" y="987"/>
      <point x="729" y="987" type="curve" smooth="yes"/>
      <point x="787" y="987"/>
      <point x="832" y="973"/>
      <point x="863" y="944" type="curve" smooth="yes"/>
      <point x="894" y="915"/>
      <point x="909" y="874"/>
      <point x="909" y="816" type="curve" smooth="yes"/>
      <point x="909" y="782"/>
      <point x="904" y="764"/>
      <point x="894" y="709" type="curve" smooth="yes"/>
      <point x="892" y="701"/>
      <point x="895" y="707"/>
      <point x="891" y="695" type="curve"/>
      <point x="756" y="0" type="line"/>
      <point x="940" y="0" type="line"/>
    </contour>
  </outline>
</glyph>
<glyph name="o" format="1">
  <advance width="1233"/>
  <unicode hex="006F"/>
  <note>
	o
  </note>
  <outline>
    <contour>
      <point x="771" y="991"/>
      <point x="827" y="970"/>
      <point x="864" y="927" type="curve" smooth="yes"/>
      <point x="901" y="884"/>
      <point x="920" y="819"/>
      <point x="920" y="733" type="curve" smooth="yes"/>
      <point x="920" y="557"/>
      <point x="884" y="412"/>
      <point x="811" y="298" type="curve" smooth="yes"/>
      <point x="738" y="184"/>
      <point x="646" y="127"/>
      <point x="537" y="127" type="curve" smooth="yes"/>
      <point x="462" y="127"/>
      <point x="406" y="149"/>
      <point x="369" y="192" type="curve" smooth="yes"/>
      <point x="332" y="235"/>
      <point x="313" y="299"/>
      <point x="313" y="385" type="curve" smooth="yes"/>
      <point x="313" y="561"/>
      <point x="350" y="706"/>
      <point x="423" y="820" type="curve" smooth="yes"/>
      <point x="496" y="934"/>
      <point x="587" y="991"/>
      <point x="696" y="991" type="curve" smooth="yes"/>
    </contour>
    <contour>
      <point x="622" y="1147"/>
      <point x="539" y="1127"/>
      <point x="465" y="1087" type="curve" smooth="yes"/>
      <point x="390" y="1047"/>
      <point x="327" y="988"/>
      <point x="274" y="911" type="curve" smooth="yes"/>
      <point x="224" y="836"/>
      <point x="185" y="753"/>
      <point x="158" y="663" type="curve" smooth="yes"/>
      <point x="131" y="573"/>
      <point x="117" y="483"/>
      <point x="117" y="393" type="curve" smooth="yes"/>
      <point x="117" y="258"/>
      <point x="151" y="154"/>
      <point x="218" y="81" type="curve" smooth="yes"/>
      <point x="285" y="8"/>
      <point x="381" y="-29"/>
      <point x="506" y="-29" type="curve" smooth="yes"/>
      <point x="604" y="-29"/>
      <point x="691" y="-9"/>
      <point x="766" y="30" type="curve" smooth="yes"/>
      <point x="841" y="69"/>
      <point x="905" y="128"/>
      <point x="958" y="207" type="curve" smooth="yes"/>
      <point x="1007" y="280"/>
      <point x="1046" y="362"/>
      <point x="1073" y="453" type="curve" smooth="yes"/>
      <point x="1100" y="544"/>
      <point x="1114" y="635"/>
      <point x="1114" y="727" type="curve" smooth="yes"/>
      <point x="1114" y="864"/>
      <point x="1080" y="969"/>
      <point x="1012" y="1040" type="curve" smooth="yes"/>
      <point x="943" y="1111"/>
      <point x="844" y="1147"/>
      <point x="713" y="1147" type="curve" smooth="yes"/>
    </contour>
  </outline>
</glyph>
<glyph name="p" format="1">
  <advance width="1233"/>
  <unicode hex="0070"/>
  <note>
	p
  </note>
  <outline>
    <contour>
      <point x="182" y="-426" type="line"/>
      <point x="293" y="141" type="line"/>
      <point x="322" y="84"/>
      <point x="361" y="41"/>
      <point x="408" y="13" type="curve" smooth="yes"/>
      <point x="455" y="-15"/>
      <point x="511" y="-29"/>
      <point x="578" y="-29" type="curve" smooth="yes"/>
      <point x="659" y="-29"/>
      <point x="734" y="-9"/>
      <point x="802" y="32" type="curve" smooth="yes"/>
      <point x="870" y="73"/>
      <point x="928" y="131"/>
      <point x="979" y="211" type="curve" smooth="yes"/>
      <point x="1020" y="275"/>
      <point x="1061" y="363"/>
      <point x="1089" y="465" type="curve" smooth="yes"/>
      <point x="1115" y="561"/>
      <point x="1128" y="659"/>
      <point x="1128" y="744" type="curve" smooth="yes"/>
      <point x="1128" y="872"/>
      <point x="1099" y="974"/>
      <point x="1040" y="1043" type="curve" smooth="yes"/>
      <point x="979" y="1114"/>
      <point x="889" y="1147"/>
      <point x="788" y="1147" type="curve" smooth="yes"/>
      <point x="720" y="1147"/>
      <point x="659" y="1132"/>
      <point x="602" y="1103" type="curve" smooth="yes"/>
      <point x="545" y="1074"/>
      <point x="496" y="1032"/>
      <point x="455" y="977" type="curve"/>
      <point x="463" y="1120" type="line"/>
      <point x="299" y="1120" type="line"/>
      <point x="-2" y="-426" type="line"/>
    </contour>
    <contour>
      <point x="501" y="127"/>
      <point x="446" y="150"/>
      <point x="409" y="194" type="curve" smooth="yes"/>
      <point x="373" y="237"/>
      <point x="354" y="301"/>
      <point x="354" y="392" type="curve" smooth="yes"/>
      <point x="354" y="454"/>
      <point x="363" y="535"/>
      <point x="382" y="611" type="curve" smooth="yes"/>
      <point x="399" y="681"/>
      <point x="425" y="752"/>
      <point x="459" y="813" type="curve" smooth="yes"/>
      <point x="492" y="872"/>
      <point x="527" y="914"/>
      <point x="576" y="946" type="curve" smooth="yes"/>
      <point x="622" y="976"/>
      <point x="671" y="991"/>
      <point x="728" y="991" type="curve" smooth="yes"/>
      <point x="793" y="991"/>
      <point x="847" y="972"/>
      <point x="883" y="928" type="curve" smooth="yes"/>
      <point x="915" y="889"/>
      <point x="934" y="828"/>
      <point x="934" y="731" type="curve" smooth="yes"/>
      <point x="934" y="665"/>
      <point x="925" y="586"/>
      <point x="906" y="509" type="curve" smooth="yes"/>
      <point x="889" y="438"/>
      <point x="861" y="360"/>
      <point x="829" y="301" type="curve" smooth="yes"/>
      <point x="798" y="244"/>
      <point x="763" y="202"/>
      <point x="718" y="172" type="curve" smooth="yes"/>
      <point x="676" y="144"/>
      <point x="624" y="127"/>
      <point x="567" y="127" type="curve" smooth="yes"/>
    </contour>
  </outline>
</glyph>
<glyph name="q" format="1">
  <advance width="1233"/>
  <unicode hex="0071"/>
  <note>
	q
  </note>
  <outline>
    <contour>
      <point x="664" y="-426" type="line"/>
      <point x="848" y="-426" type="line"/>
      <point x="1147" y="1120" type="line"/>
      <point x="963" y="1120" type="line"/>
      <point x="936" y="977" type="line"/>
      <point x="913" y="1034"/>
      <point x="879" y="1076"/>
      <point x="834" y="1105" type="curve" smooth="yes"/>
      <point x="789" y="1133"/>
      <point x="733" y="1147"/>
      <point x="666" y="1147" type="curve" smooth="yes"/>
      <point x="579" y="1147"/>
      <point x="501" y="1127"/>
      <point x="432" y="1087" type="curve" smooth="yes"/>
      <point x="362" y="1047"/>
      <point x="302" y="988"/>
      <point x="252" y="909" type="curve" smooth="yes"/>
      <point x="204" y="834"/>
      <point x="166" y="749"/>
      <point x="139" y="652" type="curve" smooth="yes"/>
      <point x="112" y="555"/>
      <point x="98" y="460"/>
      <point x="98" y="365" type="curve" smooth="yes"/>
      <point x="98" y="240"/>
      <point x="129" y="144"/>
      <point x="190" y="74" type="curve" smooth="yes"/>
      <point x="251" y="5"/>
      <point x="337" y="-29"/>
      <point x="446" y="-29" type="curve" smooth="yes"/>
      <point x="514" y="-29"/>
      <point x="576" y="-15"/>
      <point x="631" y="14" type="curve" smooth="yes"/>
      <point x="686" y="43"/>
      <point x="733" y="85"/>
      <point x="774" y="141" type="curve"/>
    </contour>
    <contour>
      <point x="734" y="991"/>
      <point x="785" y="969"/>
      <point x="821" y="926" type="curve" smooth="yes"/>
      <point x="856" y="882"/>
      <point x="874" y="819"/>
      <point x="874" y="737" type="curve" smooth="yes"/>
      <point x="874" y="662"/>
      <point x="864" y="586"/>
      <point x="845" y="508" type="curve" smooth="yes"/>
      <point x="826" y="429"/>
      <point x="800" y="362"/>
      <point x="768" y="305" type="curve" smooth="yes"/>
      <point x="735" y="247"/>
      <point x="695" y="203"/>
      <point x="649" y="173" type="curve" smooth="yes"/>
      <point x="603" y="142"/>
      <point x="553" y="127"/>
      <point x="498" y="127" type="curve" smooth="yes"/>
      <point x="430" y="127"/>
      <point x="379" y="148"/>
      <point x="346" y="191" type="curve" smooth="yes"/>
      <point x="312" y="234"/>
      <point x="295" y="298"/>
      <point x="295" y="383" type="curve" smooth="yes"/>
      <point x="295" y="455"/>
      <point x="305" y="530"/>
      <point x="324" y="607" type="curve" smooth="yes"/>
      <point x="343" y="684"/>
      <point x="368" y="754"/>
      <point x="401" y="817" type="curve" smooth="yes"/>
      <point x="432" y="874"/>
      <point x="470" y="918"/>
      <point x="515" y="947" type="curve" smooth="yes"/>
      <point x="560" y="976"/>
      <point x="611" y="991"/>
      <point x="668" y="991" type="curve" smooth="yes"/>
    </contour>
  </outline>
</glyph>
<glyph name="r" format="1">
  <advance width="1233"/>
  <unicode hex="0072"/>
  <note>
	r
  </note>
  <outline>
    <contour>
      <point x="1219" y="1075" type="line"/>
      <point x="1191" y="1099"/>
      <point x="1155" y="1118"/>
      <point x="1122" y="1129" type="curve" smooth="yes"/>
      <point x="1085" y="1141"/>
      <point x="1038" y="1147"/>
      <point x="991" y="1147" type="curve" smooth="yes"/>
      <point x="904" y="1147"/>
      <point x="823" y="1126"/>
      <point x="752" y="1084" type="curve" smooth="yes"/>
      <point x="681" y="1042"/>
      <point x="623" y="981"/>
      <point x="578" y="901" type="curve"/>
      <point x="618" y="1120" type="line"/>
      <point x="434" y="1120" type="line"/>
      <point x="217" y="0" type="line"/>
      <point x="401" y="0" type="line"/>
      <point x="508" y="549" type="line" smooth="yes"/>
      <point x="533" y="679"/>
      <point x="586" y="789"/>
      <point x="663" y="864" type="curve" smooth="yes"/>
      <point x="740" y="939"/>
      <point x="838" y="977"/>
      <point x="947" y="977" type="curve" smooth="yes"/>
      <point x="994" y="977"/>
      <point x="1040" y="970"/>
      <point x="1080" y="955" type="curve" smooth="yes"/>
      <point x="1117" y="941"/>
      <point x="1154" y="918"/>
      <point x="1184" y="889" type="curve"/>
    </contour>
  </outline>
</glyph>
<glyph name="t" format="1">
  <advance width="1233"/>
  <unicode hex="0074"/>
  <note>
	t
  </note>
  <outline>
    <contour>
      <point x="768" y="1438" type="line"/>
      <point x="584" y="1438" type="line"/>
      <point x="522" y="1120" type="line"/>
      <point x="223" y="1120" type="line"/>
      <point x="195" y="977" type="line"/>
      <point x="494" y="977" type="line"/>
      <point x="375" y="369" type="line" smooth="yes"/>
      <point x="369" y="338"/>
      <point x="365" y="311"/>
      <point x="362" y="288" type="curve" smooth="yes"/>
      <point x="359" y="265"/>
      <point x="358" y="246"/>
      <point x="358" y="229" type="curve" smooth="yes"/>
      <point x="358" y="150"/>
      <point x="384" y="93"/>
      <point x="437" y="56" type="curve" smooth="yes"/>
      <point x="489" y="19"/>
      <point x="571" y="0"/>
      <point x="682" y="0" type="curve" smooth="yes"/>
      <point x="905" y="0" type="line"/>
      <point x="934" y="147" type="line"/>
      <point x="727" y="147" type="line" smooth="yes"/>
      <point x="659" y="147"/>
      <point x="612" y="156"/>
      <point x="586" y="174" type="curve" smooth="yes"/>
      <point x="560" y="191"/>
      <point x="547" y="222"/>
      <point x="547" y="266" type="curve" smooth="yes"/>
      <point x="547" y="281"/>
      <point x="548" y="297"/>
      <point x="550" y="314" type="curve" smooth="yes"/>
      <point x="552" y="331"/>
      <point x="555" y="349"/>
      <point x="559" y="369" type="curve" smooth="yes"/>
      <point x="678" y="977" type="line"/>
      <point x="1096" y="977" type="line"/>
      <point x="1124" y="1120" type="line"/>
      <point x="707" y="1120" type="line"/>
    </contour>
  </outline>
</glyph>
<glyph name="u" format="1">
  <advance width="1233"/>
  <unicode hex="0075"/>
  <note>
	u
  </note>
  <outline>
    <contour>
      <point x="477" y="-27"/>
      <point x="540" y="-12"/>
      <point x="602" y="22" type="curve" smooth="yes"/>
      <point x="661" y="54"/>
      <point x="715" y="103"/>
      <point x="764" y="168" type="curve"/>
      <point x="731" y="0" type="line"/>
      <point x="915" y="0" type="line"/>
      <point x="1133" y="1120" type="line"/>
      <point x="948" y="1120" type="line"/>
      <point x="825" y="487" type="line" smooth="yes"/>
      <point x="804" y="380"/>
      <point x="764" y="288"/>
      <point x="704" y="225" type="curve" smooth="yes"/>
      <point x="645" y="163"/>
      <point x="568" y="133"/>
      <point x="489" y="133" type="curve" smooth="yes"/>
      <point x="435" y="133"/>
      <point x="389" y="147"/>
      <point x="358" y="175" type="curve" smooth="yes"/>
      <point x="325" y="205"/>
      <point x="311" y="249"/>
      <point x="311" y="298" type="curve" smooth="yes"/>
      <point x="311" y="311"/>
      <point x="312" y="332"/>
      <point x="315" y="355" type="curve" smooth="yes"/>
      <point x="317" y="370"/>
      <point x="323" y="409"/>
      <point x="326" y="426" type="curve" smooth="yes"/>
      <point x="461" y="1120" type="line"/>
      <point x="276" y="1120" type="line"/>
      <point x="143" y="426" type="line" smooth="yes"/>
      <point x="137" y="393"/>
      <point x="134" y="372"/>
      <point x="130" y="332" type="curve" smooth="yes"/>
      <point x="127" y="301"/>
      <point x="125" y="272"/>
      <point x="125" y="248" type="curve" smooth="yes"/>
      <point x="125" y="167"/>
      <point x="149" y="96"/>
      <point x="201" y="46" type="curve" smooth="yes"/>
      <point x="252" y="-3"/>
      <point x="323" y="-27"/>
      <point x="409" y="-27" type="curve" smooth="yes"/>
    </contour>
  </outline>
</glyph>
<glyph name="v" format="1">
  <advance width="1233"/>
  <unicode hex="0076"/>
  <note>
	v
  </note>
  <outline>
    <contour>
      <point x="600" y="0" type="line"/>
      <point x="1214" y="1120" type="line"/>
      <point x="1016" y="1120" type="line"/>
      <point x="514" y="164" type="line"/>
      <point x="360" y="1120" type="line"/>
      <point x="182" y="1120" type="line"/>
      <point x="362" y="0" type="line"/>
    </contour>
  </outline>
</glyph>
<glyph name="x" format="1">
  <advance width="1233"/>
  <unicode hex="0078"/>
  <note>
	x
  </note>
  <outline>
    <contour>
      <point x="156" y="0" type="line"/>
      <point x="573" y="444" type="line"/>
      <point x="817" y="0" type="line"/>
      <point x="1014" y="0" type="line"/>
      <point x="696" y="573" type="line"/>
      <point x="1208" y="1120" type="line"/>
      <point x="983" y="1120" type="line"/>
      <point x="614" y="725" type="line"/>
      <point x="397" y="1120" type="line"/>
      <point x="201" y="1120" type="line"/>
      <point x="494" y="596" type="line"/>
      <point x="-70" y="0" type="line"/>
    </contour>
  </outline>
</glyph>
<glyph name="y" format="1">
  <advance width="1233"/>
  <unicode hex="0079"/>
  <note>
	y
  </note>
  <outline>
    <contour>
      <point x="1225" y="1120" type="line"/>
      <point x="1020" y="1120" type="line"/>
      <point x="537" y="258" type="line"/>
      <point x="365" y="1120" type="line"/>
      <point x="182" y="1120" type="line"/>
      <point x="399" y="18" type="line"/>
      <point x="356" y="-66" type="line" smooth="yes"/>
      <point x="319" y="-138"/>
      <point x="280" y="-191"/>
      <point x="238" y="-225" type="curve" smooth="yes"/>
      <point x="199" y="-257"/>
      <point x="155" y="-272"/>
      <point x="98" y="-272" type="curve" smooth="yes"/>
      <point x="-10" y="-272" type="line"/>
      <point x="-39" y="-426" type="line"/>
      <point x="109" y="-426" type="line" smooth="yes"/>
      <point x="173" y="-426"/>
      <point x="230" y="-414"/>
      <point x="280" y="-389" type="curve" smooth="yes"/>
      <point x="329" y="-364"/>
      <point x="375" y="-325"/>
      <point x="412" y="-276" type="curve" smooth="yes"/>
      <point x="452" y="-223"/>
      <point x="512" y="-119"/>
      <point x="621" y="72" type="curve" smooth="yes"/>
      <point x="687" y="188"/>
      <point x="754" y="305"/>
      <point x="786" y="360" type="curve" smooth="yes"/>
    </contour>
  </outline>
</glyph>
<glyph name="braceleft" format="1">
  <advance width="1233"/>
  <unicode hex="007B"/>
  <note>
	braceleft
  </note>
  <outline>
    <contour>
      <point x="777" y="-334" type="line"/>
      <point x="806" y="-190" type="line"/>
      <point x="728" y="-190" type="line" smooth="yes"/>
      <point x="663" y="-190"/>
      <point x="617" y="-181"/>
      <point x="588" y="-162" type="curve" smooth="yes"/>
      <point x="559" y="-143"/>
      <point x="545" y="-112"/>
      <point x="545" y="-70" type="curve"/>
      <point x="546" y="-62"/>
      <point x="545" y="-65"/>
      <point x="548" y="-20" type="curve" smooth="yes"/>
      <point x="549" y="-3"/>
      <point x="551" y="13"/>
      <point x="556" y="39" type="curve" smooth="yes"/>
      <point x="603" y="283" type="line" smooth="yes"/>
      <point x="609" y="315"/>
      <point x="609" y="310"/>
      <point x="614" y="353" type="curve" smooth="yes"/>
      <point x="618" y="386"/>
      <point x="618" y="393"/>
      <point x="617" y="410" type="curve"/>
      <point x="617" y="460"/>
      <point x="604" y="502"/>
      <point x="577" y="537" type="curve" smooth="yes"/>
      <point x="550" y="571"/>
      <point x="513" y="594"/>
      <point x="464" y="606" type="curve"/>
      <point x="538" y="621"/>
      <point x="595" y="652"/>
      <point x="635" y="700" type="curve" smooth="yes"/>
      <point x="679" y="753"/>
      <point x="708" y="833"/>
      <point x="728" y="932" type="curve" smooth="yes"/>
      <point x="779" y="1184" type="line" smooth="yes"/>
      <point x="798" y="1279"/>
      <point x="823" y="1345"/>
      <point x="856" y="1374" type="curve" smooth="yes"/>
      <point x="887" y="1401"/>
      <point x="940" y="1413"/>
      <point x="1032" y="1413" type="curve" smooth="yes"/>
      <point x="1039" y="1413" type="line"/>
      <point x="1117" y="1413" type="line"/>
      <point x="1146" y="1556" type="line"/>
      <point x="1064" y="1556" type="line" smooth="yes"/>
      <point x="973" y="1556"/>
      <point x="908" y="1551"/>
      <point x="863" y="1542" type="curve" smooth="yes"/>
      <point x="810" y="1531"/>
      <point x="775" y="1514"/>
      <point x="746" y="1493" type="curve" smooth="yes"/>
      <point x="709" y="1466"/>
      <point x="680" y="1430"/>
      <point x="656" y="1382" type="curve" smooth="yes"/>
      <point x="632" y="1335"/>
      <point x="612" y="1271"/>
      <point x="595" y="1188" type="curve" smooth="yes"/>
      <point x="545" y="944" type="line" smooth="yes"/>
      <point x="524" y="843"/>
      <point x="493" y="775"/>
      <point x="452" y="739" type="curve" smooth="yes"/>
      <point x="410" y="702"/>
      <point x="341" y="684"/>
      <point x="244" y="684" type="curve" smooth="yes"/>
      <point x="153" y="684" type="line"/>
      <point x="124" y="537" type="line"/>
      <point x="216" y="537" type="line" smooth="yes"/>
      <point x="291" y="537"/>
      <point x="345" y="525"/>
      <point x="378" y="500" type="curve" smooth="yes"/>
      <point x="411" y="475"/>
      <point x="427" y="437"/>
      <point x="427" y="372" type="curve" smooth="yes"/>
      <point x="427" y="339"/>
      <point x="423" y="315"/>
      <point x="417" y="282" type="curve" smooth="yes"/>
      <point x="416" y="279"/>
      <point x="417" y="277"/>
      <point x="414" y="270" type="curve"/>
      <point x="369" y="34" type="line" smooth="yes"/>
      <point x="366" y="19"/>
      <point x="363" y="1"/>
      <point x="358" y="-37" type="curve" smooth="yes"/>
      <point x="355" y="-60"/>
      <point x="354" y="-70"/>
      <point x="355" y="-89" type="curve"/>
      <point x="355" y="-102" type="line" smooth="yes"/>
      <point x="355" y="-184"/>
      <point x="382" y="-243"/>
      <point x="437" y="-280" type="curve" smooth="yes"/>
      <point x="491" y="-316"/>
      <point x="580" y="-334"/>
      <point x="705" y="-334" type="curve" smooth="yes"/>
    </contour>
  </outline>
</glyph>
<glyph name="braceright" format="1">
  <advance width="1233"/>
  <unicode hex="007D"/>
  <note>
	braceright
  </note>
  <outline>
    <contour>
      <point x="98" y="-334" type="line" smooth="yes"/>
      <point x="186" y="-334"/>
      <point x="253" y="-329"/>
      <point x="299" y="-319" type="curve" smooth="yes"/>
      <point x="345" y="-309"/>
      <point x="382" y="-294"/>
      <point x="415" y="-270" type="curve" smooth="yes"/>
      <point x="451" y="-244"/>
      <point x="481" y="-207"/>
      <point x="505" y="-160" type="curve" smooth="yes"/>
      <point x="529" y="-113"/>
      <point x="551" y="-48"/>
      <point x="567" y="35" type="curve" smooth="yes"/>
      <point x="614" y="279" type="line" smooth="yes"/>
      <point x="634" y="382"/>
      <point x="668" y="448"/>
      <point x="710" y="484" type="curve" smooth="yes"/>
      <point x="753" y="521"/>
      <point x="822" y="539"/>
      <point x="917" y="539" type="curve" smooth="yes"/>
      <point x="1008" y="539" type="line"/>
      <point x="1037" y="686" type="line"/>
      <point x="945" y="686" type="line" smooth="yes"/>
      <point x="870" y="686"/>
      <point x="817" y="698"/>
      <point x="784" y="723" type="curve" smooth="yes"/>
      <point x="751" y="748"/>
      <point x="735" y="788"/>
      <point x="735" y="849" type="curve" smooth="yes"/>
      <point x="735" y="875"/>
      <point x="738" y="907"/>
      <point x="745" y="940" type="curve"/>
      <point x="745" y="941"/>
      <point x="746" y="945"/>
      <point x="747" y="952" type="curve" smooth="yes"/>
      <point x="792" y="1188" type="line" smooth="yes"/>
      <point x="799" y="1222"/>
      <point x="800" y="1234"/>
      <point x="802" y="1259" type="curve" smooth="yes"/>
      <point x="805" y="1288"/>
      <point x="806" y="1302"/>
      <point x="806" y="1320" type="curve" smooth="yes"/>
      <point x="806" y="1417"/>
      <point x="777" y="1468"/>
      <point x="725" y="1502" type="curve" smooth="yes"/>
      <point x="673" y="1536"/>
      <point x="589" y="1556"/>
      <point x="456" y="1556" type="curve" smooth="yes"/>
      <point x="382" y="1556" type="line"/>
      <point x="356" y="1413" type="line"/>
      <point x="433" y="1413" type="line" smooth="yes"/>
      <point x="498" y="1413"/>
      <point x="545" y="1404"/>
      <point x="574" y="1385" type="curve" smooth="yes"/>
      <point x="602" y="1366"/>
      <point x="616" y="1335"/>
      <point x="616" y="1290" type="curve" smooth="yes"/>
      <point x="616" y="1278"/>
      <point x="615" y="1259"/>
      <point x="614" y="1243" type="curve" smooth="yes"/>
      <point x="614" y="1239"/>
      <point x="606" y="1188"/>
      <point x="605" y="1183" type="curve" smooth="yes"/>
      <point x="558" y="940" type="line" smooth="yes"/>
      <point x="552" y="909"/>
      <point x="551" y="898"/>
      <point x="548" y="870" type="curve" smooth="yes"/>
      <point x="545" y="846"/>
      <point x="544" y="829"/>
      <point x="544" y="813" type="curve" smooth="yes"/>
      <point x="544" y="757"/>
      <point x="557" y="720"/>
      <point x="584" y="686" type="curve" smooth="yes"/>
      <point x="611" y="652"/>
      <point x="649" y="629"/>
      <point x="698" y="616" type="curve"/>
      <point x="623" y="603"/>
      <point x="566" y="572"/>
      <point x="526" y="524" type="curve" smooth="yes"/>
      <point x="481" y="470"/>
      <point x="453" y="390"/>
      <point x="433" y="291" type="curve" smooth="yes"/>
      <point x="382" y="39" type="line" smooth="yes"/>
      <point x="360" y="-70"/>
      <point x="334" y="-125"/>
      <point x="305" y="-150" type="curve" smooth="yes"/>
      <point x="274" y="-177"/>
      <point x="213" y="-190"/>
      <point x="122" y="-190" type="curve" smooth="yes"/>
      <point x="44" y="-190" type="line"/>
      <point x="16" y="-334" type="line"/>
    </contour>
  </outline>
</glyph>
<glyph name="asciitilde" format="1">
  <advance width="1233"/>
  <unicode hex="007E"/>
  <note>
	asciitilde
  </note>
  <outline>
    <contour>
      <point x="1145" y="780" type="line"/>
      <point x="1096" y="739"/>
      <point x="1048" y="708"/>
      <point x="1003" y="688" type="curve" smooth="yes"/>
      <point x="956" y="667"/>
      <point x="912" y="657"/>
      <point x="865" y="657" type="curve" smooth="yes"/>
      <point x="802" y="657"/>
      <point x="732" y="675"/>
      <point x="655" y="712" type="curve" smooth="yes"/>
      <point x="642" y="718"/>
      <point x="644" y="718"/>
      <point x="623" y="727" type="curve" smooth="yes"/>
      <point x="570" y="750"/>
      <point x="524" y="763"/>
      <point x="497" y="769" type="curve" smooth="yes"/>
      <point x="465" y="776"/>
      <point x="432" y="780"/>
      <point x="395" y="780" type="curve" smooth="yes"/>
      <point x="340" y="780"/>
      <point x="288" y="771"/>
      <point x="239" y="753" type="curve" smooth="yes"/>
      <point x="190" y="735"/>
      <point x="140" y="706"/>
      <point x="88" y="666" type="curve"/>
      <point x="88" y="492" type="line"/>
      <point x="139" y="536"/>
      <point x="191" y="568"/>
      <point x="232" y="585" type="curve" smooth="yes"/>
      <point x="275" y="603"/>
      <point x="328" y="614"/>
      <point x="382" y="614" type="curve" smooth="yes"/>
      <point x="415" y="614"/>
      <point x="449" y="610"/>
      <point x="484" y="602" type="curve" smooth="yes"/>
      <point x="518" y="594"/>
      <point x="561" y="579"/>
      <point x="612" y="557" type="curve"/>
      <point x="615" y="556"/>
      <point x="615" y="555"/>
      <point x="645" y="543" type="curve" smooth="yes"/>
      <point x="715" y="514"/>
      <point x="770" y="492"/>
      <point x="850" y="492" type="curve" smooth="yes"/>
      <point x="907" y="492"/>
      <point x="955" y="503"/>
      <point x="999" y="520" type="curve" smooth="yes"/>
      <point x="1048" y="539"/>
      <point x="1095" y="567"/>
      <point x="1145" y="606" type="curve"/>
    </contour>
  </outline>
</glyph>
<glyph name="exclamdown" format="1">
  <advance width="1233"/>
  <unicode hex="00A1"/>
  <note>
	exclamdown
  </note>
  <outline>
    <contour>
      <point x="834" y="1239" type="line"/>
      <point x="883" y="1493" type="line"/>
      <point x="680" y="1493" type="line"/>
      <point x="631" y="1239" type="line"/>
    </contour>
    <contour>
      <point x="592" y="0" type="line"/>
      <point x="719" y="655" type="line"/>
      <point x="768" y="1012" type="line"/>
      <point x="606" y="1012" type="line"/>
      <point x="518" y="655" type="line"/>
      <point x="389" y="0" type="line"/>
    </contour>
  </outline>
</glyph>
<glyph name="cent" format="1">
  <advance width="1233"/>
  <unicode hex="00A2"/>
  <note>
	cent
  </note>
  <outline>
    <contour>
      <point x="557" y="-313" type="line"/>
      <point x="612" y="-27" type="line"/>
      <point x="654" y="-24"/>
      <point x="704" y="-17"/>
      <point x="744" y="-7" type="curve" smooth="yes"/>
      <point x="771" y="0"/>
      <point x="833" y="18"/>
      <point x="887" y="41" type="curve"/>
      <point x="920" y="213" type="line"/>
      <point x="870" y="186"/>
      <point x="822" y="166"/>
      <point x="776" y="151" type="curve" smooth="yes"/>
      <point x="729" y="136"/>
      <point x="684" y="126"/>
      <point x="641" y="123" type="curve"/>
      <point x="811" y="993" type="line"/>
      <point x="859" y="989"/>
      <point x="904" y="980"/>
      <point x="945" y="965" type="curve" smooth="yes"/>
      <point x="986" y="950"/>
      <point x="1022" y="930"/>
      <point x="1055" y="905" type="curve"/>
      <point x="1087" y="1077" type="line"/>
      <point x="1046" y="1098"/>
      <point x="1004" y="1114"/>
      <point x="963" y="1125" type="curve" smooth="yes"/>
      <point x="921" y="1136"/>
      <point x="880" y="1143"/>
      <point x="840" y="1145" type="curve"/>
      <point x="895" y="1432" type="line"/>
      <point x="793" y="1432" type="line"/>
      <point x="737" y="1145" type="line"/>
      <point x="680" y="1141"/>
      <point x="625" y="1130"/>
      <point x="574" y="1112" type="curve" smooth="yes"/>
      <point x="526" y="1095"/>
      <point x="475" y="1070"/>
      <point x="425" y="1036" type="curve" smooth="yes"/>
      <point x="342" y="979"/>
      <point x="262" y="894"/>
      <point x="204" y="778" type="curve" smooth="yes"/>
      <point x="150" y="670"/>
      <point x="123" y="551"/>
      <point x="123" y="434" type="curve" smooth="yes"/>
      <point x="123" y="302"/>
      <point x="157" y="193"/>
      <point x="225" y="113" type="curve" smooth="yes"/>
      <point x="293" y="33"/>
      <point x="393" y="-15"/>
      <point x="510" y="-27" type="curve"/>
      <point x="455" y="-313" type="line"/>
    </contour>
    <contour>
      <point x="462" y="136"/>
      <point x="411" y="168"/>
      <point x="374" y="216" type="curve" smooth="yes"/>
      <point x="335" y="267"/>
      <point x="315" y="331"/>
      <point x="315" y="431" type="curve" smooth="yes"/>
      <point x="315" y="569"/>
      <point x="353" y="701"/>
      <point x="430" y="812" type="curve" smooth="yes"/>
      <point x="506" y="921"/>
      <point x="599" y="981"/>
      <point x="709" y="991" type="curve"/>
      <point x="541" y="127" type="line"/>
    </contour>
  </outline>
</glyph>
<glyph name="sterling" format="1">
  <advance width="1233"/>
  <unicode hex="00A3"/>
  <note>
	sterling
  </note>
  <outline>
    <contour>
      <point x="1229" y="1462" type="line"/>
      <point x="1181" y="1481"/>
      <point x="1135" y="1496"/>
      <point x="1092" y="1506" type="curve" smooth="yes"/>
      <point x="1049" y="1515"/>
      <point x="1007" y="1520"/>
      <point x="967" y="1520" type="curve" smooth="yes"/>
      <point x="815" y="1520"/>
      <point x="695" y="1479"/>
      <point x="608" y="1398" type="curve" smooth="yes"/>
      <point x="521" y="1317"/>
      <point x="460" y="1189"/>
      <point x="426" y="1016" type="curve" smooth="yes"/>
      <point x="379" y="778" type="line"/>
      <point x="180" y="778" type="line"/>
      <point x="154" y="635" type="line"/>
      <point x="352" y="635" type="line"/>
      <point x="262" y="170" type="line"/>
      <point x="25" y="170" type="line"/>
      <point x="-8" y="0" type="line"/>
      <point x="965" y="0" type="line"/>
      <point x="997" y="170" type="line"/>
      <point x="461" y="170" type="line"/>
      <point x="551" y="635" type="line"/>
      <point x="922" y="635" type="line"/>
      <point x="950" y="778" type="line"/>
      <point x="580" y="778" type="line"/>
      <point x="623" y="995" type="line" smooth="yes"/>
      <point x="648" y="1129"/>
      <point x="687" y="1224"/>
      <point x="738" y="1281" type="curve" smooth="yes"/>
      <point x="789" y="1338"/>
      <point x="861" y="1366"/>
      <point x="954" y="1366" type="curve" smooth="yes"/>
      <point x="996" y="1366"/>
      <point x="1037" y="1359"/>
      <point x="1078" y="1344" type="curve" smooth="yes"/>
      <point x="1118" y="1329"/>
      <point x="1156" y="1307"/>
      <point x="1192" y="1278" type="curve"/>
    </contour>
  </outline>
</glyph>
<glyph name="currency" format="1">
  <advance width="1233"/>
  <unicode hex="00A4"/>
  <note>
	currency
  </note>
  <outline>
    <contour>
      <point x="868" y="582"/>
      <point x="847" y="531"/>
      <point x="806" y="489" type="curve" smooth="yes"/>
      <point x="765" y="447"/>
      <point x="714" y="426"/>
      <point x="653" y="426" type="curve" smooth="yes"/>
      <point x="593" y="426"/>
      <point x="542" y="447"/>
      <point x="501" y="489" type="curve" smooth="yes"/>
      <point x="459" y="530"/>
      <point x="438" y="582"/>
      <point x="438" y="643" type="curve" smooth="yes"/>
      <point x="438" y="703"/>
      <point x="459" y="754"/>
      <point x="501" y="795" type="curve" smooth="yes"/>
      <point x="542" y="836"/>
      <point x="593" y="856"/>
      <point x="653" y="856" type="curve" smooth="yes"/>
      <point x="714" y="856"/>
      <point x="765" y="836"/>
      <point x="806" y="795" type="curve" smooth="yes"/>
      <point x="847" y="754"/>
      <point x="868" y="703"/>
      <point x="868" y="643" type="curve" smooth="yes"/>
    </contour>
    <contour>
      <point x="844" y="924" type="line"/>
      <point x="810" y="944"/>
      <point x="777" y="959"/>
      <point x="746" y="969" type="curve" smooth="yes"/>
      <point x="715" y="978"/>
      <point x="684" y="983"/>
      <point x="653" y="983" type="curve" smooth="yes"/>
      <point x="619" y="983"/>
      <point x="587" y="978"/>
      <point x="557" y="968" type="curve" smooth="yes"/>
      <point x="526" y="958"/>
      <point x="496" y="943"/>
      <point x="465" y="922" type="curve"/>
      <point x="299" y="1090" type="line"/>
      <point x="205" y="995" type="line"/>
      <point x="373" y="829" type="line"/>
      <point x="352" y="799"/>
      <point x="337" y="769"/>
      <point x="327" y="738" type="curve" smooth="yes"/>
      <point x="316" y="707"/>
      <point x="311" y="674"/>
      <point x="311" y="641" type="curve" smooth="yes"/>
      <point x="311" y="610"/>
      <point x="316" y="580"/>
      <point x="326" y="549" type="curve" smooth="yes"/>
      <point x="335" y="518"/>
      <point x="350" y="485"/>
      <point x="371" y="451" type="curve"/>
      <point x="205" y="285" type="line"/>
      <point x="297" y="195" type="line"/>
      <point x="461" y="358" type="line"/>
      <point x="493" y="339"/>
      <point x="525" y="325"/>
      <point x="557" y="316" type="curve" smooth="yes"/>
      <point x="589" y="306"/>
      <point x="621" y="301"/>
      <point x="653" y="301" type="curve" smooth="yes"/>
      <point x="686" y="301"/>
      <point x="718" y="306"/>
      <point x="749" y="316" type="curve" smooth="yes"/>
      <point x="779" y="326"/>
      <point x="809" y="341"/>
      <point x="840" y="362" type="curve"/>
      <point x="1006" y="195" type="line"/>
      <point x="1100" y="289" type="line"/>
      <point x="932" y="455" type="line"/>
      <point x="953" y="485"/>
      <point x="968" y="515"/>
      <point x="978" y="546" type="curve" smooth="yes"/>
      <point x="988" y="576"/>
      <point x="993" y="608"/>
      <point x="993" y="641" type="curve" smooth="yes"/>
      <point x="993" y="673"/>
      <point x="988" y="705"/>
      <point x="979" y="736" type="curve" smooth="yes"/>
      <point x="969" y="767"/>
      <point x="954" y="798"/>
      <point x="934" y="831" type="curve"/>
      <point x="1100" y="997" type="line"/>
      <point x="1010" y="1090" type="line"/>
    </contour>
  </outline>
</glyph>
<glyph name="section" format="1">
  <advance width="1233"/>
  <unicode hex="00A7"/>
  <note>
	section
  </note>
  <outline>
    <contour>
      <point x="1069" y="1454" type="line"/>
      <point x="1019" y="1473"/>
      <point x="973" y="1487"/>
      <point x="921" y="1497" type="curve" smooth="yes"/>
      <point x="872" y="1506"/>
      <point x="826" y="1511"/>
      <point x="779" y="1511" type="curve" smooth="yes"/>
      <point x="659" y="1511"/>
      <point x="550" y="1479"/>
      <point x="470" y="1415" type="curve" smooth="yes"/>
      <point x="392" y="1352"/>
      <point x="350" y="1265"/>
      <point x="350" y="1167" type="curve" smooth="yes"/>
      <point x="350" y="1130"/>
      <point x="356" y="1102"/>
      <point x="369" y="1074" type="curve" smooth="yes"/>
      <point x="381" y="1047"/>
      <point x="401" y="1022"/>
      <point x="428" y="997" type="curve"/>
      <point x="349" y="955"/>
      <point x="288" y="904"/>
      <point x="246" y="848" type="curve" smooth="yes"/>
      <point x="201" y="788"/>
      <point x="182" y="727"/>
      <point x="182" y="667" type="curve" smooth="yes"/>
      <point x="182" y="619"/>
      <point x="194" y="576"/>
      <point x="222" y="538" type="curve" smooth="yes"/>
      <point x="249" y="501"/>
      <point x="303" y="455"/>
      <point x="387" y="397" type="curve" smooth="yes"/>
      <point x="461" y="346" type="line"/>
      <point x="474" y="337" type="line" smooth="yes"/>
      <point x="601" y="249"/>
      <point x="657" y="182"/>
      <point x="657" y="110" type="curve" smooth="yes"/>
      <point x="657" y="65"/>
      <point x="635" y="21"/>
      <point x="591" y="-10" type="curve" smooth="yes"/>
      <point x="547" y="-41"/>
      <point x="484" y="-57"/>
      <point x="415" y="-57" type="curve" smooth="yes"/>
      <point x="369" y="-57"/>
      <point x="327" y="-50"/>
      <point x="279" y="-37" type="curve" smooth="yes"/>
      <point x="231" y="-24"/>
      <point x="182" y="-6"/>
      <point x="133" y="18" type="curve"/>
      <point x="100" y="-143" type="line"/>
      <point x="152" y="-161"/>
      <point x="212" y="-178"/>
      <point x="260" y="-187" type="curve" smooth="yes"/>
      <point x="302" y="-195"/>
      <point x="358" y="-201"/>
      <point x="411" y="-201" type="curve" smooth="yes"/>
      <point x="534" y="-201"/>
      <point x="647" y="-168"/>
      <point x="728" y="-103" type="curve" smooth="yes"/>
      <point x="808" y="-38"/>
      <point x="848" y="51"/>
      <point x="848" y="148" type="curve" smooth="yes"/>
      <point x="848" y="191"/>
      <point x="840" y="226"/>
      <point x="828" y="252" type="curve" smooth="yes"/>
      <point x="814" y="282"/>
      <point x="793" y="309"/>
      <point x="766" y="332" type="curve"/>
      <point x="838" y="365"/>
      <point x="900" y="412"/>
      <point x="946" y="475" type="curve" smooth="yes"/>
      <point x="990" y="535"/>
      <point x="1012" y="601"/>
      <point x="1012" y="663" type="curve" smooth="yes"/>
      <point x="1012" y="710"/>
      <point x="999" y="755"/>
      <point x="970" y="794" type="curve" smooth="yes"/>
      <point x="941" y="833"/>
      <point x="886" y="881"/>
      <point x="803" y="938" type="curve" smooth="yes"/>
      <point x="717" y="997" type="line" smooth="yes"/>
      <point x="701" y="1008"/>
      <point x="685" y="1018"/>
      <point x="669" y="1029" type="curve" smooth="yes"/>
      <point x="578" y="1089"/>
      <point x="535" y="1146"/>
      <point x="535" y="1203" type="curve" smooth="yes"/>
      <point x="535" y="1244"/>
      <point x="557" y="1286"/>
      <point x="601" y="1319" type="curve" smooth="yes"/>
      <point x="645" y="1352"/>
      <point x="703" y="1368"/>
      <point x="767" y="1368" type="curve" smooth="yes"/>
      <point x="806" y="1368"/>
      <point x="849" y="1362"/>
      <point x="897" y="1348" type="curve" smooth="yes"/>
      <point x="945" y="1334"/>
      <point x="991" y="1314"/>
      <point x="1036" y="1290" type="curve"/>
    </contour>
    <contour>
      <point x="559" y="479" type="line" smooth="yes"/>
      <point x="467" y="539"/>
      <point x="417" y="581"/>
      <point x="391" y="610" type="curve" smooth="yes"/>
      <point x="362" y="642"/>
      <point x="348" y="675"/>
      <point x="348" y="711" type="curve" smooth="yes"/>
      <point x="348" y="746"/>
      <point x="362" y="783"/>
      <point x="391" y="820" type="curve" smooth="yes"/>
      <point x="419" y="856"/>
      <point x="461" y="893"/>
      <point x="516" y="928" type="curve"/>
      <point x="596" y="877" type="line" smooth="yes"/>
      <point x="687" y="819"/>
      <point x="761" y="764"/>
      <point x="797" y="727" type="curve" smooth="yes"/>
      <point x="829" y="694"/>
      <point x="850" y="656"/>
      <point x="850" y="616" type="curve" smooth="yes"/>
      <point x="850" y="582"/>
      <point x="835" y="545"/>
      <point x="806" y="508" type="curve" smooth="yes"/>
      <point x="777" y="471"/>
      <point x="734" y="435"/>
      <point x="678" y="401" type="curve"/>
    </contour>
  </outline>
</glyph>
<glyph name="dieresis" format="1">
  <advance width="1233"/>
  <unicode hex="00A8"/>
  <note>
	dieresis
  </note>
  <outline>
    <contour>
      <point x="612" y="1350" type="line" smooth="yes"/>
      <point x="630" y="1350"/>
      <point x="641" y="1359"/>
      <point x="644" y="1377" type="curve" smooth="yes"/>
      <point x="672" y="1519" type="line" smooth="yes"/>
      <point x="676" y="1539"/>
      <point x="665" y="1552"/>
      <point x="645" y="1552" type="curve" smooth="yes"/>
      <point x="502" y="1552" type="line" smooth="yes"/>
      <point x="484" y="1552"/>
      <point x="473" y="1543"/>
      <point x="470" y="1525" type="curve" smooth="yes"/>
      <point x="442" y="1383" type="line" smooth="yes"/>
      <point x="438" y="1363"/>
      <point x="449" y="1350"/>
      <point x="469" y="1350" type="curve" smooth="yes"/>
    </contour>
    <contour>
      <point x="1003" y="1350" type="line" smooth="yes"/>
      <point x="1021" y="1350"/>
      <point x="1032" y="1359"/>
      <point x="1035" y="1377" type="curve" smooth="yes"/>
      <point x="1063" y="1519" type="line" smooth="yes"/>
      <point x="1067" y="1539"/>
      <point x="1056" y="1552"/>
      <point x="1036" y="1552" type="curve" smooth="yes"/>
      <point x="893" y="1552" type="line" smooth="yes"/>
      <point x="875" y="1552"/>
      <point x="864" y="1543"/>
      <point x="861" y="1525" type="curve" smooth="yes"/>
      <point x="833" y="1383" type="line" smooth="yes"/>
      <point x="829" y="1363"/>
      <point x="840" y="1350"/>
      <point x="860" y="1350" type="curve" smooth="yes"/>
    </contour>
  </outline>
</glyph>
<glyph name="copyright" format="1">
  <advance width="1233"/>
  <unicode hex="00A9"/>
  <note>
	copyright
  </note>
  <outline>
    <contour>
      <point x="864" y="1071" type="line"/>
      <point x="824" y="1088"/>
      <point x="792" y="1098"/>
      <point x="755" y="1105" type="curve" smooth="yes"/>
      <point x="717" y="1112"/>
      <point x="678" y="1116"/>
      <point x="638" y="1116" type="curve" smooth="yes"/>
      <point x="521" y="1116"/>
      <point x="423" y="1082"/>
      <point x="354" y="1016" type="curve" smooth="yes"/>
      <point x="286" y="950"/>
      <point x="250" y="854"/>
      <point x="250" y="741" type="curve" smooth="yes"/>
      <point x="250" y="627"/>
      <point x="287" y="533"/>
      <point x="353" y="469" type="curve" smooth="yes"/>
      <point x="419" y="405"/>
      <point x="516" y="369"/>
      <point x="638" y="369" type="curve" smooth="yes"/>
      <point x="679" y="369"/>
      <point x="717" y="373"/>
      <point x="755" y="380" type="curve" smooth="yes"/>
      <point x="793" y="387"/>
      <point x="829" y="399"/>
      <point x="864" y="414" type="curve"/>
      <point x="864" y="518" type="line"/>
      <point x="833" y="502"/>
      <point x="803" y="490"/>
      <point x="763" y="480" type="curve" smooth="yes"/>
      <point x="730" y="472"/>
      <point x="698" y="467"/>
      <point x="657" y="467" type="curve" smooth="yes"/>
      <point x="567" y="467"/>
      <point x="502" y="491"/>
      <point x="455" y="538" type="curve" smooth="yes"/>
      <point x="408" y="585"/>
      <point x="385" y="655"/>
      <point x="385" y="739" type="curve" smooth="yes"/>
      <point x="385" y="827"/>
      <point x="410" y="898"/>
      <point x="453" y="945" type="curve" smooth="yes"/>
      <point x="500" y="996"/>
      <point x="565" y="1018"/>
      <point x="641" y="1018" type="curve" smooth="yes"/>
      <point x="674" y="1018"/>
      <point x="714" y="1014"/>
      <point x="751" y="1005" type="curve" smooth="yes"/>
      <point x="788" y="996"/>
      <point x="825" y="982"/>
      <point x="864" y="963" type="curve"/>
    </contour>
    <contour>
      <point x="687" y="1255"/>
      <point x="753" y="1243"/>
      <point x="814" y="1218" type="curve" smooth="yes"/>
      <point x="874" y="1193"/>
      <point x="929" y="1156"/>
      <point x="979" y="1106" type="curve" smooth="yes"/>
      <point x="1028" y="1057"/>
      <point x="1066" y="1002"/>
      <point x="1092" y="939" type="curve" smooth="yes"/>
      <point x="1117" y="878"/>
      <point x="1130" y="813"/>
      <point x="1130" y="741" type="curve" smooth="yes"/>
      <point x="1130" y="672"/>
      <point x="1118" y="606"/>
      <point x="1093" y="546" type="curve" smooth="yes"/>
      <point x="1068" y="485"/>
      <point x="1024" y="423"/>
      <point x="979" y="378" type="curve" smooth="yes"/>
      <point x="933" y="332"/>
      <point x="876" y="292"/>
      <point x="812" y="265" type="curve" smooth="yes"/>
      <point x="752" y="240"/>
      <point x="688" y="227"/>
      <point x="617" y="227" type="curve" smooth="yes"/>
      <point x="545" y="227"/>
      <point x="481" y="240"/>
      <point x="421" y="265" type="curve" smooth="yes"/>
      <point x="357" y="292"/>
      <point x="298" y="334"/>
      <point x="254" y="378" type="curve" smooth="yes"/>
      <point x="212" y="420"/>
      <point x="170" y="478"/>
      <point x="141" y="546" type="curve" smooth="yes"/>
      <point x="115" y="608"/>
      <point x="102" y="670"/>
      <point x="102" y="742" type="curve" smooth="yes"/>
      <point x="102" y="813"/>
      <point x="115" y="877"/>
      <point x="141" y="939" type="curve" smooth="yes"/>
      <point x="166" y="1000"/>
      <point x="204" y="1056"/>
      <point x="254" y="1106" type="curve" smooth="yes"/>
      <point x="304" y="1156"/>
      <point x="359" y="1193"/>
      <point x="420" y="1218" type="curve" smooth="yes"/>
      <point x="480" y="1243"/>
      <point x="545" y="1255"/>
      <point x="616" y="1255" type="curve" smooth="yes"/>
    </contour>
    <contour>
      <point x="532" y="1358"/>
      <point x="454" y="1343"/>
      <point x="381" y="1313" type="curve" smooth="yes"/>
      <point x="311" y="1284"/>
      <point x="244" y="1241"/>
      <point x="182" y="1178" type="curve" smooth="yes"/>
      <point x="121" y="1116"/>
      <point x="76" y="1048"/>
      <point x="46" y="977" type="curve" smooth="yes"/>
      <point x="15" y="904"/>
      <point x="0" y="824"/>
      <point x="0" y="741" type="curve" smooth="yes"/>
      <point x="0" y="657"/>
      <point x="15" y="579"/>
      <point x="45" y="508" type="curve" smooth="yes"/>
      <point x="76" y="434"/>
      <point x="125" y="363"/>
      <point x="181" y="307" type="curve" smooth="yes"/>
      <point x="239" y="249"/>
      <point x="309" y="202"/>
      <point x="382" y="171" type="curve" smooth="yes"/>
      <point x="454" y="141"/>
      <point x="528" y="125"/>
      <point x="616" y="125" type="curve" smooth="yes"/>
      <point x="700" y="125"/>
      <point x="778" y="140"/>
      <point x="851" y="171" type="curve" smooth="yes"/>
      <point x="927" y="203"/>
      <point x="997" y="252"/>
      <point x="1052" y="307" type="curve" smooth="yes"/>
      <point x="1111" y="366"/>
      <point x="1158" y="437"/>
      <point x="1188" y="508" type="curve" smooth="yes"/>
      <point x="1218" y="579"/>
      <point x="1233" y="658"/>
      <point x="1233" y="742" type="curve" smooth="yes"/>
      <point x="1233" y="825"/>
      <point x="1218" y="904"/>
      <point x="1187" y="977" type="curve" smooth="yes"/>
      <point x="1158" y="1045"/>
      <point x="1113" y="1115"/>
      <point x="1051" y="1178" type="curve" smooth="yes"/>
      <point x="995" y="1235"/>
      <point x="927" y="1282"/>
      <point x="852" y="1313" type="curve" smooth="yes"/>
      <point x="779" y="1343"/>
      <point x="701" y="1358"/>
      <point x="616" y="1358" type="curve" smooth="yes"/>
    </contour>
  </outline>
</glyph>
<glyph name="ordfeminine" format="1">
  <advance width="1233"/>
  <unicode hex="00AA"/>
  <note>
	ordfeminine
  </note>
  <outline>
    <contour>
      <point x="870" y="1104" type="line"/>
      <point x="864" y="1075" type="line" smooth="yes"/>
      <point x="846" y="992"/>
      <point x="812" y="929"/>
      <point x="762" y="884" type="curve" smooth="yes"/>
      <point x="711" y="839"/>
      <point x="649" y="817"/>
      <point x="575" y="817" type="curve" smooth="yes"/>
      <point x="535" y="817"/>
      <point x="503" y="828"/>
      <point x="479" y="850" type="curve" smooth="yes"/>
      <point x="454" y="872"/>
      <point x="442" y="901"/>
      <point x="442" y="938" type="curve" smooth="yes"/>
      <point x="442" y="995"/>
      <point x="465" y="1037"/>
      <point x="512" y="1064" type="curve" smooth="yes"/>
      <point x="558" y="1091"/>
      <point x="630" y="1104"/>
      <point x="729" y="1104" type="curve" smooth="yes"/>
    </contour>
    <contour>
      <point x="1026" y="1165" type="line" smooth="yes"/>
      <point x="1029" y="1184"/>
      <point x="1032" y="1203"/>
      <point x="1034" y="1220" type="curve" smooth="yes"/>
      <point x="1035" y="1237"/>
      <point x="1036" y="1253"/>
      <point x="1036" y="1268" type="curve" smooth="yes"/>
      <point x="1036" y="1353"/>
      <point x="1012" y="1416"/>
      <point x="964" y="1458" type="curve" smooth="yes"/>
      <point x="915" y="1499"/>
      <point x="842" y="1520"/>
      <point x="743" y="1520" type="curve" smooth="yes"/>
      <point x="700" y="1520"/>
      <point x="654" y="1515"/>
      <point x="605" y="1506" type="curve" smooth="yes"/>
      <point x="556" y="1497"/>
      <point x="507" y="1483"/>
      <point x="457" y="1464" type="curve"/>
      <point x="434" y="1337" type="line"/>
      <point x="482" y="1360"/>
      <point x="529" y="1378"/>
      <point x="574" y="1389" type="curve" smooth="yes"/>
      <point x="619" y="1400"/>
      <point x="665" y="1405"/>
      <point x="711" y="1405" type="curve" smooth="yes"/>
      <point x="775" y="1405"/>
      <point x="822" y="1394"/>
      <point x="851" y="1372" type="curve" smooth="yes"/>
      <point x="880" y="1350"/>
      <point x="895" y="1315"/>
      <point x="895" y="1268" type="curve" smooth="yes"/>
      <point x="895" y="1259"/>
      <point x="894" y="1246"/>
      <point x="892" y="1228" type="curve" smooth="yes"/>
      <point x="891" y="1223"/>
      <point x="891" y="1220"/>
      <point x="891" y="1219" type="curve"/>
      <point x="717" y="1219" type="line" smooth="yes"/>
      <point x="584" y="1219"/>
      <point x="481" y="1193"/>
      <point x="407" y="1140" type="curve" smooth="yes"/>
      <point x="332" y="1087"/>
      <point x="295" y="1013"/>
      <point x="295" y="920" type="curve" smooth="yes"/>
      <point x="295" y="852"/>
      <point x="316" y="798"/>
      <point x="359" y="758" type="curve" smooth="yes"/>
      <point x="402" y="718"/>
      <point x="459" y="698"/>
      <point x="532" y="698" type="curve" smooth="yes"/>
      <point x="589" y="698"/>
      <point x="643" y="709"/>
      <point x="692" y="732" type="curve" smooth="yes"/>
      <point x="741" y="755"/>
      <point x="784" y="787"/>
      <point x="819" y="829" type="curve"/>
      <point x="797" y="717" type="line"/>
      <point x="940" y="717" type="line"/>
    </contour>
    <contour>
      <point x="246" y="592" type="line"/>
      <point x="223" y="469" type="line"/>
      <point x="899" y="469" type="line"/>
      <point x="922" y="592" type="line"/>
    </contour>
  </outline>
</glyph>
<glyph name="guillemetleft" format="1">
  <advance width="1233"/>
  <unicode hex="00AB"/>
  <note>
	guillemotleft
  </note>
  <outline>
    <contour>
      <point x="983" y="317" type="line"/>
      <point x="733" y="584" type="line"/>
      <point x="1083" y="848" type="line"/>
      <point x="1126" y="1059" type="line"/>
      <point x="577" y="641" type="line"/>
      <point x="561" y="559" type="line"/>
      <point x="948" y="141" type="line"/>
    </contour>
    <contour>
      <point x="516" y="317" type="line"/>
      <point x="266" y="584" type="line"/>
      <point x="616" y="848" type="line"/>
      <point x="659" y="1059" type="line"/>
      <point x="110" y="641" type="line"/>
      <point x="94" y="559" type="line"/>
      <point x="481" y="141" type="line"/>
    </contour>
  </outline>
</glyph>
<glyph name="registered" format="1">
  <advance width="1233"/>
  <unicode hex="00AE"/>
  <note>
	registered
  </note>
  <outline>
    <contour>
      <point x="700" y="125"/>
      <point x="778" y="140"/>
      <point x="851" y="171" type="curve" smooth="yes"/>
      <point x="927" y="203"/>
      <point x="997" y="252"/>
      <point x="1052" y="307" type="curve" smooth="yes"/>
      <point x="1112" y="367"/>
      <point x="1159" y="439"/>
      <point x="1188" y="508" type="curve" smooth="yes"/>
      <point x="1218" y="579"/>
      <point x="1233" y="658"/>
      <point x="1233" y="742" type="curve" smooth="yes"/>
      <point x="1233" y="825"/>
      <point x="1218" y="904"/>
      <point x="1187" y="977" type="curve" smooth="yes"/>
      <point x="1160" y="1040"/>
      <point x="1116" y="1112"/>
      <point x="1051" y="1178" type="curve" smooth="yes"/>
      <point x="995" y="1235"/>
      <point x="927" y="1282"/>
      <point x="852" y="1313" type="curve" smooth="yes"/>
      <point x="779" y="1343"/>
      <point x="701" y="1358"/>
      <point x="616" y="1358" type="curve" smooth="yes"/>
      <point x="532" y="1358"/>
      <point x="454" y="1343"/>
      <point x="381" y="1313" type="curve" smooth="yes"/>
      <point x="305" y="1282"/>
      <point x="239" y="1236"/>
      <point x="182" y="1178" type="curve" smooth="yes"/>
      <point x="122" y="1117"/>
      <point x="76" y="1048"/>
      <point x="46" y="977" type="curve" smooth="yes"/>
      <point x="15" y="904"/>
      <point x="0" y="825"/>
      <point x="0" y="741" type="curve" smooth="yes"/>
      <point x="0" y="653"/>
      <point x="16" y="579"/>
      <point x="46" y="507" type="curve" smooth="yes"/>
      <point x="77" y="434"/>
      <point x="123" y="365"/>
      <point x="181" y="307" type="curve" smooth="yes"/>
      <point x="241" y="247"/>
      <point x="311" y="201"/>
      <point x="382" y="171" type="curve" smooth="yes"/>
      <point x="454" y="141"/>
      <point x="528" y="125"/>
      <point x="616" y="125" type="curve" smooth="yes"/>
    </contour>
    <contour>
      <point x="545" y="227"/>
      <point x="481" y="240"/>
      <point x="421" y="265" type="curve" smooth="yes"/>
      <point x="357" y="292"/>
      <point x="305" y="328"/>
      <point x="254" y="379" type="curve" smooth="yes"/>
      <point x="215" y="418"/>
      <point x="173" y="470"/>
      <point x="141" y="546" type="curve" smooth="yes"/>
      <point x="115" y="608"/>
      <point x="102" y="670"/>
      <point x="102" y="742" type="curve" smooth="yes"/>
      <point x="102" y="813"/>
      <point x="115" y="877"/>
      <point x="141" y="939" type="curve" smooth="yes"/>
      <point x="166" y="1000"/>
      <point x="204" y="1056"/>
      <point x="254" y="1106" type="curve" smooth="yes"/>
      <point x="304" y="1156"/>
      <point x="359" y="1193"/>
      <point x="420" y="1218" type="curve" smooth="yes"/>
      <point x="480" y="1243"/>
      <point x="545" y="1255"/>
      <point x="616" y="1255" type="curve" smooth="yes"/>
      <point x="687" y="1255"/>
      <point x="753" y="1243"/>
      <point x="814" y="1218" type="curve" smooth="yes"/>
      <point x="874" y="1193"/>
      <point x="929" y="1156"/>
      <point x="979" y="1106" type="curve" smooth="yes"/>
      <point x="1028" y="1057"/>
      <point x="1066" y="1002"/>
      <point x="1092" y="939" type="curve" smooth="yes"/>
      <point x="1117" y="878"/>
      <point x="1130" y="813"/>
      <point x="1130" y="741" type="curve" smooth="yes"/>
      <point x="1130" y="672"/>
      <point x="1118" y="606"/>
      <point x="1093" y="546" type="curve" smooth="yes"/>
      <point x="1068" y="485"/>
      <point x="1024" y="423"/>
      <point x="979" y="378" type="curve" smooth="yes"/>
      <point x="932" y="331"/>
      <point x="874" y="291"/>
      <point x="812" y="265" type="curve" smooth="yes"/>
      <point x="752" y="240"/>
      <point x="688" y="227"/>
      <point x="617" y="227" type="curve" smooth="yes"/>
    </contour>
    <contour>
      <point x="492" y="406" type="line"/>
      <point x="492" y="702" type="line"/>
      <point x="547" y="702" type="line" smooth="yes"/>
      <point x="577" y="702"/>
      <point x="605" y="694"/>
      <point x="623" y="681" type="curve" smooth="yes"/>
      <point x="642" y="668"/>
      <point x="670" y="632"/>
      <point x="702" y="580" type="curve" smooth="yes"/>
      <point x="809" y="406" type="line"/>
      <point x="952" y="406" type="line"/>
      <point x="838" y="592" type="line" smooth="yes"/>
      <point x="820" y="621"/>
      <point x="788" y="665"/>
      <point x="771" y="685" type="curve" smooth="yes"/>
      <point x="753" y="706"/>
      <point x="736" y="720"/>
      <point x="723" y="723" type="curve"/>
      <point x="776" y="732"/>
      <point x="818" y="753"/>
      <point x="847" y="784" type="curve" smooth="yes"/>
      <point x="876" y="815"/>
      <point x="891" y="853"/>
      <point x="891" y="903" type="curve" smooth="yes"/>
      <point x="891" y="967"/>
      <point x="867" y="1018"/>
      <point x="819" y="1051" type="curve" smooth="yes"/>
      <point x="771" y="1084"/>
      <point x="698" y="1100"/>
      <point x="600" y="1100" type="curve" smooth="yes"/>
      <point x="362" y="1100" type="line"/>
      <point x="362" y="406" type="line"/>
    </contour>
    <contour>
      <point x="492" y="1016" type="line"/>
      <point x="594" y="1016" type="line" smooth="yes"/>
      <point x="654" y="1016"/>
      <point x="696" y="1007"/>
      <point x="721" y="990" type="curve" smooth="yes"/>
      <point x="748" y="971"/>
      <point x="758" y="938"/>
      <point x="758" y="900" type="curve" smooth="yes"/>
      <point x="758" y="859"/>
      <point x="746" y="829"/>
      <point x="721" y="811" type="curve" smooth="yes"/>
      <point x="696" y="793"/>
      <point x="654" y="784"/>
      <point x="594" y="784" type="curve" smooth="yes"/>
      <point x="492" y="784" type="line"/>
    </contour>
  </outline>
</glyph>
<glyph name="macron" format="1">
  <advance width="1233"/>
  <unicode hex="00AF"/>
  <note>
	macron
  </note>
  <outline>
    <contour>
      <point x="469" y="1526" type="line"/>
      <point x="440" y="1378" type="line"/>
      <point x="1038" y="1378" type="line"/>
      <point x="1067" y="1526" type="line"/>
    </contour>
  </outline>
</glyph>
<glyph name="twosuperior" format="1">
  <advance width="1233"/>
  <unicode hex="00B2"/>
  <note>
	twosuperior
  </note>
  <outline>
    <contour>
      <point x="492" y="782" type="line"/>
      <point x="662" y="918" type="line"/>
      <point x="682" y="933" type="line" smooth="yes"/>
      <point x="888" y="1095"/>
      <point x="991" y="1222"/>
      <point x="991" y="1315" type="curve" smooth="yes"/>
      <point x="991" y="1378"/>
      <point x="968" y="1428"/>
      <point x="923" y="1465" type="curve" smooth="yes"/>
      <point x="878" y="1502"/>
      <point x="816" y="1520"/>
      <point x="737" y="1520" type="curve" smooth="yes"/>
      <point x="702" y="1520"/>
      <point x="663" y="1516"/>
      <point x="622" y="1507" type="curve" smooth="yes"/>
      <point x="580" y="1498"/>
      <point x="531" y="1483"/>
      <point x="475" y="1464" type="curve"/>
      <point x="451" y="1337" type="line"/>
      <point x="506" y="1364"/>
      <point x="554" y="1384"/>
      <point x="595" y="1397" type="curve" smooth="yes"/>
      <point x="636" y="1409"/>
      <point x="673" y="1415"/>
      <point x="707" y="1415" type="curve" smooth="yes"/>
      <point x="749" y="1415"/>
      <point x="782" y="1405"/>
      <point x="807" y="1385" type="curve" smooth="yes"/>
      <point x="832" y="1364"/>
      <point x="844" y="1337"/>
      <point x="844" y="1303" type="curve" smooth="yes"/>
      <point x="844" y="1233"/>
      <point x="740" y="1114"/>
      <point x="531" y="945" type="curve" smooth="yes"/>
      <point x="498" y="918" type="line"/>
      <point x="328" y="778" type="line"/>
      <point x="307" y="668" type="line"/>
      <point x="864" y="668" type="line"/>
      <point x="887" y="782" type="line"/>
    </contour>
  </outline>
</glyph>
<glyph name="threesuperior" format="1">
  <advance width="1233"/>
  <unicode hex="00B3"/>
  <note>
	threesuperior
  </note>
  <outline>
    <contour>
      <point x="837" y="1128"/>
      <point x="888" y="1153"/>
      <point x="926" y="1192" type="curve" smooth="yes"/>
      <point x="964" y="1231"/>
      <point x="983" y="1276"/>
      <point x="983" y="1329" type="curve" smooth="yes"/>
      <point x="983" y="1390"/>
      <point x="961" y="1437"/>
      <point x="918" y="1470" type="curve" smooth="yes"/>
      <point x="874" y="1503"/>
      <point x="812" y="1520"/>
      <point x="731" y="1520" type="curve" smooth="yes"/>
      <point x="694" y="1520"/>
      <point x="656" y="1517"/>
      <point x="615" y="1511" type="curve" smooth="yes"/>
      <point x="574" y="1505"/>
      <point x="530" y="1496"/>
      <point x="483" y="1485" type="curve"/>
      <point x="461" y="1370" type="line"/>
      <point x="501" y="1385"/>
      <point x="538" y="1396"/>
      <point x="572" y="1403" type="curve" smooth="yes"/>
      <point x="605" y="1410"/>
      <point x="636" y="1413"/>
      <point x="664" y="1413" type="curve" smooth="yes"/>
      <point x="721" y="1413"/>
      <point x="764" y="1405"/>
      <point x="793" y="1388" type="curve" smooth="yes"/>
      <point x="822" y="1371"/>
      <point x="836" y="1345"/>
      <point x="836" y="1311" type="curve" smooth="yes"/>
      <point x="836" y="1268"/>
      <point x="816" y="1234"/>
      <point x="777" y="1207" type="curve" smooth="yes"/>
      <point x="738" y="1180"/>
      <point x="686" y="1167"/>
      <point x="621" y="1167" type="curve" smooth="yes"/>
      <point x="549" y="1167" type="line"/>
      <point x="528" y="1061" type="line"/>
      <point x="600" y="1061" type="line" smooth="yes"/>
      <point x="659" y="1061"/>
      <point x="703" y="1050"/>
      <point x="732" y="1029" type="curve" smooth="yes"/>
      <point x="760" y="1008"/>
      <point x="774" y="975"/>
      <point x="774" y="930" type="curve" smooth="yes"/>
      <point x="774" y="878"/>
      <point x="752" y="837"/>
      <point x="709" y="806" type="curve" smooth="yes"/>
      <point x="666" y="775"/>
      <point x="607" y="760"/>
      <point x="532" y="760" type="curve" smooth="yes"/>
      <point x="499" y="760"/>
      <point x="465" y="764"/>
      <point x="430" y="773" type="curve" smooth="yes"/>
      <point x="395" y="782"/>
      <point x="356" y="796"/>
      <point x="311" y="815" type="curve"/>
      <point x="287" y="694" type="line"/>
      <point x="326" y="681"/>
      <point x="367" y="671"/>
      <point x="410" y="664" type="curve" smooth="yes"/>
      <point x="452" y="657"/>
      <point x="495" y="653"/>
      <point x="539" y="653" type="curve" smooth="yes"/>
      <point x="656" y="653"/>
      <point x="749" y="679"/>
      <point x="818" y="732" type="curve" smooth="yes"/>
      <point x="887" y="785"/>
      <point x="922" y="855"/>
      <point x="922" y="942" type="curve" smooth="yes"/>
      <point x="922" y="989"/>
      <point x="909" y="1028"/>
      <point x="883" y="1059" type="curve" smooth="yes"/>
      <point x="857" y="1089"/>
      <point x="820" y="1108"/>
      <point x="772" y="1116" type="curve"/>
    </contour>
  </outline>
</glyph>
<glyph name="acute" format="1">
  <advance width="1233"/>
  <unicode hex="00B4"/>
  <note>
	acute
  </note>
  <outline>
    <contour>
      <point x="731" y="1262" type="line"/>
      <point x="1126" y="1638" type="line"/>
      <point x="907" y="1638" type="line"/>
      <point x="575" y="1262" type="line"/>
    </contour>
  </outline>
</glyph>
<glyph name="mu" format="1">
  <advance width="1233"/>
  <unicode hex="00B5"/>
  <note>
	mu
  </note>
  <outline>
    <contour>
      <point x="-39" y="-426" type="line"/>
      <point x="137" y="-426" type="line"/>
      <point x="246" y="137" type="line"/>
      <point x="267" y="82"/>
      <point x="299" y="40"/>
      <point x="340" y="13" type="curve" smooth="yes"/>
      <point x="381" y="-15"/>
      <point x="433" y="-29"/>
      <point x="494" y="-29" type="curve" smooth="yes"/>
      <point x="559" y="-29"/>
      <point x="615" y="-16"/>
      <point x="662" y="9" type="curve" smooth="yes"/>
      <point x="708" y="34"/>
      <point x="749" y="74"/>
      <point x="784" y="129" type="curve"/>
      <point x="784" y="80"/>
      <point x="797" y="42"/>
      <point x="824" y="14" type="curve" smooth="yes"/>
      <point x="850" y="-15"/>
      <point x="885" y="-29"/>
      <point x="930" y="-29" type="curve" smooth="yes"/>
      <point x="952" y="-29"/>
      <point x="975" y="-25"/>
      <point x="1000" y="-18" type="curve" smooth="yes"/>
      <point x="1025" y="-10"/>
      <point x="1050" y="1"/>
      <point x="1077" y="16" type="curve"/>
      <point x="1106" y="164" type="line"/>
      <point x="1085" y="155"/>
      <point x="1070" y="149"/>
      <point x="1059" y="146" type="curve" smooth="yes"/>
      <point x="1048" y="143"/>
      <point x="1040" y="141"/>
      <point x="1034" y="141" type="curve" smooth="yes"/>
      <point x="1018" y="141"/>
      <point x="1006" y="146"/>
      <point x="998" y="157" type="curve" smooth="yes"/>
      <point x="989" y="168"/>
      <point x="985" y="183"/>
      <point x="985" y="203" type="curve" smooth="yes"/>
      <point x="985" y="210"/>
      <point x="986" y="218"/>
      <point x="987" y="227" type="curve" smooth="yes"/>
      <point x="988" y="236"/>
      <point x="989" y="246"/>
      <point x="991" y="258" type="curve" smooth="yes"/>
      <point x="1159" y="1120" type="line"/>
      <point x="973" y="1120" type="line"/>
      <point x="846" y="467" type="line" smooth="yes"/>
      <point x="824" y="354"/>
      <point x="786" y="269"/>
      <point x="731" y="214" type="curve" smooth="yes"/>
      <point x="676" y="159"/>
      <point x="603" y="131"/>
      <point x="512" y="131" type="curve" smooth="yes"/>
      <point x="444" y="131"/>
      <point x="392" y="147"/>
      <point x="356" y="180" type="curve" smooth="yes"/>
      <point x="319" y="212"/>
      <point x="301" y="258"/>
      <point x="301" y="319" type="curve" smooth="yes"/>
      <point x="301" y="332"/>
      <point x="302" y="348"/>
      <point x="304" y="366" type="curve" smooth="yes"/>
      <point x="306" y="384"/>
      <point x="309" y="403"/>
      <point x="313" y="424" type="curve" smooth="yes"/>
      <point x="449" y="1120" type="line"/>
      <point x="262" y="1120" type="line"/>
    </contour>
  </outline>
</glyph>
<glyph name="uni00B5" format="1">
  <advance width="1233"/>
  <unicode hex="00B5"/>
  <note>
	mu
  </note>
  <outline>
    <contour>
      <point x="127" y="-426" type="line"/>
      <point x="236" y="137" type="line"/>
      <point x="257" y="82"/>
      <point x="288" y="41"/>
      <point x="330" y="13" type="curve" smooth="yes"/>
      <point x="371" y="-15"/>
      <point x="422" y="-29"/>
      <point x="486" y="-29" type="curve" smooth="yes"/>
      <point x="548" y="-29"/>
      <point x="605" y="-16"/>
      <point x="652" y="9" type="curve" smooth="yes"/>
      <point x="698" y="34"/>
      <point x="739" y="74"/>
      <point x="774" y="129" type="curve"/>
      <point x="774" y="75"/>
      <point x="789" y="41"/>
      <point x="814" y="14" type="curve" smooth="yes"/>
      <point x="842" y="-16"/>
      <point x="876" y="-29"/>
      <point x="917" y="-29" type="curve" smooth="yes"/>
      <point x="940" y="-29"/>
      <point x="967" y="-25"/>
      <point x="990" y="-18" type="curve" smooth="yes"/>
      <point x="1008" y="-13"/>
      <point x="1042" y="2"/>
      <point x="1067" y="16" type="curve"/>
      <point x="1096" y="164" type="line"/>
      <point x="1076" y="155"/>
      <point x="1056" y="148"/>
      <point x="1049" y="146" type="curve" smooth="yes"/>
      <point x="1039" y="143"/>
      <point x="1030" y="141"/>
      <point x="1022" y="141" type="curve" smooth="yes"/>
      <point x="1006" y="141"/>
      <point x="995" y="148"/>
      <point x="988" y="157" type="curve" smooth="yes"/>
      <point x="979" y="168"/>
      <point x="975" y="184"/>
      <point x="975" y="202" type="curve" smooth="yes"/>
      <point x="975" y="211"/>
      <point x="976" y="218"/>
      <point x="977" y="227" type="curve" smooth="yes"/>
      <point x="977" y="229"/>
      <point x="980" y="253"/>
      <point x="981" y="258" type="curve" smooth="yes"/>
      <point x="1149" y="1120" type="line"/>
      <point x="963" y="1120" type="line"/>
      <point x="836" y="467" type="line" smooth="yes"/>
      <point x="813" y="348"/>
      <point x="773" y="266"/>
      <point x="721" y="214" type="curve" smooth="yes"/>
      <point x="666" y="159"/>
      <point x="592" y="131"/>
      <point x="503" y="131" type="curve" smooth="yes"/>
      <point x="443" y="131"/>
      <point x="385" y="144"/>
      <point x="345" y="180" type="curve" smooth="yes"/>
      <point x="306" y="215"/>
      <point x="291" y="266"/>
      <point x="291" y="319" type="curve" smooth="yes"/>
      <point x="291" y="333"/>
      <point x="292" y="348"/>
      <point x="294" y="366" type="curve" smooth="yes"/>
      <point x="296" y="385"/>
      <point x="300" y="409"/>
      <point x="303" y="424" type="curve" smooth="yes"/>
      <point x="439" y="1120" type="line"/>
      <point x="252" y="1120" type="line"/>
      <point x="-49" y="-426" type="line"/>
    </contour>
  </outline>
</glyph>
<glyph name="paragraph" format="1">
  <advance width="1233"/>
  <unicode hex="00B6"/>
  <note>
	paragraph
  </note>
  <outline>
    <contour>
      <point x="735" y="1493" type="line" smooth="yes"/>
      <point x="559" y="1493"/>
      <point x="413" y="1446"/>
      <point x="298" y="1353" type="curve" smooth="yes"/>
      <point x="183" y="1260"/>
      <point x="125" y="1143"/>
      <point x="125" y="1004" type="curve" smooth="yes"/>
      <point x="125" y="897"/>
      <point x="159" y="811"/>
      <point x="227" y="748" type="curve" smooth="yes"/>
      <point x="295" y="685"/>
      <point x="388" y="652"/>
      <point x="506" y="649" type="curve"/>
      <point x="342" y="-197" type="line"/>
      <point x="483" y="-197" type="line"/>
      <point x="786" y="1370" type="line"/>
      <point x="977" y="1370" type="line"/>
      <point x="674" y="-197" type="line"/>
      <point x="813" y="-197" type="line"/>
      <point x="1141" y="1493" type="line"/>
    </contour>
  </outline>
</glyph>
<glyph name="onesuperior" format="1">
  <advance width="1233"/>
  <unicode hex="00B9"/>
  <note>
	onesuperior
  </note>
  <outline>
    <contour>
      <point x="901" y="668" type="line"/>
      <point x="922" y="778" type="line"/>
      <point x="717" y="778" type="line"/>
      <point x="858" y="1503" type="line"/>
      <point x="721" y="1503" type="line"/>
      <point x="483" y="1464" type="line"/>
      <point x="461" y="1348" type="line"/>
      <point x="692" y="1389" type="line"/>
      <point x="575" y="778" type="line"/>
      <point x="369" y="778" type="line"/>
      <point x="348" y="668" type="line"/>
    </contour>
  </outline>
</glyph>
<glyph name="ordmasculine" format="1">
  <advance width="1233"/>
  <unicode hex="00BA"/>
  <note>
	ordmasculine
  </note>
  <outline>
    <contour>
      <point x="694" y="698"/>
      <point x="751" y="711"/>
      <point x="805" y="737" type="curve" smooth="yes"/>
      <point x="858" y="763"/>
      <point x="905" y="801"/>
      <point x="946" y="850" type="curve" smooth="yes"/>
      <point x="983" y="894"/>
      <point x="1012" y="945"/>
      <point x="1033" y="1004" type="curve" smooth="yes"/>
      <point x="1054" y="1063"/>
      <point x="1065" y="1121"/>
      <point x="1065" y="1180" type="curve" smooth="yes"/>
      <point x="1065" y="1285"/>
      <point x="1036" y="1368"/>
      <point x="979" y="1429" type="curve" smooth="yes"/>
      <point x="921" y="1490"/>
      <point x="842" y="1520"/>
      <point x="741" y="1520" type="curve" smooth="yes"/>
      <point x="681" y="1520"/>
      <point x="624" y="1507"/>
      <point x="570" y="1481" type="curve" smooth="yes"/>
      <point x="516" y="1455"/>
      <point x="469" y="1417"/>
      <point x="428" y="1368" type="curve" smooth="yes"/>
      <point x="391" y="1323"/>
      <point x="361" y="1271"/>
      <point x="340" y="1212" type="curve" smooth="yes"/>
      <point x="318" y="1153"/>
      <point x="307" y="1094"/>
      <point x="307" y="1036" type="curve" smooth="yes"/>
      <point x="307" y="931"/>
      <point x="336" y="849"/>
      <point x="394" y="789" type="curve" smooth="yes"/>
      <point x="452" y="728"/>
      <point x="532" y="698"/>
      <point x="633" y="698" type="curve" smooth="yes"/>
    </contour>
    <contour>
      <point x="463" y="1139"/>
      <point x="489" y="1226"/>
      <point x="541" y="1298" type="curve" smooth="yes"/>
      <point x="592" y="1369"/>
      <point x="654" y="1405"/>
      <point x="725" y="1405" type="curve" smooth="yes"/>
      <point x="783" y="1405"/>
      <point x="829" y="1385"/>
      <point x="862" y="1345" type="curve" smooth="yes"/>
      <point x="895" y="1305"/>
      <point x="911" y="1250"/>
      <point x="911" y="1180" type="curve" smooth="yes"/>
      <point x="911" y="1079"/>
      <point x="885" y="993"/>
      <point x="833" y="921" type="curve" smooth="yes"/>
      <point x="781" y="849"/>
      <point x="720" y="813"/>
      <point x="649" y="813" type="curve" smooth="yes"/>
      <point x="591" y="813"/>
      <point x="546" y="833"/>
      <point x="513" y="873" type="curve" smooth="yes"/>
      <point x="480" y="913"/>
      <point x="463" y="968"/>
      <point x="463" y="1038" type="curve" smooth="yes"/>
    </contour>
    <contour>
      <point x="246" y="592" type="line"/>
      <point x="223" y="469" type="line"/>
      <point x="899" y="469" type="line"/>
      <point x="922" y="592" type="line"/>
    </contour>
  </outline>
</glyph>
<glyph name="guillemetright" format="1">
  <advance width="1233"/>
  <unicode hex="00BB"/>
  <note>
	guillemotright
  </note>
  <outline>
    <contour>
      <point x="1080" y="559" type="line"/>
      <point x="1094" y="641" type="line"/>
      <point x="707" y="1059" type="line"/>
      <point x="672" y="883" type="line"/>
      <point x="922" y="614" type="line"/>
      <point x="572" y="352" type="line"/>
      <point x="529" y="141" type="line"/>
    </contour>
    <contour>
      <point x="613" y="559" type="line"/>
      <point x="627" y="641" type="line"/>
      <point x="240" y="1059" type="line"/>
      <point x="205" y="883" type="line"/>
      <point x="455" y="614" type="line"/>
      <point x="105" y="352" type="line"/>
      <point x="62" y="141" type="line"/>
    </contour>
  </outline>
</glyph>
<glyph name="guillemotright" format="1">
  <advance width="1233"/>
  <unicode hex="00BB"/>
  <note>
	guillemotright
  </note>
  <outline>
    <contour>
      <point x="82" y="141" type="line"/>
      <point x="633" y="559" type="line"/>
      <point x="647" y="641" type="line"/>
      <point x="260" y="1059" type="line"/>
      <point x="225" y="883" type="line"/>
      <point x="475" y="614" type="line"/>
      <point x="125" y="352" type="line"/>
    </contour>
    <contour>
      <point x="549" y="141" type="line"/>
      <point x="1100" y="559" type="line"/>
      <point x="1114" y="641" type="line"/>
      <point x="727" y="1059" type="line"/>
      <point x="692" y="883" type="line"/>
      <point x="942" y="614" type="line"/>
      <point x="592" y="352" type="line"/>
    </contour>
  </outline>
</glyph>
<glyph name="onequarter" format="1">
  <advance width="1233"/>
  <unicode hex="00BC"/>
  <note>
	onequarter
  </note>
  <outline>
    <contour>
      <point x="111" y="934" type="line"/>
      <point x="90" y="824" type="line"/>
      <point x="643" y="824" type="line"/>
      <point x="664" y="934" type="line"/>
      <point x="459" y="934" type="line"/>
      <point x="600" y="1659" type="line"/>
      <point x="463" y="1659" type="line"/>
      <point x="225" y="1620" type="line"/>
      <point x="203" y="1504" type="line"/>
      <point x="434" y="1545" type="line"/>
      <point x="317" y="934" type="line"/>
    </contour>
    <contour>
      <point x="70" y="504" type="line"/>
      <point x="1133" y="762" type="line"/>
      <point x="1106" y="870" type="line"/>
      <point x="47" y="612" type="line"/>
    </contour>
    <contour>
      <point x="901" y="565" type="line"/>
      <point x="436" y="35" type="line"/>
      <point x="413" y="-86" type="line"/>
      <point x="799" y="-86" type="line"/>
      <point x="764" y="-270" type="line"/>
      <point x="903" y="-270" type="line"/>
      <point x="936" y="-86" type="line"/>
      <point x="1055" y="-86" type="line"/>
      <point x="1075" y="25" type="line"/>
      <point x="958" y="25" type="line"/>
      <point x="1063" y="565" type="line"/>
    </contour>
    <contour>
      <point x="897" y="416" type="line"/>
      <point x="821" y="25" type="line"/>
      <point x="555" y="25" type="line"/>
    </contour>
  </outline>
</glyph>
<glyph name="onehalf" format="1">
  <advance width="1233"/>
  <unicode hex="00BD"/>
  <note>
	onehalf
  </note>
  <outline>
    <contour>
      <point x="111" y="934" type="line"/>
      <point x="90" y="824" type="line"/>
      <point x="643" y="824" type="line"/>
      <point x="664" y="934" type="line"/>
      <point x="459" y="934" type="line"/>
      <point x="600" y="1659" type="line"/>
      <point x="463" y="1659" type="line"/>
      <point x="225" y="1620" type="line"/>
      <point x="203" y="1504" type="line"/>
      <point x="434" y="1545" type="line"/>
      <point x="317" y="934" type="line"/>
    </contour>
    <contour>
      <point x="70" y="504" type="line"/>
      <point x="1133" y="762" type="line"/>
      <point x="1106" y="870" type="line"/>
      <point x="47" y="612" type="line"/>
    </contour>
    <contour>
      <point x="646" y="-156" type="line"/>
      <point x="816" y="-20" type="line"/>
      <point x="836" y="-5" type="line" smooth="yes"/>
      <point x="1042" y="157"/>
      <point x="1145" y="284"/>
      <point x="1145" y="377" type="curve" smooth="yes"/>
      <point x="1145" y="440"/>
      <point x="1122" y="490"/>
      <point x="1077" y="527" type="curve" smooth="yes"/>
      <point x="1032" y="564"/>
      <point x="970" y="582"/>
      <point x="891" y="582" type="curve" smooth="yes"/>
      <point x="856" y="582"/>
      <point x="817" y="578"/>
      <point x="776" y="569" type="curve" smooth="yes"/>
      <point x="734" y="560"/>
      <point x="685" y="545"/>
      <point x="629" y="526" type="curve"/>
      <point x="605" y="399" type="line"/>
      <point x="660" y="426"/>
      <point x="708" y="446"/>
      <point x="749" y="459" type="curve" smooth="yes"/>
      <point x="790" y="471"/>
      <point x="827" y="477"/>
      <point x="861" y="477" type="curve" smooth="yes"/>
      <point x="903" y="477"/>
      <point x="936" y="467"/>
      <point x="961" y="447" type="curve" smooth="yes"/>
      <point x="986" y="426"/>
      <point x="998" y="399"/>
      <point x="998" y="365" type="curve" smooth="yes"/>
      <point x="998" y="295"/>
      <point x="894" y="176"/>
      <point x="685" y="7" type="curve" smooth="yes"/>
      <point x="652" y="-20" type="line"/>
      <point x="482" y="-160" type="line"/>
      <point x="461" y="-270" type="line"/>
      <point x="1018" y="-270" type="line"/>
      <point x="1041" y="-156" type="line"/>
    </contour>
  </outline>
</glyph>
<glyph name="threequarters" format="1">
  <advance width="1233"/>
  <unicode hex="00BE"/>
  <note>
	threequarters
  </note>
  <outline>
    <contour>
      <point x="429" y="809"/>
      <point x="522" y="835"/>
      <point x="591" y="888" type="curve" smooth="yes"/>
      <point x="660" y="941"/>
      <point x="695" y="1012"/>
      <point x="695" y="1095" type="curve" smooth="yes"/>
      <point x="695" y="1147"/>
      <point x="681" y="1186"/>
      <point x="656" y="1215" type="curve" smooth="yes"/>
      <point x="630" y="1245"/>
      <point x="593" y="1264"/>
      <point x="545" y="1272" type="curve"/>
      <point x="612" y="1284"/>
      <point x="663" y="1311"/>
      <point x="699" y="1348" type="curve" smooth="yes"/>
      <point x="737" y="1387"/>
      <point x="756" y="1431"/>
      <point x="756" y="1486" type="curve" smooth="yes"/>
      <point x="756" y="1545"/>
      <point x="734" y="1593"/>
      <point x="691" y="1626" type="curve" smooth="yes"/>
      <point x="645" y="1661"/>
      <point x="580" y="1676"/>
      <point x="503" y="1676" type="curve" smooth="yes"/>
      <point x="468" y="1676"/>
      <point x="429" y="1673"/>
      <point x="388" y="1667" type="curve" smooth="yes"/>
      <point x="347" y="1661"/>
      <point x="303" y="1652"/>
      <point x="256" y="1641" type="curve"/>
      <point x="234" y="1526" type="line"/>
      <point x="274" y="1541"/>
      <point x="311" y="1552"/>
      <point x="345" y="1559" type="curve" smooth="yes"/>
      <point x="378" y="1566"/>
      <point x="408" y="1569"/>
      <point x="440" y="1569" type="curve" smooth="yes"/>
      <point x="493" y="1569"/>
      <point x="537" y="1561"/>
      <point x="566" y="1544" type="curve" smooth="yes"/>
      <point x="595" y="1527"/>
      <point x="609" y="1501"/>
      <point x="609" y="1466" type="curve" smooth="yes"/>
      <point x="609" y="1424"/>
      <point x="589" y="1390"/>
      <point x="550" y="1363" type="curve" smooth="yes"/>
      <point x="511" y="1336"/>
      <point x="459" y="1323"/>
      <point x="394" y="1323" type="curve" smooth="yes"/>
      <point x="322" y="1323" type="line"/>
      <point x="301" y="1217" type="line"/>
      <point x="373" y="1217" type="line" smooth="yes"/>
      <point x="432" y="1217"/>
      <point x="476" y="1206"/>
      <point x="505" y="1185" type="curve" smooth="yes"/>
      <point x="533" y="1164"/>
      <point x="547" y="1130"/>
      <point x="547" y="1087" type="curve" smooth="yes"/>
      <point x="547" y="1036"/>
      <point x="527" y="994"/>
      <point x="482" y="962" type="curve" smooth="yes"/>
      <point x="439" y="931"/>
      <point x="379" y="916"/>
      <point x="308" y="916" type="curve" smooth="yes"/>
      <point x="271" y="916"/>
      <point x="238" y="920"/>
      <point x="203" y="929" type="curve" smooth="yes"/>
      <point x="168" y="938"/>
      <point x="129" y="952"/>
      <point x="84" y="971" type="curve"/>
      <point x="60" y="850" type="line"/>
      <point x="102" y="836"/>
      <point x="140" y="827"/>
      <point x="183" y="820" type="curve" smooth="yes"/>
      <point x="225" y="813"/>
      <point x="268" y="809"/>
      <point x="313" y="809" type="curve" smooth="yes"/>
    </contour>
    <contour>
      <point x="903" y="-270" type="line"/>
      <point x="936" y="-86" type="line"/>
      <point x="1055" y="-86" type="line"/>
      <point x="1075" y="25" type="line"/>
      <point x="958" y="25" type="line"/>
      <point x="1063" y="565" type="line"/>
      <point x="901" y="565" type="line"/>
      <point x="436" y="35" type="line"/>
      <point x="413" y="-86" type="line"/>
      <point x="799" y="-86" type="line"/>
      <point x="764" y="-270" type="line"/>
    </contour>
    <contour>
      <point x="897" y="416" type="line"/>
      <point x="821" y="25" type="line"/>
      <point x="555" y="25" type="line"/>
    </contour>
    <contour>
      <point x="1133" y="762" type="line"/>
      <point x="1106" y="870" type="line"/>
      <point x="47" y="612" type="line"/>
      <point x="70" y="504" type="line"/>
    </contour>
  </outline>
</glyph>
<glyph name="questiondown" format="1">
  <advance width="1233"/>
  <unicode hex="00BF"/>
  <note>
	questiondown
  </note>
  <outline>
    <contour>
      <point x="655" y="1092" type="line"/>
      <point x="635" y="969" type="line" smooth="yes"/>
      <point x="625" y="912"/>
      <point x="610" y="866"/>
      <point x="590" y="832" type="curve" smooth="yes"/>
      <point x="569" y="798"/>
      <point x="531" y="758"/>
      <point x="475" y="711" type="curve" smooth="yes"/>
      <point x="371" y="625" type="line" smooth="yes"/>
      <point x="284" y="553"/>
      <point x="225" y="490"/>
      <point x="192" y="437" type="curve" smooth="yes"/>
      <point x="159" y="383"/>
      <point x="143" y="325"/>
      <point x="143" y="262" type="curve" smooth="yes"/>
      <point x="143" y="178"/>
      <point x="175" y="109"/>
      <point x="240" y="55" type="curve" smooth="yes"/>
      <point x="305" y="0"/>
      <point x="388" y="-27"/>
      <point x="489" y="-27" type="curve" smooth="yes"/>
      <point x="556" y="-27"/>
      <point x="624" y="-18"/>
      <point x="692" y="1" type="curve" smooth="yes"/>
      <point x="759" y="20"/>
      <point x="829" y="48"/>
      <point x="901" y="86" type="curve"/>
      <point x="938" y="274" type="line"/>
      <point x="867" y="230"/>
      <point x="799" y="196"/>
      <point x="734" y="173" type="curve" smooth="yes"/>
      <point x="669" y="149"/>
      <point x="610" y="137"/>
      <point x="557" y="137" type="curve" smooth="yes"/>
      <point x="490" y="137"/>
      <point x="439" y="151"/>
      <point x="402" y="178" type="curve" smooth="yes"/>
      <point x="365" y="205"/>
      <point x="346" y="244"/>
      <point x="346" y="293" type="curve" smooth="yes"/>
      <point x="346" y="330"/>
      <point x="358" y="368"/>
      <point x="382" y="405" type="curve" smooth="yes"/>
      <point x="405" y="442"/>
      <point x="445" y="484"/>
      <point x="502" y="532" type="curve" smooth="yes"/>
      <point x="608" y="621" type="line" smooth="yes"/>
      <point x="682" y="683"/>
      <point x="732" y="736"/>
      <point x="759" y="780" type="curve" smooth="yes"/>
      <point x="786" y="823"/>
      <point x="805" y="876"/>
      <point x="817" y="938" type="curve" smooth="yes"/>
      <point x="846" y="1092" type="line"/>
    </contour>
    <contour>
      <point x="881" y="1239" type="line"/>
      <point x="930" y="1493" type="line"/>
      <point x="727" y="1493" type="line"/>
      <point x="678" y="1239" type="line"/>
    </contour>
  </outline>
</glyph>
<glyph name="Atilde" format="1">
  <advance width="1233"/>
  <unicode hex="00C3"/>
  <note>
	Atilde
  </note>
  <outline>
    <contour>
      <point x="111" y="0" type="line"/>
      <point x="295" y="389" type="line"/>
      <point x="815" y="389" type="line"/>
      <point x="850" y="0" type="line"/>
      <point x="1051" y="0" type="line"/>
      <point x="885" y="1493" type="line"/>
      <point x="639" y="1493" type="line"/>
      <point x="-106" y="0" type="line"/>
    </contour>
    <contour>
      <point x="735" y="1325" type="line"/>
      <point x="801" y="551" type="line"/>
      <point x="371" y="551" type="line"/>
    </contour>
    <contour>
      <point x="567" y="1627" type="line"/>
      <point x="580" y="1660"/>
      <point x="595" y="1686"/>
      <point x="613" y="1703" type="curve" smooth="yes"/>
      <point x="631" y="1720"/>
      <point x="651" y="1728"/>
      <point x="673" y="1728" type="curve" smooth="yes"/>
      <point x="699" y="1728"/>
      <point x="726" y="1717"/>
      <point x="754" y="1696" type="curve"/>
      <point x="756" y="1695" type="line"/>
      <point x="790" y="1670" type="line" smooth="yes"/>
      <point x="811" y="1655"/>
      <point x="828" y="1646"/>
      <point x="849" y="1638" type="curve" smooth="yes"/>
      <point x="867" y="1631"/>
      <point x="884" y="1627"/>
      <point x="911" y="1627" type="curve" smooth="yes"/>
      <point x="972" y="1627"/>
      <point x="1023" y="1648"/>
      <point x="1062" y="1682" type="curve" smooth="yes"/>
      <point x="1104" y="1719"/>
      <point x="1136" y="1773"/>
      <point x="1157" y="1846" type="curve"/>
      <point x="1032" y="1846" type="line"/>
      <point x="1025" y="1815"/>
      <point x="1012" y="1791"/>
      <point x="993" y="1773" type="curve" smooth="yes"/>
      <point x="975" y="1756"/>
      <point x="954" y="1746"/>
      <point x="924" y="1746" type="curve" smooth="yes"/>
      <point x="908" y="1746"/>
      <point x="899" y="1749"/>
      <point x="888" y="1753" type="curve" smooth="yes"/>
      <point x="876" y="1757"/>
      <point x="864" y="1764"/>
      <point x="852" y="1773" type="curve" smooth="yes"/>
      <point x="817" y="1799" type="line" smooth="yes"/>
      <point x="794" y="1816"/>
      <point x="774" y="1827"/>
      <point x="751" y="1835" type="curve" smooth="yes"/>
      <point x="730" y="1842"/>
      <point x="710" y="1846"/>
      <point x="684" y="1846" type="curve" smooth="yes"/>
      <point x="630" y="1846"/>
      <point x="580" y="1828"/>
      <point x="539" y="1791" type="curve" smooth="yes"/>
      <point x="498" y="1754"/>
      <point x="465" y="1700"/>
      <point x="442" y="1627" type="curve"/>
    </contour>
  </outline>
</glyph>
<glyph name="Adieresis" format="1">
  <advance width="1233"/>
  <unicode hex="00C4"/>
  <note>
	Adieresis
  </note>
  <outline>
    <contour>
      <point x="735" y="1325" type="line"/>
      <point x="801" y="551" type="line"/>
      <point x="371" y="551" type="line"/>
    </contour>
    <contour>
      <point x="639" y="1493" type="line"/>
      <point x="-106" y="0" type="line"/>
      <point x="111" y="0" type="line"/>
      <point x="295" y="389" type="line"/>
      <point x="815" y="389" type="line"/>
      <point x="850" y="0" type="line"/>
      <point x="1051" y="0" type="line"/>
      <point x="885" y="1493" type="line"/>
    </contour>
    <contour>
      <point x="897" y="1870" type="line"/>
      <point x="858" y="1667" type="line"/>
      <point x="1061" y="1667" type="line"/>
      <point x="1100" y="1870" type="line"/>
    </contour>
    <contour>
      <point x="506" y="1870" type="line"/>
      <point x="467" y="1667" type="line"/>
      <point x="669" y="1667" type="line"/>
      <point x="710" y="1870" type="line"/>
    </contour>
  </outline>
</glyph>
<glyph name="Aring" format="1">
  <advance width="1233"/>
  <unicode hex="00C5"/>
  <note>
	Aring
  </note>
  <outline>
    <contour>
      <point x="111" y="0" type="line"/>
      <point x="295" y="389" type="line"/>
      <point x="815" y="389" type="line"/>
      <point x="850" y="0" type="line"/>
      <point x="1051" y="0" type="line"/>
      <point x="897" y="1386" type="line"/>
      <point x="944" y="1407"/>
      <point x="980" y="1439"/>
      <point x="1007" y="1482" type="curve" smooth="yes"/>
      <point x="1032" y="1522"/>
      <point x="1047" y="1567"/>
      <point x="1047" y="1624" type="curve" smooth="yes"/>
      <point x="1047" y="1707"/>
      <point x="1016" y="1772"/>
      <point x="967" y="1821" type="curve" smooth="yes"/>
      <point x="917" y="1871"/>
      <point x="850" y="1901"/>
      <point x="773" y="1901" type="curve" smooth="yes"/>
      <point x="695" y="1901"/>
      <point x="626" y="1871"/>
      <point x="577" y="1821" type="curve" smooth="yes"/>
      <point x="527" y="1770"/>
      <point x="498" y="1702"/>
      <point x="498" y="1624" type="curve" smooth="yes"/>
      <point x="498" y="1581"/>
      <point x="507" y="1540"/>
      <point x="524" y="1504" type="curve" smooth="yes"/>
      <point x="541" y="1468"/>
      <point x="566" y="1438"/>
      <point x="600" y="1415" type="curve"/>
      <point x="-106" y="0" type="line"/>
    </contour>
    <contour>
      <point x="735" y="1325" type="line"/>
      <point x="801" y="551" type="line"/>
      <point x="371" y="551" type="line"/>
    </contour>
    <contour>
      <point x="728" y="1475"/>
      <point x="690" y="1493"/>
      <point x="665" y="1518" type="curve" smooth="yes"/>
      <point x="637" y="1546"/>
      <point x="621" y="1585"/>
      <point x="621" y="1627" type="curve" smooth="yes"/>
      <point x="621" y="1668"/>
      <point x="636" y="1706"/>
      <point x="665" y="1735" type="curve" smooth="yes"/>
      <point x="694" y="1764"/>
      <point x="730" y="1778"/>
      <point x="771" y="1778" type="curve" smooth="yes"/>
      <point x="810" y="1778"/>
      <point x="849" y="1765"/>
      <point x="880" y="1734" type="curve" smooth="yes"/>
      <point x="906" y="1708"/>
      <point x="924" y="1671"/>
      <point x="924" y="1626" type="curve" smooth="yes"/>
      <point x="924" y="1584"/>
      <point x="909" y="1548"/>
      <point x="880" y="1519" type="curve" smooth="yes"/>
      <point x="854" y="1493"/>
      <point x="816" y="1475"/>
      <point x="772" y="1475" type="curve" smooth="yes"/>
    </contour>
  </outline>
</glyph>
